<svg id="Grupo_393" data-name="Grupo 393" xmlns="http://www.w3.org/2000/svg" width="117.65" height="136.384" viewBox="0 0 117.65 136.384">
  <g id="Grupo_392" data-name="Grupo 392">
    <path id="Trazado_1650" data-name="Trazado 1650" d="M537.086,241.581c.98,2.019,2,4.017,3.1,5.952.26.458.438.921.676,1.381a53.886,53.886,0,0,1-26.718,100.7c-.062,0-6.5-.158-9.1-4.573-2.326-3.942-1.178-10.53,3.321-19.059a64.154,64.154,0,0,0,9.5-6.957,65.111,65.111,0,0,0,13.579-17.351,68.459,68.459,0,0,0,6.91-47.279,58.29,58.29,0,0,0-9.545-21.971c-4.492-6.142-10.06-10.538-14.5-12.471a18.555,18.555,0,0,0-5.489-1.619c-1.294-.163-1.987-.24-1.987-.24s-.136.658-.443,1.9c-.265,1.166-1.116,3.009-1.745,4.776a113.821,113.821,0,0,1-6.895,12.77c-5.4,9.251-10.552,20.62-12.327,33.412a83.714,83.714,0,0,0-.653,19.464,94.343,94.343,0,0,0,3.39,18.665c1.527,5.15,4.883,16.945,6.543,20.333a136.969,136.969,0,0,0,8.256-13.819c1.916-3.336,3.314-6.873,4.873-10.29s2.507-7.006,3.754-10.384c.933-3.447,1.6-6.85,2.346-10.043.314-3.274.609-6.38.9-9.236-.161-2.876-.3-5.511-.411-7.843.04-2.393-.817-4.3-1.076-5.959-.762-3.3-1.2-5.195-1.2-5.195s.574,1.856,1.584,5.086c.386,1.643,1.391,3.561,1.527,5.947.3,2.354.624,5.039.995,7.959-.069,2.945-.134,6.133-.213,9.508-.53,3.311-.963,6.868-1.668,10.478-1.017,3.544-1.74,7.32-3.076,10.956s-2.529,7.407-4.234,10.948q-1.366,3.148-2.856,6.2l-.114-.062c-.789,1.487-1.455,2.925-2.059,4.316-.255.488-.492.992-.752,1.477.059-.03.119-.047.183-.072-3.012,7.57-3.242,13.683-.572,18.158,4.036,6.766,12.849,6.929,13.248,6.934a58.773,58.773,0,0,0,22.956-112.9Z" transform="translate(-455.301 -218.095)" fill="#f28f00"/>
    <path id="Trazado_1651" data-name="Trazado 1651" d="M500.481,314.793a12.475,12.475,0,0,0-15-4.94,53.779,53.779,0,0,1,21.083-75.843,24.31,24.31,0,0,1,2.4-6.521,58.763,58.763,0,0,0-27.624,85,12.492,12.492,0,0,0-1.911,15.7l1.307,2.059,3.64-2.3,3.915,6.17L492.4,331.5l-3.92-6.172,4.675-2.97,3.92,6.172,4.116-2.613-3.923-6.172,4.529-2.881ZM482.566,323.3a7.606,7.606,0,0,1,12.161-7.731Z" transform="translate(-472.679 -204.241)" fill="#f28f00"/>
  </g>
</svg>
