<svg xmlns="http://www.w3.org/2000/svg" width="35.384" height="35.285" viewBox="0 0 35.384 35.285">
  <g id="Grupo_21" data-name="Grupo 21" transform="translate(0)">
    <path id="Trazado_76" data-name="Trazado 76" d="M2104.068,1026.14v2.072c-.021.111-.044.221-.061.331-.133.874-.191,1.767-.409,2.62a17.42,17.42,0,0,1-11.881,12.85c-1.012.348-2.086.513-3.159.769v-13.93h4.232c.214-1.656.423-3.271.638-4.933h-4.878c0-1.228-.019-2.413.011-3.6a2.51,2.51,0,0,1,.255-.991,1.742,1.742,0,0,1,1.628-.918c.919-.046,1.841-.035,2.761-.049.121,0,.242-.012.384-.02,0-1.42,0-2.8-.011-4.18a.34.34,0,0,0-.239-.231c-1.39-.062-2.783-.168-4.172-.138a5.724,5.724,0,0,0-3.65,1.358,5.907,5.907,0,0,0-2.039,4.411c-.07,1.309-.038,2.623-.052,3.935,0,.134,0,.268,0,.441H2079.2v4.942h4.212v13.675a.343.343,0,0,1-.083.018,1.307,1.307,0,0,1-.136-.021,17.56,17.56,0,0,1-7.633-3.427,17.64,17.64,0,0,1-5.561-20.59,17.719,17.719,0,0,1,15.742-11.031,17.163,17.163,0,0,1,9,2.1,17.416,17.416,0,0,1,9.059,12.53C2103.919,1024.795,2103.978,1025.47,2104.068,1026.14Z" transform="translate(-2068.684 -1009.497)" fill="#008d32"/>
  </g>
</svg>
