<svg xmlns="http://www.w3.org/2000/svg" width="128.754" height="104.694" viewBox="0 0 128.754 104.694">
  <path id="Trazado_1652" data-name="Trazado 1652" d="M723.247,367.913v-7.531a14.917,14.917,0,0,0-10.82,4.643l-1.653-3.989a6,6,0,0,0-11.09,0l-1.665,4.014a14.922,14.922,0,0,0-10.845-4.667v7.531a7.445,7.445,0,0,1,7.437,7.434v.126h.01a10.6,10.6,0,0,0,6.843,9.818v10.54l-4.853-5.549-8.427,7.694,5.078,5.561,2.745-2.507,5.457,6.241v8.234l-4.85-5.548-8.429,7.694,5.078,5.561,2.745-2.507,5.457,6.241v6.1a361.023,361.023,0,0,0-38.82-2.537V423.9l5.457-6.241,2.747,2.507,5.076-5.561-8.427-7.694-4.853,5.549v-8.236l5.457-6.239,2.747,2.507,5.076-5.561-8.427-7.694-4.853,5.548v-10.54a10.6,10.6,0,0,0,6.833-10.409,7.446,7.446,0,0,1,7.419-6.969v-7.531a14.918,14.918,0,0,0-10.817,4.64l-1.656-3.987a6,6,0,0,0-11.09,0l-1.663,4.017a14.921,14.921,0,0,0-10.845-4.67v7.531a7.445,7.445,0,0,1,7.434,7.437v.124h.01a10.6,10.6,0,0,0,6.843,9.818v10.54l-4.851-5.548-8.429,7.694,5.078,5.561,2.745-2.507,5.457,6.241v8.236l-4.851-5.551-8.427,7.694,5.076,5.561,2.745-2.507,5.457,6.241v6.608a362.686,362.686,0,0,0-38.8,2.512v-6.073l5.457-6.241,2.745,2.507,5.078-5.561-8.427-7.694-4.853,5.551v-8.236l5.457-6.241,2.745,2.507,5.078-5.561-8.427-7.694-4.853,5.549v-10.54a10.606,10.606,0,0,0,6.833-10.409,7.446,7.446,0,0,1,7.419-6.969v-7.531a14.925,14.925,0,0,0-10.82,4.643l-1.653-3.989a6,6,0,0,0-11.09,0l-1.665,4.014a14.921,14.921,0,0,0-10.845-4.667v7.531a7.444,7.444,0,0,1,7.437,7.434v.126h.01a10.6,10.6,0,0,0,6.843,9.818v10.54l-4.853-5.549-8.427,7.694,5.078,5.561,2.745-2.507,5.457,6.241v8.234l-4.853-5.548-8.427,7.694,5.078,5.561,2.745-2.507,5.457,6.241v7.043q-5.587.776-11.157,1.725l-3.13.535v22.731h128.5V436.253l-3.128-.535q-5.42-.932-10.869-1.7v-7.076l5.457-6.241,2.744,2.507,5.078-5.561-8.427-7.694-4.853,5.548v-8.234l5.457-6.241,2.744,2.507,5.078-5.561-8.427-7.694-4.853,5.549v-10.54a10.6,10.6,0,0,0,6.83-10.409A7.448,7.448,0,0,1,723.247,367.913Z" transform="translate(-594.493 -354.287)" fill="#f28f00"/>
</svg>
