<svg id="Grupo_419" data-name="Grupo 419" xmlns="http://www.w3.org/2000/svg" width="135.362" height="135.362" viewBox="0 0 135.362 135.362">
  <g id="Grupo_375" data-name="Grupo 375" transform="translate(43.886)">
    <g id="Grupo_374" data-name="Grupo 374">
      <path id="Trazado_1625" data-name="Trazado 1625" d="M510.255,348.091a23.927,23.927,0,1,0,23.793,24.06A24.049,24.049,0,0,0,510.255,348.091Z" transform="translate(-486.46 -348.091)" fill="#f28f00"/>
    </g>
  </g>
  <g id="Grupo_377" data-name="Grupo 377" transform="translate(43.836 47.853)">
    <g id="Grupo_376" data-name="Grupo 376">
      <path id="Trazado_1626" data-name="Trazado 1626" d="M518.216,367.427H502.353a35.562,35.562,0,0,0-15.913,3.905,99.574,99.574,0,0,1,23.845,9.879,99.572,99.572,0,0,1,23.845-9.879A35.561,35.561,0,0,0,518.216,367.427Z" transform="translate(-486.44 -367.427)" fill="#f28f00"/>
    </g>
  </g>
  <g id="Grupo_379" data-name="Grupo 379" transform="translate(119.498 71.646)">
    <g id="Grupo_378" data-name="Grupo 378">
      <path id="Trazado_1627" data-name="Trazado 1627" d="M524.945,377.041a7.932,7.932,0,0,0-7.932,7.932v15.863a7.932,7.932,0,1,0,15.863,0V384.973A7.932,7.932,0,0,0,524.945,377.041Z" transform="translate(-517.013 -377.041)" fill="#f28f00"/>
    </g>
  </g>
  <g id="Grupo_381" data-name="Grupo 381" transform="translate(0 71.646)">
    <g id="Grupo_380" data-name="Grupo 380">
      <path id="Trazado_1628" data-name="Trazado 1628" d="M476.659,377.041a7.932,7.932,0,0,0-7.932,7.932v15.863a7.932,7.932,0,0,0,15.864,0V384.973A7.932,7.932,0,0,0,476.659,377.041Z" transform="translate(-468.727 -377.041)" fill="#f28f00"/>
    </g>
  </g>
  <g id="Grupo_383" data-name="Grupo 383" transform="translate(7.932 55.785)">
    <g id="Grupo_382" data-name="Grupo 382">
      <path id="Trazado_1629" data-name="Trazado 1629" d="M475.9,370.632a3.962,3.962,0,0,0-3.965,3.965v3.967A15.878,15.878,0,0,1,487.8,394.425v15.864a15.878,15.878,0,0,1-15.864,15.861v3.967a3.964,3.964,0,0,0,3.965,3.965c20.333,0,36.587,6.422,51.817,16.128V383.479C512.415,374.706,495.965,370.632,475.9,370.632Z" transform="translate(-471.932 -370.632)" fill="#f28f00"/>
    </g>
  </g>
  <g id="Grupo_385" data-name="Grupo 385" transform="translate(71.646 55.785)">
    <g id="Grupo_384" data-name="Grupo 384">
      <path id="Trazado_1630" data-name="Trazado 1630" d="M553.462,378.564V374.6a3.963,3.963,0,0,0-3.967-3.965c-20.066,0-36.518,4.074-51.818,12.847v66.731c15.232-9.706,31.487-16.128,51.818-16.128a3.964,3.964,0,0,0,3.967-3.965v-3.967A15.878,15.878,0,0,1,537.6,410.288V394.425A15.878,15.878,0,0,1,553.462,378.564Z" transform="translate(-497.677 -370.632)" fill="#f28f00"/>
    </g>
  </g>
</svg>
