<svg id="Grupo_357" data-name="Grupo 357" xmlns="http://www.w3.org/2000/svg" width="112.378" height="109.927" viewBox="0 0 112.378 109.927">
  <g id="Grupo_356" data-name="Grupo 356">
    <g id="Grupo_351" data-name="Grupo 351" transform="translate(2.148)">
      <g id="Grupo_350" data-name="Grupo 350">
        <path id="Trazado_1612" data-name="Trazado 1612" d="M253.1,224.167a3.721,3.721,0,0,0-5.182,0L227,244.624h47.009Z" transform="translate(-227.002 -223.117)" fill="#f28f00"/>
      </g>
    </g>
    <g id="Grupo_353" data-name="Grupo 353" transform="translate(58.633 51.43)">
      <g id="Grupo_352" data-name="Grupo 352">
        <path id="Trazado_1613" data-name="Trazado 1613" d="M299.906,280.886c-9.954,0-17.222-5.422-20.467-12.673A43.358,43.358,0,0,0,249.826,243.9v54.913a3.665,3.665,0,0,0,7.328,0V273.2a21.041,21.041,0,0,1,2.146,3.631,42.477,42.477,0,0,0,5.182,8.627v13.352a3.666,3.666,0,0,0,7.33,0V292.86a44.219,44.219,0,0,0,28.094,9.535,3.628,3.628,0,0,0,3.665-3.584V284.472A3.628,3.628,0,0,0,299.906,280.886Z" transform="translate(-249.826 -243.898)" fill="#f28f00"/>
      </g>
    </g>
    <g id="Grupo_355" data-name="Grupo 355" transform="translate(0 28.677)">
      <g id="Grupo_354" data-name="Grupo 354">
        <path id="Trazado_1614" data-name="Trazado 1614" d="M226.134,234.7v77.667a3.628,3.628,0,0,0,3.665,3.583h14.658a3.628,3.628,0,0,0,3.665-3.583V306.4h7.328v5.974a3.626,3.626,0,0,0,3.665,3.583h14.658a3.625,3.625,0,0,0,3.663-3.583V234.7Zm29.317,64.523h-7.328v-7.169h7.328Zm0-14.339h-7.328v-7.169h7.328Zm3.665-25.092H244.457v-7.17a7.331,7.331,0,0,1,14.658,0v7.17Z" transform="translate(-226.134 -234.704)" fill="#f28f00"/>
      </g>
    </g>
  </g>
</svg>
