<svg id="Grupo_359" data-name="Grupo 359" xmlns="http://www.w3.org/2000/svg" width="108.825" height="110.539" viewBox="0 0 108.825 110.539">
  <g id="Grupo_358" data-name="Grupo 358">
    <g id="Layer_5" data-name="Layer 5">
      <path id="Trazado_1615" data-name="Trazado 1615" d="M697.122,250.3c-11.05-7.8-26.131-5.437-35.187,7.392-7.919,11.221-5.113,28.975-.121,36.246,0,0,.287.364-.24.584-.881.366-8.018,1.9-8.018,1.9-1.381.433-1.544,1.47-.361,2.307,0,0,2.839,1.849,3.68,2.6.747.661.371,1.126.371,1.126s-10.59,14.247-13.631,19.313c-.319.532-1.53,3.032-2.289-.96-1.235-6.477-3.838-20.677-4.957-26.577a.887.887,0,0,1,.732-1.027l5.026-.935c1.569-.294,1.886-1.411.7-2.48,0,0-6.363-4.806-7.093-5.531-.485-.48-.1-.666-.1-.666,8.588-4.964,19.4-21.548,16.618-36.5-3.175-17.039-17.217-26.349-31.888-23.615s-24.419,16.477-21.246,33.514c2.777,14.9,18.977,26.347,28.569,28,0,0,.507.054.275.639-.388.98-4.67,7.8-4.67,7.8-.72,1.426-.025,2.354,1.547,2.062l4.89-.913s1.037-.23,1.188.671c1.492,8.862,6.694,35.927,6.694,35.927a2.418,2.418,0,0,0,.062.262,2.507,2.507,0,0,0,3.63,1.824c1.594-.708,20.093-27.96,20.093-27.96a.65.65,0,0,1,.948-.106c.968.681,3.866,2.727,3.866,2.727,1.183.834,2.106.334,2.051-1.114,0,0-.9-7.169-.893-8.1,0-.619.371-.485.371-.485,8.652,2.438,26.255-1.02,34.2-12.285C711,273.1,708.172,258.1,697.122,250.3Zm-80.958-13.349c-5.467,3.727-7.419,11.6-4.643,18.734a3,3,0,0,1-1.425,3.742,14.47,14.47,0,0,1-2.267.294,3.074,3.074,0,0,1-2.5-2.022c-3.65-9.377-.888-19.87,6.571-24.953,1.193-.814,3.452-.69,4.264.5S617.359,236.134,616.164,236.948Zm71.9,16.92c-.262,1.282-1.292,2.42-2.571,2.16-5.875-1.2-12.225,2.517-15.1,8.828a3.014,3.014,0,0,1-4.046.829,2.822,2.822,0,0,1-.955-3.514c3.779-8.3,12.339-13.134,20.355-11.505A3.166,3.166,0,0,1,688.064,253.868Z" transform="translate(-598.52 -222.993)" fill="#f28f00"/>
    </g>
  </g>
</svg>
