<svg id="Grupo_364" data-name="Grupo 364" xmlns="http://www.w3.org/2000/svg" width="152.658" height="96.757" viewBox="0 0 152.658 96.757">
  <g id="Grupo_363" data-name="Grupo 363">
    <g id="Grupo_362" data-name="Grupo 362">
      <g id="Grupo_361" data-name="Grupo 361">
        <g id="Grupo_360" data-name="Grupo 360">
          <path id="Trazado_1616" data-name="Trazado 1616" d="M227.385,262.864a8.414,8.414,0,0,1-12.669,0,27.379,27.379,0,0,0-41.144-.173,8.414,8.414,0,0,1-12.574,0,27.375,27.375,0,0,0-40.993,0,8.417,8.417,0,0,1-6.3,2.821h0a8.4,8.4,0,0,1-6.284-2.816A27.264,27.264,0,0,0,91.939,254v16.6a11.484,11.484,0,0,1,3.539,2.683,24.369,24.369,0,0,0,36.456-.007,11.419,11.419,0,0,1,17.128.005,24.357,24.357,0,0,0,36.451,0,11.413,11.413,0,0,1,17.185.067,24.368,24.368,0,0,0,36.719,0,11.707,11.707,0,0,1,5.18-3.376V253.839A27.237,27.237,0,0,0,227.385,262.864Z" transform="translate(-91.939 -184.943)" fill="#f28f00"/>
          <circle id="Elipse_99" data-name="Elipse 99" cx="19.682" cy="19.682" r="19.682" transform="translate(95.502 58.277) rotate(-79.148)" fill="#f28f00"/>
          <path id="Trazado_1617" data-name="Trazado 1617" d="M148.4,300a3.2,3.2,0,0,0,4.616,0,32.794,32.794,0,0,1,19.2-10.545,18.39,18.39,0,0,0-.73-9.229c-.569-1.611-6.828-22.635-6.828-22.635a12.224,12.224,0,0,1,1.9-8.273c2.636-3.856,8.154-6.5,15.935-7.669a7.979,7.979,0,1,0-2.358-15.782c-12.458,1.859-21.471,6.717-26.753,14.436a27.859,27.859,0,0,0-4.254,20.962l1.693,6.855a18.852,18.852,0,0,0-3.084.75l-32.195,11.367a18.61,18.61,0,0,0-12.369,16.247A32.567,32.567,0,0,1,148.4,300Z" transform="translate(-75.362 -225.777)" fill="#f28f00"/>
        </g>
      </g>
    </g>
  </g>
</svg>
