<svg id="Tt2cTZ" xmlns="http://www.w3.org/2000/svg" width="123.732" height="122.67" viewBox="0 0 123.732 122.67">
  <g id="Grupo_391" data-name="Grupo 391">
    <path id="Trazado_1649" data-name="Trazado 1649" d="M435.693,321.831c1.133-.718,2.259-1.448,3.4-2.151A22.37,22.37,0,0,0,445.9,312.8c.634-.948.037-1.5-.515-2.1-2.495-2.737-5.066-5.4-7.454-8.226-1.965-2.319-3.727-4.809-5.551-7.244-.676-.9-.626-1.569.577-2.121,2.957-1.356,5.858-2.831,8.768-4.286,1.336-.668,1.416-1.27.324-2.287a84.95,84.95,0,0,1-12.077-14.069c-.935-1.359-.718-2.126.948-2.972,2.806-1.43,5.623-2.839,8.437-4.252,1.4-.7,1.413-1.146.186-2.131a7.267,7.267,0,0,1-1.789-1.844,2.434,2.434,0,0,1-.245-1.99,75.683,75.683,0,0,0,6.83-16.9,10.466,10.466,0,0,1,.552-1.171c.611,1.819,1.022,3.341,1.623,4.779,1.9,4.531,3.645,9.142,5.865,13.51a51.043,51.043,0,0,0,9.469,13.013c.864.864.324,1.571-.485,2.109-1.524,1.012-3.069,1.992-4.6,2.992-1.393.908-1.47,1.433-.6,2.871a45.622,45.622,0,0,0,7.9,9.818c1.314,1.223,1.228,1.507-.242,2.5-1.722,1.163-3.455,2.319-5.086,3.6a1.7,1.7,0,0,0-.322,1.616c3.334,5.647,6.8,11.213,11.367,15.977,1.086,1.133.507,2.084-.381,2.688a40.6,40.6,0,0,1-6.125,3.611,25.968,25.968,0,0,1-11.711,2.3c-1.188-.047-1.779.621-1.784,1.8-.012,2.6,0,5.192-.035,7.788a1.648,1.648,0,0,0,1.359,1.755c3.017.908,6.039,1.8,9.05,2.727,1.458.445,2.913.908,4.346,1.43,1.752.639,1.972,1.235,1.131,2.831-.4.762-.688,1.94-1.294,2.146-.705.238-1.7-.381-2.569-.629-6.1-1.732-12.151-3.668-18.314-5.13-4.779-1.136-9.7-1.675-14.557-2.487a128.689,128.689,0,0,0-27.238-1.339c-5.927.28-11.857.94-17.737,1.782a144.034,144.034,0,0,0-14.3,2.923c-4.222,1.049-8.355,2.467-12.52,3.739-1.21.371-2.391.841-3.606,1.193-.916.265-1.606,0-1.8-1.064a2.45,2.45,0,0,0-.332-1.007c-1.091-1.5-.792-2.292,1.292-2.987,3.9-1.3,7.833-2.485,11.782-3.6,2.433-.688,2.75-.95,2.747-3.413,0-2.19-.02-4.378,0-6.566.015-1.339-.557-1.977-1.93-1.9a27.092,27.092,0,0,1-12.295-2.519,30.991,30.991,0,0,1-5.6-3.626c-1.034-.745-.913-1.631-.025-2.576,4.447-4.732,7.88-10.194,11.221-15.72a1.214,1.214,0,0,0-.413-1.918c-1.653-1.089-3.264-2.24-4.9-3.356s-1.69-1.4-.24-2.7a45.727,45.727,0,0,0,7.986-9.946,1.574,1.574,0,0,0-.544-2.458c-1.619-1.047-3.225-2.113-4.848-3.155-.97-.624-1.21-1.3-.339-2.22a66.379,66.379,0,0,0,14.344-23.867c.713-2,1.3-4.046,1.963-6.066a9.564,9.564,0,0,1,.527-1.057,6.8,6.8,0,0,1,.539.911c1.45,4,2.839,8.023,4.353,12a24.216,24.216,0,0,0,2.25,4.484c.747,1.161.765,2.022-.265,2.918-.572.5-1.106,1.042-1.69,1.522-.906.747-.874,1.458.151,1.97q4.288,2.153,8.593,4.276c1.846.911,1.99,1.626.666,3.252-3.009,3.692-5.974,7.422-9.021,11.085-.871,1.047-1.987,1.886-2.945,2.866-.99,1.01-.888,1.487.389,2.123,2.91,1.445,5.791,2.952,8.753,4.281,1.28.572,1.374,1.255.671,2.21-1.747,2.366-3.455,4.774-5.358,7.014-2.3,2.7-4.752,5.269-7.192,7.845-1.027,1.084-1.371,1.953-.391,3.4a23.3,23.3,0,0,0,8.615,7.558,6.658,6.658,0,0,1,.666.364,4.657,4.657,0,0,1,.532.668,14.513,14.513,0,0,1-2.366.391c-1.376-.01-1.955.638-1.95,1.95.007,1.628-.03,3.257.007,4.885.032,1.492.725,1.95,2.151,1.769,7.256-.911,14.512-1.814,21.781-2.626,2.282-.255,2.453-.28,2.458-2.646,0-1.324-.02-2.648,0-3.972a1.461,1.461,0,0,0-1.542-1.666c-3.193-.282-6.417-.4-9.568-.933-4.766-.817-9.461-2.019-13.332-5.187-1.554-1.272-1.425-1.638-.156-3.207q5.119-6.322,10.072-12.78c1.136-1.482,2.067-3.123,3.081-4.7.644-1,.747-1.831-.554-2.46-2.371-1.143-4.7-2.378-7.048-3.564-1.735-.876-1.722-.854-.359-2.366a82.945,82.945,0,0,0,10.7-15.326c.656-1.178.255-1.755-.809-2.262-2.292-1.089-4.564-2.222-6.835-3.353-1.294-.643-1.45-1.453-.458-2.495a77.755,77.755,0,0,0,13.975-21.271c2.579-5.563,4.65-11.362,6.912-17.071a23,23,0,0,0,.688-2.715c.356.406.611.579.7.812,2.118,5.712,3.92,11.565,6.415,17.106a108.8,108.8,0,0,0,7.734,13.775c2.146,3.356,4.833,6.365,7.3,9.516.809,1.034.685,1.725-.473,2.289q-3.49,1.7-6.981,3.405a1.489,1.489,0,0,0-.755,2.371c2.289,3.593,4.559,7.207,6.981,10.711a54.526,54.526,0,0,0,4.108,4.885c.742.844.859,1.3-.384,1.859-2.537,1.141-4.955,2.552-7.469,3.744-1.284.609-1.173,1.487-.574,2.344,2.965,4.234,5.949,8.459,9.026,12.614,1.354,1.831,2.908,3.522,4.44,5.214a1.623,1.623,0,0,1-.163,2.71,19.958,19.958,0,0,1-9.14,4.341c-4.425.866-8.927,1.376-13.406,1.95-1.94.247-2.131.332-2.156,2.321-.02,1.374-.012,2.75-.045,4.123-.027,1.2.542,1.735,1.735,1.824,4.311.319,8.63.594,12.926,1.074,3.076.341,6.13.928,9.172,1.522,1.923.376,2.606-.042,2.611-1.96,0-1.475,0-2.952-.032-4.427-.044-1.688-.426-2.024-2.094-2.106-.688-.035-1.371-.191-2.054-.29Z" transform="translate(-346.645 -220.542)" fill="#f28f00"/>
  </g>
</svg>
