<svg id="Grupo_421" data-name="Grupo 421" xmlns="http://www.w3.org/2000/svg" width="126.864" height="126.864" viewBox="0 0 126.864 126.864">
  <path id="Trazado_1634" data-name="Trazado 1634" d="M152.9,395.063H108.3A11.164,11.164,0,0,0,97.15,406.212a3.716,3.716,0,0,0,3.717,3.717h59.467a3.716,3.716,0,0,0,3.717-3.717A11.162,11.162,0,0,0,152.9,395.063Z" transform="translate(-97.15 -283.066)" fill="#f28f00"/>
  <path id="Trazado_1635" data-name="Trazado 1635" d="M168.271,395.063H138.536a11.162,11.162,0,0,0-11.149,11.149,3.716,3.716,0,0,0,3.717,3.717h44.6a3.714,3.714,0,0,0,3.715-3.717A11.162,11.162,0,0,0,168.271,395.063Z" transform="translate(-52.556 -283.066)" fill="#f28f00"/>
  <path id="Trazado_1636" data-name="Trazado 1636" d="M103.277,390.914a14.775,14.775,0,0,1,2.6-.223h37.167a14.747,14.747,0,0,1,2.6.223l1.413-4.163a11.153,11.153,0,0,0-10.629-14.643h-8.251v-7.434H131.9a3.716,3.716,0,1,0,0-7.432h-3.715v-3.717a3.717,3.717,0,1,0-7.434,0v3.717h-3.717a3.716,3.716,0,1,0,0,7.432h3.717v7.434H112.5a11.15,11.15,0,0,0-10.629,14.643Z" transform="translate(-91.012 -349.808)" fill="#f28f00"/>
  <path id="Trazado_1637" data-name="Trazado 1637" d="M136.571,378.342H113.823A64.547,64.547,0,0,1,103.416,408.5l-2.6,3.866c.668,0,1.413-.074,2.081-.074h44.6c.668,0,1.411.074,2.081.074l-2.6-3.866A64.544,64.544,0,0,1,136.571,378.342Z" transform="translate(-91.745 -307.726)" fill="#f28f00"/>
  <path id="Trazado_1638" data-name="Trazado 1638" d="M136.655,384.35a57.355,57.355,0,0,1-5.5,18.856l-.223.371c.819-.074,1.562-.148,2.378-.148h29.735c.817,0,1.562.074,2.378.148l-.223-.371a57.474,57.474,0,0,1-5.5-18.856Z" transform="translate(-47.33 -298.865)" fill="#f28f00"/>
  <path id="Trazado_1639" data-name="Trazado 1639" d="M175.705,364.826H164.554v13.008a3.716,3.716,0,1,1-7.432,0V364.826h-7.434v13.008a3.717,3.717,0,1,1-7.434,0V364.826H131.1a3.681,3.681,0,0,0-3.717,3.717v7.434a18.5,18.5,0,0,0,4.311,11.891,14.772,14.772,0,0,1,10.555-4.46h22.3a14.772,14.772,0,0,1,10.555,4.46,18.485,18.485,0,0,0,4.311-11.891v-7.434A3.679,3.679,0,0,0,175.705,364.826Z" transform="translate(-52.556 -327.659)" fill="#f28f00"/>
  <path id="Trazado_1640" data-name="Trazado 1640" d="M107.588,384.2h37.167a7.433,7.433,0,1,0,0-14.866H107.588a7.433,7.433,0,1,0,0,14.866Z" transform="translate(-92.72 -321.014)" fill="#f28f00"/>
  <path id="Trazado_1641" data-name="Trazado 1641" d="M160.123,375.339h-22.3a7.433,7.433,0,0,0,0,14.866h22.3a7.433,7.433,0,1,0,0-14.866Z" transform="translate(-48.126 -312.155)" fill="#f28f00"/>
</svg>
