<svg id="Grupo_418" data-name="Grupo 418" xmlns="http://www.w3.org/2000/svg" width="108.799" height="128.377" viewBox="0 0 108.799 128.377">
  <g id="Grupo_372" data-name="Grupo 372">
    <circle id="Elipse_100" data-name="Elipse 100" cx="18.287" cy="18.287" r="18.287" transform="translate(35.677)" fill="#f28f00"/>
    <path id="Trazado_1623" data-name="Trazado 1623" d="M830.862,423.982c-8.818-20.7-40.075-52.647-40.683-53.043a17.119,17.119,0,0,0-12.386-5.128V365.8h-.874v.015a17.115,17.115,0,0,0-12.386,5.128c-.609.4-31.868,32.341-40.686,53.043a10.681,10.681,0,0,0,3.242,12.639,15.115,15.115,0,0,0,.082,8.867c1.616,5.155,5.8,8.36,10.9,8.36h78.563c5.105,0,9.283-3.2,10.9-8.36a15.055,15.055,0,0,0,.084-8.867A10.672,10.672,0,0,0,830.862,423.982Zm-83.027-3.262a130.571,130.571,0,0,1,12.673-17.126c0,5.561.161,19.474.441,20.739C760,424.089,751.245,421.884,747.835,420.72Zm45.93,3.613c.277-1.265.438-15.178.438-20.739a130.139,130.139,0,0,1,12.676,17.126C803.471,421.884,794.711,424.089,793.765,424.334Z" transform="translate(-722.956 -325.471)" fill="#f28f00"/>
  </g>
</svg>
