<svg id="Grupo_371" data-name="Grupo 371" xmlns="http://www.w3.org/2000/svg" width="120.266" height="82.465" viewBox="0 0 120.266 82.465">
  <g id="Grupo_370" data-name="Grupo 370">
    <path id="Trazado_1619" data-name="Trazado 1619" d="M753.845,251.613a11.289,11.289,0,0,0-7.306-10.55v21.1A11.286,11.286,0,0,0,753.845,251.613Z" transform="translate(-682.441 -210.38)" fill="#f28f00"/>
    <rect id="Rect치ngulo_68" data-name="Rect치ngulo 68" width="14.538" height="28.546" transform="translate(0.001 26.959)" fill="#f28f00"/>
    <path id="Trazado_1620" data-name="Trazado 1620" d="M740.383,251.613a11.286,11.286,0,0,0,7.306,10.548v-21.1A11.289,11.289,0,0,0,740.383,251.613Z" transform="translate(-691.52 -210.38)" fill="#f28f00"/>
    <path id="Trazado_1621" data-name="Trazado 1621" d="M746.539,228.665v22.447a19.2,19.2,0,0,1,0,37.572V311.13h56.168V292.1H780.241V247.694h22.467V228.665Z" transform="translate(-682.441 -228.665)" fill="#f28f00"/>
    <path id="Trazado_1622" data-name="Trazado 1622" d="M720.639,247.694h22.469V292.1H720.639V311.13h56.168V288.684a19.2,19.2,0,0,1,0-37.572V228.665H720.639Z" transform="translate(-720.639 -228.665)" fill="#f28f00"/>
    <rect id="Rect치ngulo_69" data-name="Rect치ngulo 69" width="14.537" height="28.546" transform="translate(105.728 26.959)" fill="#f28f00"/>
  </g>
</svg>
