<svg id="Grupo_422" data-name="Grupo 422" xmlns="http://www.w3.org/2000/svg" width="104.989" height="126.275" viewBox="0 0 104.989 126.275">
  <g id="Grupo_368" data-name="Grupo 368">
    <g id="Grupo_367" data-name="Grupo 367">
      <g id="Grupo_366" data-name="Grupo 366">
        <g id="Grupo_365" data-name="Grupo 365">
          <path id="Trazado_1618" data-name="Trazado 1618" d="M878.768,230.1l-8.13-7.892,2.391-2.391,8.132,7.892Zm-30.611,15.784,8.13,7.892,2.393-2.391-8.132-7.892ZM930.425,222.2l-2.391-2.391-8.132,7.892,2.393,2.391Zm20.09,21.046-7.892,8.132,2.391,2.391,8.132-7.892Zm-2.871-2.868-3.108,2.868-3.826-3.826a4.547,4.547,0,0,0-5.979-5.979l-4.784-5.021,3.348-3.348-2.391-2.391-8.132,7.892,2.393,2.391,3.346-3.348L933.3,234.4l-16.262,16.5h-33l-16.262-16.264,4.784-4.781,3.109,3.348,2.391-2.393-7.892-7.892-2.391,2.393,3.108,3.348-4.781,4.781a4.449,4.449,0,0,0-6.219,4.784,1.836,1.836,0,0,0,.478,1.2l-3.826,3.826-3.108-2.868-2.393,2.391,8.132,7.892,2.391-2.391-3.586-3.588,3.586-3.586L886.9,267.167v72.942a5.979,5.979,0,1,0,11.958,0V291.321H902.2v48.788a5.979,5.979,0,0,0,11.958,0V267.167l25.59-26.067,3.588,3.586-3.588,3.588,2.393,2.391,8.13-7.892Zm-47.113,7.412a11,11,0,1,0-11-11A11.126,11.126,0,0,0,900.531,247.794Z" transform="translate(-848.157 -219.814)" fill="#f28f00"/>
        </g>
      </g>
    </g>
  </g>
</svg>
