<svg xmlns="http://www.w3.org/2000/svg" width="147.432" height="112.446" viewBox="0 0 147.432 112.446">
  <path id="Trazado_1653" data-name="Trazado 1653" d="M483.042,456.383l5.526-11.057-7.773-3.8-5.615,11.06c-.681-.879-58.905-75.754-55.287-71.1v-7.17h25.916v-21.6H411.253v28.765c-5.662,7.281,20.511-26.364-55.374,71.185l-5.526-11.147-7.776,3.8,5.529,11.057h-6.249v8.64H367.37c0-.26.346-2.678.864-6.133l-6.392.173,18.591-23.9c-2.064,14.2-4.615,31.774-4.338,29.861h17.883V432.974l21.6-21.6,21.6,21.6v32.049h17.883v-.087c-.072-.495-2.336-16.232-4.224-29.354L466.8,455.866l-4.405.173c.69,4.405,1.21,7.86,1.3,8.637l.087.346h25.51v-8.64Z" transform="translate(-341.857 -352.721)" fill="#f28f00"/>
</svg>
