<svg xmlns="http://www.w3.org/2000/svg" width="119" height="119" viewBox="0 0 119 119">
  <g id="Grupo_443" data-name="Grupo 443" transform="translate(0 -0.378)">
    <circle id="Elipse_7" data-name="Elipse 7" cx="59.5" cy="59.5" r="59.5" transform="translate(0 0.378)" fill="#008d32"/>
    <g id="outline" transform="translate(23.961 25.245)">
      <path id="Trazado_86" data-name="Trazado 86" d="M51.086,16A35.086,35.086,0,1,0,86.172,51.086,35.086,35.086,0,0,0,51.086,16Zm0,67.833A32.747,32.747,0,1,1,83.833,51.086,32.747,32.747,0,0,1,51.086,83.833Z" transform="translate(-16 -16)" fill="#fff"/>
      <path id="Trazado_87" data-name="Trazado 87" d="M193.346,118.034h8.187a3.509,3.509,0,0,0,0-7.017h-3.509v-3.509a3.509,3.509,0,1,0-7.017,0v3.816a9.35,9.35,0,0,0,2.339,18.4h2.339a2.339,2.339,0,0,1,0,4.678H187.5a3.509,3.509,0,0,0,0,7.017h3.509v3.509a3.509,3.509,0,1,0,7.017,0v-3.816a9.35,9.35,0,0,0-2.339-18.4h-2.339a2.339,2.339,0,1,1,0-4.678Z" transform="translate(-159.429 -91.135)" fill="#fff"/>
      <path id="Trazado_88" data-name="Trazado 88" d="M78.408,48a30.408,30.408,0,1,0,30.408,30.408A30.408,30.408,0,0,0,78.408,48Zm0,58.477a28.069,28.069,0,1,1,28.069-28.069A28.069,28.069,0,0,1,78.408,106.477Z" transform="translate(-43.322 -43.322)" fill="#fff"/>
      <path id="Trazado_89" data-name="Trazado 89" d="M373.907,134.081a1.17,1.17,0,0,0-.024,1.613,22.483,22.483,0,0,1,4.784,8.089,22.165,22.165,0,0,1,1.124,6.67,1.167,1.167,0,0,0,1.128,1.147h0a1.171,1.171,0,0,0,1.213-1.185,24.457,24.457,0,0,0-1.242-7.369,24.831,24.831,0,0,0-5.283-8.941,1.171,1.171,0,0,0-1.7-.026Z" transform="translate(-321.298 -116.517)" fill="#fff"/>
      <path id="Trazado_90" data-name="Trazado 90" d="M417.17,272h0a1.17,1.17,0,0,1,1.17,1.17h0a1.17,1.17,0,0,1-1.17,1.17h0a1.17,1.17,0,0,1-1.17-1.17h0A1.17,1.17,0,0,1,417.17,272Z" transform="translate(-357.523 -234.575)" fill="#fff"/>
      <path id="Trazado_91" data-name="Trazado 91" d="M97.17,312h0a1.17,1.17,0,0,1,1.17,1.17h0a1.17,1.17,0,0,1-1.17,1.17h0A1.17,1.17,0,0,1,96,313.17h0A1.17,1.17,0,0,1,97.17,312Z" transform="translate(-84.305 -268.727)" fill="#fff"/>
      <path id="Trazado_92" data-name="Trazado 92" d="M129.17,280h0a1.17,1.17,0,0,1,1.17,1.17h0a1.17,1.17,0,0,1-1.17,1.17h0a1.17,1.17,0,0,1-1.17-1.17h0A1.17,1.17,0,0,1,129.17,280Z" transform="translate(-111.626 -241.405)" fill="#fff"/>
    </g>
  </g>
</svg>
