<svg xmlns="http://www.w3.org/2000/svg" width="120" height="119" viewBox="0 0 120 119">
  <g id="Grupo_442" data-name="Grupo 442" transform="translate(0.274 -0.378)">
    <ellipse id="Elipse_5" data-name="Elipse 5" cx="60" cy="59.5" rx="60" ry="59.5" transform="translate(-0.274 0.378)" fill="#008d32"/>
    <g id="Grupo_26" data-name="Grupo 26" transform="translate(27.066 27.116)">
      <path id="Trazado_80" data-name="Trazado 80" d="M2055.247,1304.549c-1.264,5.884-4.843,10.491-8.427,15.062a6.61,6.61,0,0,1-10.172.215,54.285,54.285,0,0,1-7.371-11.253c-3.728-7.686,1.628-16.779,9.744-18.285a13.559,13.559,0,0,1,16.113,11.674,3.569,3.569,0,0,0,.113.422Zm-13.588-9.471c-.526.058-1.057.09-1.578.178-4.945.845-8.58,6.546-6.137,11.324a59.154,59.154,0,0,0,6.407,9.77,1.615,1.615,0,0,0,2.635-.056c.627-.775,1.226-1.573,1.812-2.381a38.061,38.061,0,0,0,4.7-7.836,7.237,7.237,0,0,0,.624-2.568A8.521,8.521,0,0,0,2041.658,1295.078Z" transform="translate(-1990.001 -1256.962)" fill="#fff"/>
      <path id="Trazado_81" data-name="Trazado 81" d="M1968.286,1209.8q8.568,0,17.136,0a15.209,15.209,0,0,1,15.088,12.154,12.76,12.76,0,0,1,.308,2.586q.049,6.625.015,13.25a2.545,2.545,0,1,1-5.082-.088c-.007-4.162.028-8.324-.024-12.486a11.684,11.684,0,0,0-.463-3.191,10.085,10.085,0,0,0-9.39-7.142c-.212-.011-.425-.016-.637-.016-11.3,0-22.593-.017-33.89.007a10.023,10.023,0,0,0-9.674,6.123,9.1,9.1,0,0,0-.848,3.952q0,17.391.006,34.782a10.17,10.17,0,0,0,10.507,10.089c7.241.014,14.482,0,21.723,0a2.535,2.535,0,0,1,.637,5.029,6.336,6.336,0,0,1-.825.051c-7.135,0-14.27-.041-21.4.014a15.372,15.372,0,0,1-14.762-9.924,14.812,14.812,0,0,1-.969-5.163c-.007-11.658-.04-23.316.009-34.973a15.2,15.2,0,0,1,15.276-15.054C1956.778,1209.786,1962.532,1209.8,1968.286,1209.8Z" transform="translate(-1935.721 -1209.797)" fill="#fff"/>
      <path id="Trazado_82" data-name="Trazado 82" d="M2008.983,1243.525a2.756,2.756,0,0,1-.958,2q-7.213,7.2-14.415,14.408-11.056,11.056-22.109,22.116a2.725,2.725,0,0,1-2.373.967,2.4,2.4,0,0,1-2.059-1.67,2.374,2.374,0,0,1,.5-2.545c.285-.315.592-.608.892-.909q17.947-17.947,35.889-35.9a2.724,2.724,0,0,1,2.6-.976A2.506,2.506,0,0,1,2008.983,1243.525Z" transform="translate(-1954.048 -1228.117)" fill="#fff"/>
      <path id="Trazado_83" data-name="Trazado 83" d="M1986.414,1248.928a7.642,7.642,0,0,1-5.431-2.287q-3.87-3.876-7.714-7.779a2.538,2.538,0,1,1,3.591-3.583q3.74,3.736,7.454,7.5,2.1,2.117,4.194.025c2.508-2.507,5.006-5.023,7.525-7.518a2.524,2.524,0,0,1,4.268.943,2.339,2.339,0,0,1-.537,2.486c-2.782,2.8-5.564,5.606-8.4,8.358A7.219,7.219,0,0,1,1986.414,1248.928Z" transform="translate(-1957.319 -1224.296)" fill="#fff"/>
      <path id="Trazado_84" data-name="Trazado 84" d="M1972.733,1269.3a7.552,7.552,0,0,1-2.16,5.239q-2.684,2.765-5.414,5.486a2.517,2.517,0,0,1-3.693.09,2.558,2.558,0,0,1,.12-3.7q2.542-2.593,5.1-5.174a2.589,2.589,0,0,0-.008-4.066c-1.733-1.751-3.477-3.491-5.2-5.248a2.541,2.541,0,0,1,1.426-4.3,2.323,2.323,0,0,1,2.105.665c1.941,1.932,3.9,3.851,5.78,5.84A7.337,7.337,0,0,1,1972.733,1269.3Z" transform="translate(-1950.417 -1237.891)" fill="#fff"/>
      <path id="Trazado_85" data-name="Trazado 85" d="M2059.609,1317.857a3.137,3.137,0,0,1-3.174,3.2,3.216,3.216,0,0,1-3.169-3.166,3.18,3.18,0,0,1,3.135-3.184A3.107,3.107,0,0,1,2059.609,1317.857Z" transform="translate(-2004.812 -1271.461)" fill="#fff"/>
    </g>
  </g>
</svg>
