<svg xmlns="http://www.w3.org/2000/svg" width="119" height="119" viewBox="0 0 119 119">
  <g id="Grupo_444" data-name="Grupo 444" transform="translate(-0.378 -0.378)">
    <circle id="Elipse_6" data-name="Elipse 6" cx="59.5" cy="59.5" r="59.5" transform="translate(0.378 0.378)" fill="#008d32"/>
    <g id="Grupo_28" data-name="Grupo 28" transform="translate(29.089 30.177)">
      <g id="Grupo_27" data-name="Grupo 27" transform="translate(0 0)">
        <path id="Trazado_93" data-name="Trazado 93" d="M63.755,80.149H62.037v-48.7a7.777,7.777,0,0,0-7.8-7.734H10.815a7.759,7.759,0,0,0-7.768,7.734v48.7H1.3a1.3,1.3,0,0,0,0,2.592H7.323a1.3,1.3,0,1,0,0-2.592H5.639v-47.4h8.6V58.717a3.955,3.955,0,0,0-.514,1.952v2.552h-.675a1.3,1.3,0,1,0,0,2.592h.675v3.025A3.436,3.436,0,0,0,14.907,75.5H26.17a3.436,3.436,0,0,0,1.183-6.662V65.813h.675a1.3,1.3,0,1,0,0-2.592h-.675V60.669a3.955,3.955,0,0,0-.514-1.952V32.746H38.211V58.717a3.955,3.955,0,0,0-.514,1.952v2.552h-.675a1.3,1.3,0,1,0,0,2.592H37.7v3.025A3.436,3.436,0,0,0,38.881,75.5H50.144a3.436,3.436,0,0,0,1.183-6.662V65.813H52a1.3,1.3,0,1,0,0-2.592h-.675V60.669a3.985,3.985,0,0,0-3.98-3.98H41.678a3.976,3.976,0,0,0-.875.1V32.746h7.419V49.212a1.3,1.3,0,0,0,2.592,0V32.746h8.633v47.4H57.728a1.3,1.3,0,1,0,0,2.592h6.027a1.3,1.3,0,1,0,0-2.592Zm-36.74-8.086a.845.845,0,0,1-.844.844H14.907a.844.844,0,1,1,0-1.688H26.17A.845.845,0,0,1,27.014,72.064ZM24.248,56.787a3.973,3.973,0,0,0-.875-.1H17.7a3.972,3.972,0,0,0-.875.1V32.746h7.419ZM17.7,59.281h5.669a1.39,1.39,0,0,1,1.389,1.388v7.959H16.316V60.669A1.39,1.39,0,0,1,17.7,59.281ZM50.143,71.219a.844.844,0,1,1,0,1.688H38.88a.844.844,0,0,1,0-1.688H50.143ZM41.677,59.281h5.669a1.39,1.39,0,0,1,1.388,1.388v7.959H40.289V60.669A1.39,1.39,0,0,1,41.677,59.281Zm9.136-29.126v-.622a1.3,1.3,0,0,0-2.592,0v.622H40.8v-.622a1.3,1.3,0,0,0-2.592,0v.622H26.84v-.622a1.3,1.3,0,0,0-2.592,0v.622H16.829v-.622a1.3,1.3,0,0,0-2.592,0v.622H5.806a5.18,5.18,0,0,1,5.01-3.846h43.42a5.208,5.208,0,0,1,5.043,3.846Z" transform="translate(0 -23.717)" fill="#fff"/>
      </g>
    </g>
  </g>
</svg>
