<svg xmlns="http://www.w3.org/2000/svg" xmlns:xlink="http://www.w3.org/1999/xlink" width="89.68" height="86" viewBox="0 0 89.68 86"><defs><filter id="a" x="0" y="15.496" width="89.68" height="64.592" filterUnits="userSpaceOnUse"><feOffset dy="3" input="SourceAlpha"/><feGaussianBlur stdDeviation="3" result="b"/><feFlood flood-opacity="0.502"/><feComposite operator="in" in2="b"/><feComposite in="SourceGraphic"/></filter></defs><g transform="translate(0.04 -0.008)" style="isolation:isolate"><rect width="86" height="86" transform="translate(0.008 0.008)" fill="none"/><g transform="matrix(1, 0, 0, 1, -0.04, 0.01)" filter="url(#a)"><path d="M35.84,0C16.056,0,0,8.028,0,17.92c0,8.028,10.537,14.8,25.088,17.1V46.592L39.424,32.256,25.088,17.92V27.7C13.8,25.7,7.168,20.895,7.168,17.92c0-3.8,10.9-10.752,28.672-10.752S64.512,14.121,64.512,17.92c0,2.616-5.233,6.774-14.336,9.068v7.347c12.652-2.76,21.5-9.068,21.5-16.415C71.681,8.028,55.624,0,35.84,0Z" transform="translate(9 21.5)" fill="#007bc0"/></g></g></svg>