<svg xmlns="http://www.w3.org/2000/svg" width="35.381" height="35.29" viewBox="0 0 35.381 35.29">
  <g id="Grupo_22" data-name="Grupo 22" transform="translate(0)">
    <path id="Trazado_77" data-name="Trazado 77" d="M2263.967,1027.1c-.054,2.68-.04,5.364-.177,8.04a10.154,10.154,0,0,1-7.4,9.151,13.516,13.516,0,0,1-3.414.406q-7.253.166-14.5-.036a10.235,10.235,0,0,1-9.644-8.456,14,14,0,0,1-.156-1.826c-.135-4.872-.1-9.743-.01-14.616a10.236,10.236,0,0,1,8.652-10.116,18.559,18.559,0,0,1,3-.159c4.578,0,9.156-.022,13.733.054a10.158,10.158,0,0,1,9.593,8.281,11.756,11.756,0,0,1,.193,1.9c.022,2.46.009,4.921.009,7.381Zm-17.74,14.409c2.558-.047,5.119-.037,7.674-.153a6.876,6.876,0,0,0,6.637-6.817c.067-3.586.067-7.173.067-10.76,0-1.578,0-3.162-.121-4.734a6.866,6.866,0,0,0-6.382-6.206c-1.356-.073-2.717-.086-4.075-.082-3.88.013-7.762-.023-11.639.1a6.813,6.813,0,0,0-6.4,6.611c-.057,4.431-.047,8.862-.048,13.293a21.481,21.481,0,0,0,.126,2.748,6.859,6.859,0,0,0,6.3,5.835C2240.986,1041.457,2243.607,1041.458,2246.226,1041.51Z" transform="translate(-2228.586 -1009.485)" fill="#008d32"/>
    <path id="Trazado_78" data-name="Trazado 78" d="M2260.126,1049.856a9.087,9.087,0,1,1,9.073,9.107A9.1,9.1,0,0,1,2260.126,1049.856Zm3.29.008a5.791,5.791,0,1,0,5.8-5.792A5.813,5.813,0,0,0,2263.416,1049.864Z" transform="translate(-2251.542 -1032.258)" fill="#008d32"/>
    <path id="Trazado_79" data-name="Trazado 79" d="M2319.6,1034.735a2.047,2.047,0,1,1,2.068,2.032A2.05,2.05,0,0,1,2319.6,1034.735Z" transform="translate(-2294.833 -1026.358)" fill="#008d32"/>
  </g>
</svg>
