<svg xmlns="http://www.w3.org/2000/svg" width="30.044" height="22.399" viewBox="0 0 30.044 22.399">
  <g id="Grupo_197" data-name="Grupo 197" transform="translate(-19.736 -283.391)">
    <path id="Trazado_1110" data-name="Trazado 1110" d="M57.432,343.279a8.589,8.589,0,0,1,1.151-4.252q2.048-3.543,4.138-7.061a3.227,3.227,0,0,0,.51-1.87c-.024-.469.009-.942-.01-1.412-.011-.275.06-.455.346-.514l3.4-.7c0,.565,0,1,0,1.43,0,.631.186.816.808.818.769,0,1.537.005,2.306,0,.567,0,.759-.2.764-.764,0-.437,0-.873,0-1.428.95.155,1.844.267,2.723.454,1.028.218,1.022.247,1.022,1.309a6.211,6.211,0,0,0,.011,1.034,4.261,4.261,0,0,0,.377,1.378c1.38,2.426,2.809,4.824,4.212,7.237a8.743,8.743,0,0,1,1.2,4.342Zm16.426-6.6a4.951,4.951,0,1,0-4.938,4.933A4.941,4.941,0,0,0,73.858,336.678Z" transform="translate(-34.147 -39.927)" fill="#fff"/>
    <path id="Trazado_1111" data-name="Trazado 1111" d="M34.321,283.391a35.543,35.543,0,0,1,10.832,1.432,6.116,6.116,0,0,1,3.8,2.658,12.942,12.942,0,0,1,.822,2.28.464.464,0,0,1-.237.387,11.359,11.359,0,0,1-7.449-.626.539.539,0,0,1-.4-.631.854.854,0,0,0-.408-.672,8.639,8.639,0,0,0-2.039-.788,22.122,22.122,0,0,0-9.476.122,6.134,6.134,0,0,0-1.6.738.767.767,0,0,0-.324.622c.062.369-.137.473-.375.6a8.77,8.77,0,0,1-3.291.894,11.775,11.775,0,0,1-4.066-.211c-.346-.086-.407-.235-.352-.56a5.711,5.711,0,0,1,3.983-4.586,25.9,25.9,0,0,1,7.023-1.456C32.087,283.482,33.421,283.441,34.321,283.391Z" fill="#fff"/>
    <path id="Trazado_1112" data-name="Trazado 1112" d="M80.4,502.536c0,.289.009.538,0,.787a.934.934,0,0,1-.938.971c-.125.009-.251,0-.376,0H59c-1.4,0-1.663-.3-1.519-1.761Z" transform="translate(-34.156 -198.509)" fill="#fff"/>
    <path id="Trazado_1113" data-name="Trazado 1113" d="M249.977,352.4a12.685,12.685,0,0,0,8.3.86,2.147,2.147,0,0,1-1.068,1.77,6.127,6.127,0,0,1-6.737-.905A1.872,1.872,0,0,1,249.977,352.4Z" transform="translate(-208.519 -62.51)" fill="#fff"/>
    <path id="Trazado_1114" data-name="Trazado 1114" d="M28.279,352.445a1.921,1.921,0,0,1-.57,1.815,4.451,4.451,0,0,1-2.163,1.176,6.409,6.409,0,0,1-3.889-.069,2.359,2.359,0,0,1-1.687-2.066A12.7,12.7,0,0,0,28.279,352.445Z" transform="translate(-0.213 -62.551)" fill="#fff"/>
    <path id="Trazado_1115" data-name="Trazado 1115" d="M157.07,400.23a2.579,2.579,0,1,1-5.157-.071,2.579,2.579,0,0,1,5.157.071Z" transform="translate(-119.731 -103.473)" fill="#fff"/>
  </g>
</svg>
