<svg xmlns="http://www.w3.org/2000/svg" width="30.044" height="30.19" viewBox="0 0 30.044 30.19">
  <g id="Grupo_196" data-name="Grupo 196" transform="translate(-348.098 -347.848)">
    <path id="Trazado_1108" data-name="Trazado 1108" d="M348.1,378.038c.358-1.314.7-2.567,1.041-3.82.33-1.206.668-2.41.982-3.619a.813.813,0,0,0-.055-.541,14.971,14.971,0,1,1,16.852,7.256,14.8,14.8,0,0,1-10.6-1.18.961.961,0,0,0-.617-.066c-2.409.618-4.814,1.255-7.219,1.887C348.38,377.98,348.278,378,348.1,378.038Zm3.59-3.557c.124-.025.186-.034.246-.05,1.361-.353,2.724-.7,4.08-1.068a.857.857,0,0,1,.73.1A12.3,12.3,0,0,0,366,374.939a12.457,12.457,0,0,0,9.349-14.673A12.316,12.316,0,0,0,364,350.437a11.9,11.9,0,0,0-10.112,4.154,12.3,12.3,0,0,0-1.222,14.87,1.079,1.079,0,0,1,.136.973C352.415,371.756,352.068,373.091,351.688,374.481Z" transform="translate(0 0)" fill="#fff"/>
    <path id="Trazado_1109" data-name="Trazado 1109" d="M443.263,454.294a4.158,4.158,0,0,1,1.426-3.121,2.392,2.392,0,0,1,.979-.4,3.4,3.4,0,0,1,.7-.008.64.64,0,0,1,.659.4c.46,1.063.912,2.13,1.342,3.206a.654.654,0,0,1-.062.518,10.427,10.427,0,0,1-.9,1.218.645.645,0,0,0-.106.871,10.256,10.256,0,0,0,5.093,4.38.631.631,0,0,0,.826-.208c.353-.452.731-.885,1.073-1.345a.6.6,0,0,1,.812-.239c1.037.487,2.07.983,3.1,1.479.327.157.3.456.284.745-.1,1.652-1,2.526-2.807,2.987a4.734,4.734,0,0,1-2.506-.18,15.069,15.069,0,0,1-7.957-5.831,9.2,9.2,0,0,1-1.758-3.284C443.367,455.094,443.328,454.691,443.263,454.294Z" transform="translate(-87.716 -94.847)" fill="#fff"/>
  </g>
</svg>
