<svg xmlns="http://www.w3.org/2000/svg" width="21.724" height="21.439" viewBox="0 0 21.724 21.439">
  <path id="isotipo_negro" data-name="isotipo negro" d="M21.331,69.286l-1.979-2.145,1.127-2.691a1.483,1.483,0,0,0-1.18-2.045l-2.895-.37-.868-2.786a1.484,1.484,0,0,0-2.219-.808l-2.455,1.577L8.408,58.441a1.484,1.484,0,0,0-2.219.808l-.868,2.786-2.895.37a1.483,1.483,0,0,0-1.18,2.045l1.127,2.691L.394,69.286A1.484,1.484,0,0,0,.8,71.611L3.4,72.949l-.138,2.914a1.484,1.484,0,0,0,1.809,1.517l2.846-.642L9.682,79.06a1.484,1.484,0,0,0,2.362,0l1.767-2.322,2.847.642a1.483,1.483,0,0,0,1.809-1.518l-.139-2.914,2.594-1.338a1.484,1.484,0,0,0,.41-2.325" transform="translate(0 -58.206)"/>
</svg>
