<?xml version="1.0" standalone="no"?>
<!DOCTYPE svg PUBLIC "-//W3C//DTD SVG 1.1//EN" "http://www.w3.org/Graphics/SVG/1.1/DTD/svg11.dtd" >
<svg xmlns="http://www.w3.org/2000/svg" xmlns:xlink="http://www.w3.org/1999/xlink" version="1.1">
<metadata>
Created by FontForge 20170731 at Mon Jul 25 20:09:26 2022
 By Aleksey,,,
Copyright (c) 2017 by Daniel Hernandez. All rights reserved.
</metadata>
<defs>
<font id="LotaGrotesque-Light" horiz-adv-x="1120" >
  <font-face 
    font-family="Lota Grotesque Light"
    font-weight="300"
    font-stretch="normal"
    units-per-em="2048"
    panose-1="0 0 4 0 0 0 0 0 0 0"
    ascent="1638"
    descent="-410"
    x-height="995"
    cap-height="1397"
    bbox="-1061 -475.125 2712 1796"
    underline-thickness="102"
    underline-position="-307"
    unicode-range="U+0020-FB02"
  />
<missing-glyph horiz-adv-x="831" 
 />
    <glyph glyph-name="fi" unicode="fi" horiz-adv-x="1155" 
d="M991 995v-995h-125v891h-528v-891h-123v891h-141v104h141v142q0 148 95 235.5t245 87.5q101 0 137 -16l-6 -109q-49 17 -125 17q-107 0 -165 -58t-58 -157v-142h653zM934 1419q40 0 68 -27.5t28 -68.5t-28 -68.5t-68 -27.5t-68 27.5t-28 68.5t28 68.5t68 27.5z" />
    <glyph glyph-name="fl" unicode="fl" horiz-adv-x="1169" 
d="M215 1141q0 148 95 235.5t245 87.5q101 0 137 -16l-6 -109q-49 17 -125 17q-107 0 -165 -58t-58 -157v-146h344v-104h-344v-891h-123v891h-141v104h141v146zM883 1444h123v-1444h-123v1444z" />
    <glyph glyph-name=".notdef" horiz-adv-x="831" 
 />
    <glyph glyph-name=".null" horiz-adv-x="0" 
 />
    <glyph glyph-name="nonmarkingreturn" horiz-adv-x="682" 
 />
    <glyph glyph-name="space" unicode=" " horiz-adv-x="493" 
 />
    <glyph glyph-name="exclam" unicode="!" horiz-adv-x="499" 
d="M317 1444l-12 -1073h-108l-13 1073h133zM246 168q44 0 71 -26.5t27 -69.5t-27 -69t-71 -26q-43 0 -71 26.5t-28 68.5t28 69t71 27z" />
    <glyph glyph-name="quotedbl" unicode="&#x22;" horiz-adv-x="587" 
d="M127 1141l-6 379h108l-6 -379h-96zM367 1141l-9 379h109l-8 -379h-92z" />
    <glyph glyph-name="numbersign" unicode="#" horiz-adv-x="1243" 
d="M1174 864h-285l-43 -295h260v-106h-277l-69 -463h-109l70 463h-268l-68 -463h-109l68 463h-272v106h288l43 295h-266v107h283l63 426h109l-64 -426h269l63 426h109l-64 -426h269v-107zM737 569l43 295h-268l-43 -295h268z" />
    <glyph glyph-name="dollar" unicode="$" horiz-adv-x="1169" 
d="M1085 356q0 -153 -117 -249.5t-309 -114.5v-207h-129v207q-210 12 -333 117.5t-123 287.5h125q-2 -138 104.5 -217.5t292.5 -79.5q167 0 266 68.5t99 187.5q0 71 -29 121.5t-77.5 80t-112 50t-133.5 36t-140 32t-133.5 43.5t-112 65.5t-77.5 104t-29 153.5
q-1 155 111.5 252.5t299.5 112.5v205h129v-205q189 -15 297.5 -116.5t108.5 -272.5h-123q0 140 -94.5 210t-255.5 70q-166 0 -257 -65.5t-91 -188.5q0 -67 29 -115.5t77.5 -76t112 -46.5t133.5 -34t139.5 -32t133 -45.5t112 -69t77.5 -109t29 -160.5z" />
    <glyph glyph-name="percent" unicode="%" horiz-adv-x="1662" 
d="M473 0l598 1409h121l-598 -1409h-121zM377 623q-143 0 -223 101.5t-80 289.5q0 189 80.5 291t222.5 102q144 0 224.5 -102t80.5 -291t-80.5 -290t-224.5 -101zM377 731q86 0 132 72t46 211q0 140 -46 211t-132 71t-132 -71t-46 -211q0 -139 46.5 -211t131.5 -72z
M1284 -10q-143 0 -224 101.5t-81 289.5q0 190 81 291.5t224 101.5q144 0 224.5 -101.5t80.5 -291.5q0 -189 -80.5 -290t-224.5 -101zM1284 100q86 0 132 71t46 210q0 141 -46 213t-132 72t-132 -72t-46 -213q0 -139 46 -210t132 -71z" />
    <glyph glyph-name="ampersand" unicode="&#x26;" horiz-adv-x="1220" 
d="M1186 0h-148l-110 123q-152 -133 -375 -133q-204 0 -328.5 107.5t-124.5 285.5q0 118 59.5 203t200.5 170q-79 89 -112 165t-33 166q0 142 100 233t258 91q150 0 242 -80.5t92 -216.5q0 -96 -64.5 -176.5t-201.5 -153.5l-100 -51l385 -436q65 112 65 274h123
q0 -210 -110 -364zM342 1087q-1 -67 26.5 -128t98.5 -144l115 59q200 106 200 240q0 87 -56.5 136.5t-152.5 49.5q-104 0 -168 -58.5t-63 -154.5zM561 102q179 0 293 105l-420 467q-113 -68 -161 -135t-48 -156q-1 -129 90.5 -205t245.5 -76z" />
    <glyph glyph-name="quotesingle" unicode="'" horiz-adv-x="350" 
d="M127 1141l-6 379h106l-6 -379h-94z" />
    <glyph glyph-name="parenleft" unicode="(" horiz-adv-x="550" 
d="M111 623q0 158 26 307t68 262t85 194t87 138h123q-26 -34 -54 -80t-67 -132.5t-68.5 -182t-51 -230.5t-21.5 -276t21 -276.5t51 -231.5t69 -182t67 -132.5t54 -79.5h-123q-44 57 -87 138.5t-85 194.5t-68 262t-26 307z" />
    <glyph glyph-name="parenright" unicode=")" horiz-adv-x="550" 
d="M440 623q0 -158 -26 -307t-68 -262t-85 -194.5t-87 -138.5h-123q25 34 53 80t66.5 132.5t68.5 182t51 231t21 276.5t-21 276t-50.5 230.5t-68 182t-66.5 132.5t-54 80h123q44 -57 87 -138t85 -194t68 -262t26 -307z" />
    <glyph glyph-name="asterisk" unicode="*" horiz-adv-x="755" 
d="M655 1251l-202 -57l139 -176l-88 -64l-127 189l-125 -189l-88 64l139 176l-203 57l33 103l199 -74l-8 223h108l-8 -223l199 74z" />
    <glyph glyph-name="plus" unicode="+" horiz-adv-x="954" 
d="M877 762v-105h-340v-360h-119v360h-340v105h340v360h119v-360h340z" />
    <glyph glyph-name="comma" unicode="," horiz-adv-x="436" 
d="M113 -174q46 0 84.5 42t38.5 99q-1 0 -9.5 -1t-15.5 -1q-44 0 -71 29t-27 72q0 46 29 74t73 28q47 0 79 -36t32 -114q0 -116 -67.5 -194.5t-145.5 -75.5v78z" />
    <glyph glyph-name="hyphen" unicode="-" horiz-adv-x="894" 
d="M139 535v96h617v-96h-617z" />
    <glyph glyph-name="period" unicode="." horiz-adv-x="428" 
d="M213 182q44 0 71 -26.5t27 -69.5t-27 -69.5t-71 -26.5q-43 0 -70.5 26.5t-27.5 69.5t27.5 69.5t70.5 26.5z" />
    <glyph glyph-name="slash" unicode="/" horiz-adv-x="827" 
d="M55 -41l594 1487h125l-590 -1487h-129z" />
    <glyph glyph-name="zero" unicode="0" horiz-adv-x="1257" 
d="M631 -10q-243 0 -378.5 182t-135.5 526t135.5 528.5t376.5 184.5q242 0 377 -184t135 -529q0 -344 -134.5 -526t-375.5 -182zM629 102q185 0 286 152t101 444t-101 447t-286 155q-183 0 -284 -155t-101 -447q0 -291 100.5 -443.5t284.5 -152.5z" />
    <glyph glyph-name="one" unicode="1" horiz-adv-x="755" 
d="M487 111h228v-111h-619v111h266v1101q-47 -40 -109 -57.5t-157 -17.5v106q104 0 177 35.5t124 118.5h90v-1286z" />
    <glyph glyph-name="two" unicode="2" horiz-adv-x="1103" 
d="M301 111h713v-111h-899v92l512 512q61 61 97 102t72 93.5t52 106t16 112.5q-1 142 -86 212t-223 70q-144 0 -235 -83.5t-91 -239.5h-125q0 202 129 319t322 117q121 0 218 -43.5t156.5 -134.5t59.5 -217q1 -123 -62.5 -234t-185.5 -233z" />
    <glyph glyph-name="three" unicode="3" horiz-adv-x="1144" 
d="M795 727q108 -43 170 -130.5t63 -215.5q0 -186 -132.5 -288.5t-338.5 -102.5q-205 0 -332 106.5t-127 302.5h123q0 -77 26.5 -135t74 -93t108 -52t133.5 -17q99 0 173.5 29t120 92t46.5 154q-1 76 -27.5 132t-74.5 89.5t-110 49.5t-140 16h-119v112h98q92 0 167 25.5
t125 85.5t50 147q0 134 -85.5 200t-219.5 66q-139 0 -227 -73.5t-88 -218.5l-123 -2q-1 188 124.5 296.5t321.5 108.5q121 0 215.5 -42t151.5 -129t57 -206q-3 -212 -204 -307z" />
    <glyph glyph-name="four" unicode="4" horiz-adv-x="1144" 
d="M1073 481v-110h-192v-371h-125v371h-707v106l658 920h174v-916h192zM188 483v-2h568v785h-2z" />
    <glyph glyph-name="five" unicode="5" 
d="M578 891q131 0 231.5 -53t158 -156.5t58.5 -243.5q-1 -203 -132 -325.5t-337 -122.5q-202 0 -331.5 115.5t-129.5 306.5h123q0 -145 94.5 -227.5t243.5 -82.5q156 0 249 89.5t93 246.5q0 163 -93 252.5t-241 89.5q-161 0 -299 -106l-116 53l51 670h757v-111h-647
l-35 -481q138 86 302 86z" />
    <glyph glyph-name="six" unicode="6" horiz-adv-x="1181" 
d="M627 877q197 0 322.5 -123.5t125.5 -319.5q0 -194 -128 -319t-331 -125q-235 0 -366 177t-131 525q0 351 134 534t372 183q185 0 303.5 -99.5t118.5 -260.5h-125q0 119 -83.5 184t-211.5 65q-184 0 -286.5 -153.5t-102.5 -450.5v-51q53 106 158 170t231 64zM616 102
q148 0 241 92t93 242q0 147 -88 237.5t-235 90.5q-80 0 -153 -29t-126 -84t-71 -133.5t12 -177.5h-2q86 -238 329 -238z" />
    <glyph glyph-name="seven" unicode="7" horiz-adv-x="970" 
d="M246 0l545 1284v2h-752v111h887v-99l-545 -1298h-135z" />
    <glyph glyph-name="eight" unicode="8" horiz-adv-x="1187" 
d="M827 737q115 -45 181.5 -132.5t66.5 -213.5q0 -127 -64.5 -219.5t-172 -137t-244.5 -44.5q-212 0 -347.5 105.5t-135.5 295.5q0 125 66.5 213.5t182.5 132.5q-92 46 -145 124.5t-53 180.5q0 167 122.5 268t309.5 101q186 0 308 -101t122 -268q0 -101 -53 -180t-144 -125z
M289 1042q-2 -112 81 -185t224 -73q140 0 223.5 73.5t81.5 184.5q2 110 -82 184t-223 74q-141 0 -224 -73.5t-81 -184.5zM594 102q162 0 259.5 78t96.5 211q1 135 -95.5 211t-260.5 76t-261.5 -76t-96.5 -211q-1 -132 97 -210.5t261 -78.5z" />
    <glyph glyph-name="nine" unicode="9" horiz-adv-x="1181" 
d="M563 1409q237 0 368.5 -173t131.5 -529q0 -350 -134 -533.5t-372 -183.5q-186 0 -304 100t-118 260h123q1 -118 85 -183t210 -65q183 0 286 153.5t103 449.5v51q-53 -104 -158 -168t-229 -64q-198 0 -323.5 123t-125.5 318t127 319.5t330 124.5zM555 635q80 0 153 29.5
t125.5 85t70.5 134.5t-13 179h2q-86 235 -330 235q-147 0 -239.5 -92t-92.5 -241q0 -148 88.5 -239t235.5 -91z" />
    <glyph glyph-name="colon" unicode=":" horiz-adv-x="483" 
d="M240 889q44 0 71 -26.5t27 -69.5t-27 -70t-71 -27q-43 0 -71 27t-28 70q0 42 28 69t71 27zM240 182q44 0 71 -26.5t27 -69.5t-27 -69.5t-71 -26.5q-43 0 -71 27t-28 69t28 69t71 27z" />
    <glyph glyph-name="semicolon" unicode=";" horiz-adv-x="518" 
d="M260 889q44 0 71 -26.5t27 -69.5t-27 -70t-71 -27q-43 0 -70.5 27t-27.5 70t27.5 69.5t70.5 26.5zM152 -174q46 0 84 42t38 99q-1 0 -9 -1t-15 -1q-44 0 -71 29t-27 72q0 46 29 74t73 28q47 0 79 -36t32 -114q0 -116 -67.5 -194.5t-145.5 -75.5v78z" />
    <glyph glyph-name="less" unicode="&#x3c;" horiz-adv-x="1021" 
d="M868 1163v-123l-688 -323l688 -326v-123l-798 385v125z" />
    <glyph glyph-name="equal" unicode="=" horiz-adv-x="1095" 
d="M150 862v105h796v-105h-796zM150 453v104h796v-104h-796z" />
    <glyph glyph-name="greater" unicode="&#x3e;" horiz-adv-x="1021" 
d="M154 1163l798 -385v-125l-798 -385v123l688 326l-688 323v123z" />
    <glyph glyph-name="question" unicode="?" horiz-adv-x="907" 
d="M711 1120q-1 112 -72.5 167.5t-183.5 55.5q-126 0 -198 -71t-73 -213h-123q0 189 109 293t293 104q170 0 271.5 -90t101.5 -246q0 -54 -20 -106t-51.5 -94t-69.5 -83.5t-76.5 -82.5t-70 -83t-51.5 -92.5t-20 -103.5v-104h-115v108q0 61 19 117.5t50 101t68 87t74.5 82.5
t68.5 78.5t50 83.5t19 91zM420 170q43 0 70.5 -27.5t27.5 -70.5q-2 -42 -29 -68.5t-71 -26.5t-71.5 26.5t-27.5 70.5q0 42 29 69t72 27z" />
    <glyph glyph-name="at" unicode="@" horiz-adv-x="1845" 
d="M1155 911h123v-616q0 -62 28 -94.5t80 -32.5q104 0 169 110.5t65 290.5q-1 204 -85.5 356.5t-237.5 234t-355 81.5q-325 0 -526 -204t-201 -539q0 -330 198 -532t519 -202q157 0 304.5 50t254.5 141l59 -90q-118 -98 -285.5 -153.5t-342.5 -53.5q-237 2 -424 108
t-291 293.5t-105 423.5q-1 184 60.5 344t169.5 274.5t263 180.5t335 66q179 0 328.5 -57.5t253.5 -160t162 -247.5t59 -316q1 -217 -95 -359t-247 -147q-92 -4 -156 48.5t-78 140.5q-38 -82 -114 -127t-177 -45q-169 0 -273 116.5t-104 305.5q0 188 105.5 305t275.5 117
q96 0 170.5 -42t114.5 -118v149zM885 184q115 0 192.5 81.5t77.5 203.5v61q0 120 -78.5 202.5t-193.5 82.5q-120 0 -194.5 -87.5t-74.5 -227.5q0 -141 75 -228.5t196 -87.5z" />
    <glyph glyph-name="A" unicode="A" horiz-adv-x="1267" 
d="M1104 0l-143 383h-654l-141 -383h-127l522 1397h146l522 -1397h-125zM348 496h572l-287 768z" />
    <glyph glyph-name="B" unicode="B" horiz-adv-x="1273" 
d="M903 733q37 -9 71 -25t68 -45t58.5 -67.5t39.5 -93.5t15 -121q0 -174 -111.5 -277.5t-295.5 -103.5h-549v1397h544q166 0 264.5 -94.5t98.5 -249.5q0 -74 -22.5 -134.5t-57 -96.5t-65 -56t-58.5 -29v-4zM979 1036q0 120 -69.5 185t-188.5 65h-397v-508h391
q126 0 195 69.5t69 188.5zM750 109q127 0 202.5 74t75.5 208q0 140 -78 211.5t-221 71.5h-405v-565h426z" />
    <glyph glyph-name="C" unicode="C" horiz-adv-x="1406" 
d="M733 100q202 0 318 106.5t137 278.5h125q-24 -223 -174 -359t-406 -136q-134 0 -248.5 49.5t-196.5 140t-128.5 224t-46.5 294.5q0 158 47 292t129.5 225.5t196.5 142.5t247 51q253 0 405 -139t175 -363h-125q-21 174 -138 282.5t-317 108.5q-214 0 -354.5 -165
t-140.5 -435q0 -273 140 -435.5t355 -162.5z" />
    <glyph glyph-name="D" unicode="D" horiz-adv-x="1449" 
d="M696 1397q140 0 258 -48t203.5 -136.5t133.5 -221t48 -293.5q0 -323 -178.5 -510.5t-464.5 -187.5h-497v1397h497zM696 111q229 0 372.5 157.5t143.5 429.5t-143.5 430t-372.5 158h-372v-1175h372z" />
    <glyph glyph-name="E" unicode="E" horiz-adv-x="1222" 
d="M324 113h792v-113h-917v1397h911v-113h-786v-500h723v-112h-723v-559z" />
    <glyph glyph-name="F" unicode="F" horiz-adv-x="1140" 
d="M1083 1290h-759v-553h671v-110h-671v-627h-125v1397h884v-107z" />
    <glyph glyph-name="G" unicode="G" horiz-adv-x="1466" 
d="M745 709h588v-709h-96v287q-63 -136 -190.5 -216.5t-309.5 -80.5q-282 0 -453 190t-171 522q0 318 178.5 512.5t468.5 194.5q252 0 398 -130t169 -339h-127q-22 158 -131.5 258t-308.5 100q-235 0 -378.5 -164t-143.5 -432q0 -282 138 -442t361 -160q112 0 206.5 38.5
t156 102.5t95.5 144.5t34 165.5v51h-484v107z" />
    <glyph glyph-name="H" unicode="H" horiz-adv-x="1464" 
d="M1141 1397h125v-1397h-125v672h-817v-672h-125v1397h125v-615h817v615z" />
    <glyph glyph-name="I" unicode="I" horiz-adv-x="522" 
d="M199 0v1397h125v-1397h-125z" />
    <glyph glyph-name="J" unicode="J" horiz-adv-x="1032" 
d="M176 410q1 -151 74.5 -229.5t200.5 -78.5q130 0 201 85t71 233v977h123v-969q0 -198 -102 -317t-293 -119q-192 0 -295 111t-103 307h123z" />
    <glyph glyph-name="K" unicode="K" horiz-adv-x="1288" 
d="M1137 0l-531 694l-282 -309v-385h-125v1397h125v-854l763 854h156l-553 -611l596 -786h-149z" />
    <glyph glyph-name="L" unicode="L" horiz-adv-x="1118" 
d="M324 113h768v-113h-893v1397h125v-1284z" />
    <glyph glyph-name="M" unicode="M" horiz-adv-x="1687" 
d="M1290 1397h199l-2 -1397h-121v1282l-465 -1282h-115l-464 1282v-1282h-121l-2 1397h198l447 -1252z" />
    <glyph glyph-name="N" unicode="N" horiz-adv-x="1462" 
d="M1139 1397h125v-1397h-127l-813 1202v-1202h-125v1397h127l813 -1202v1202z" />
    <glyph glyph-name="O" unicode="O" horiz-adv-x="1538" 
d="M770 -10q-140 0 -260.5 48t-209 137t-139 222.5t-50.5 296.5t50.5 298.5t139 226t209 140.5t260.5 50t260.5 -48.5t209 -137.5t139 -223t51.5 -298q-1 -162 -51.5 -297t-139 -225.5t-209 -140t-260.5 -49.5zM770 100q230 0 381.5 162.5t151.5 435.5q0 138 -41 251.5
t-113 189.5t-169.5 117.5t-209.5 41.5t-209.5 -41.5t-169.5 -117.5t-113.5 -189.5t-41.5 -251.5q0 -137 41.5 -250.5t113.5 -189t169.5 -117t209.5 -41.5z" />
    <glyph glyph-name="P" unicode="P" horiz-adv-x="1228" 
d="M723 1397q92 0 170 -24t138 -71.5t94 -123.5t34 -174t-34 -175t-94 -125.5t-138.5 -74t-169.5 -25.5h-399v-604h-125v1397h524zM723 713q138 0 224.5 76t86.5 210q0 135 -86 211t-225 76h-399v-573h399z" />
    <glyph glyph-name="Q" unicode="Q" horiz-adv-x="1538" 
d="M1430 702q-1 -152 -45.5 -280.5t-123 -218t-186 -143.5t-233.5 -66q126 -152 334 -152l8 -123q-150 0 -271.5 70t-205.5 203q-128 11 -236.5 63.5t-189 140.5t-125.5 216t-45 282q0 163 50.5 298.5t139 226t209 140.5t260.5 50t260.5 -48.5t209 -137.5t139 -223
t51.5 -298zM770 100q230 0 381.5 162.5t151.5 435.5q0 138 -41 251.5t-113 189.5t-169.5 117.5t-209.5 41.5t-209.5 -41.5t-169.5 -117.5t-113.5 -189.5t-41.5 -251.5q0 -137 41.5 -250.5t113.5 -189t169.5 -117t209.5 -41.5z" />
    <glyph glyph-name="R" unicode="R" horiz-adv-x="1302" 
d="M1253 115l13 -111q-54 -14 -97 -14q-98 0 -156 45.5t-112 150.5l-203 402h-374v-588h-125v1397h508q92 0 170 -25t138.5 -74t95 -128t34.5 -181q0 -159 -82.5 -257t-220.5 -130l196 -395q53 -103 144 -103q44 0 71 11zM324 1286v-594h383q139 0 225 78t86 219
q0 142 -85.5 219.5t-225.5 77.5h-383z" />
    <glyph glyph-name="S" unicode="S" horiz-adv-x="1212" 
d="M262 1044q0 -67 29 -115.5t77.5 -76t112 -46.5t133.5 -34t140 -32t133.5 -45.5t112 -69t77.5 -109t29 -160.5q0 -167 -139.5 -266.5t-358.5 -99.5q-234 0 -374 106.5t-140 300.5h125q-2 -138 104.5 -217.5t292.5 -79.5q167 0 266 68.5t99 187.5q0 71 -29 121.5t-77.5 80
t-112 50t-133.5 36t-140 32t-133.5 43.5t-112 65.5t-77.5 104t-29 153.5q-1 169 131.5 268t345.5 99q216 0 342.5 -103t126.5 -288h-122q0 140 -95 210t-256 70q-166 0 -257 -65.5t-91 -188.5z" />
    <glyph glyph-name="T" unicode="T" 
d="M498 0v1284h-471v113h1067v-113h-471v-1284h-125z" />
    <glyph glyph-name="U" unicode="U" horiz-adv-x="1427" 
d="M1118 1397h125v-852q0 -264 -139 -409.5t-391 -145.5q-257 0 -394 145t-137 410v852h125v-852q0 -219 103.5 -332t302.5 -113q200 0 302.5 112.5t102.5 332.5v852z" />
    <glyph glyph-name="V" unicode="V" horiz-adv-x="1245" 
d="M1081 1397h125l-518 -1397h-133l-516 1397h125l459 -1243z" />
    <glyph glyph-name="W" unicode="W" horiz-adv-x="1898" 
d="M1724 1397h125l-411 -1397h-138l-352 1245l-352 -1245h-135l-414 1397h125l354 -1258l355 1258h135l354 -1258z" />
    <glyph glyph-name="X" unicode="X" horiz-adv-x="1198" 
d="M1171 0h-143l-430 635l-430 -635h-139l485 713l-465 684h144l405 -609l401 609h142l-457 -680z" />
    <glyph glyph-name="Y" unicode="Y" horiz-adv-x="1222" 
d="M1182 1397l-508 -797v-600h-125v600l-508 797h139l432 -682l430 682h140z" />
    <glyph glyph-name="Z" unicode="Z" horiz-adv-x="1165" 
d="M221 113h866v-113h-1015v102l862 1182h-842v113h989v-103z" />
    <glyph glyph-name="bracketleft" unicode="[" horiz-adv-x="591" 
d="M188 -276v1798h342v-109h-223v-1581h223v-108h-342z" />
    <glyph glyph-name="backslash" unicode="\" horiz-adv-x="827" 
d="M772 -41h-129l-590 1487h125z" />
    <glyph glyph-name="bracketright" unicode="]" horiz-adv-x="591" 
d="M403 -276h-342v108h224v1581h-224v109h342v-1798z" />
    <glyph glyph-name="asciicircum" unicode="^" horiz-adv-x="733" 
d="M100 1055l195 415h143l195 -415h-109l-157 317l-158 -317h-109z" />
    <glyph glyph-name="underscore" unicode="_" horiz-adv-x="815" 
d="M0 -193v97h815v-97h-815z" />
    <glyph glyph-name="grave" unicode="`" horiz-adv-x="514" 
d="M260 1157l-166 313h160l108 -313h-102z" />
    <glyph glyph-name="a" unicode="a" horiz-adv-x="1093" 
d="M1044 115l13 -109q-50 -16 -96 -16q-77 0 -121.5 47.5t-44.5 130.5v8q-18 -32 -47 -61.5t-74 -59t-112 -47.5t-146 -18q-156 0 -239 72t-83 192q0 80 35.5 139.5t102.5 95.5t156 53t202 17h205v78q0 121 -75 191.5t-206 70.5q-121 0 -194 -59t-82 -162h-121
q12 152 121.5 240t283.5 88q185 0 290.5 -99.5t105.5 -271.5v-445q0 -42 19 -64t52 -22q27 0 55 11zM440 92q87 0 159 29.5t112.5 71.5t62 81.5t21.5 67.5v125h-211q-363 0 -363 -209q0 -78 55 -122t164 -44z" />
    <glyph glyph-name="b" unicode="b" horiz-adv-x="1204" 
d="M653 1006q202 0 325.5 -136.5t123.5 -361.5q0 -230 -128 -374t-333 -144q-126 0 -216 54.5t-138 148.5l-4 -193h-119v1444h123v-647q51 96 146 152.5t220 56.5zM635 98q152 0 246 112.5t94 295.5q0 178 -90.5 285.5t-241.5 107.5q-105 0 -188 -52.5t-125.5 -134.5
t-42.5 -175v-74q0 -97 40.5 -179t121 -134t186.5 -52z" />
    <glyph glyph-name="c" unicode="c" horiz-adv-x="1081" 
d="M563 -14q-217 0 -340 138.5t-123 369.5q0 228 129.5 370t339.5 142q181 0 294 -100t132 -265h-133q-16 112 -93 185t-200 73q-155 0 -248.5 -110t-93.5 -293q0 -185 91 -293.5t249 -108.5q124 0 201.5 71t93.5 181h133q-22 -163 -136 -261.5t-296 -98.5z" />
    <glyph glyph-name="d" unicode="d" horiz-adv-x="1202" 
d="M915 1444h123v-1444h-120l-3 203q-49 -97 -144 -155t-222 -58q-200 0 -324.5 136t-124.5 361q0 229 128 374t333 145q127 0 217 -53.5t137 -147.5v639zM561 98q156 0 255 109t99 254v74q0 148 -96 256t-252 108q-152 0 -246 -114t-94 -296q0 -179 92 -285t242 -106z" />
    <glyph glyph-name="e" unicode="e" horiz-adv-x="1110" 
d="M1012 502v-35h-785q8 -171 100.5 -270t245.5 -99q134 0 213.5 63t94.5 154h125q-24 -142 -138.5 -233.5t-298.5 -91.5q-219 0 -344 138t-125 366q0 227 130.5 369.5t336.5 142.5q205 0 325 -136t120 -368zM569 899q-139 0 -230 -90.5t-108 -247.5h656
q-12 163 -95.5 250.5t-222.5 87.5z" />
    <glyph glyph-name="f" unicode="f" horiz-adv-x="714" 
d="M561 1356q-107 0 -165 -58t-58 -157v-146h344v-104h-344v-891h-123v891h-141v104h141v146q0 148 95 235.5t245 87.5q101 0 137 -16l-6 -109q-49 17 -125 17z" />
    <glyph glyph-name="g" unicode="g" horiz-adv-x="1191" 
d="M911 995h117v-1007q0 -193 -122 -305.5t-339 -112.5q-195 0 -304 78t-126 229h123q15 -102 90.5 -150.5t214.5 -48.5q162 0 251 83t89 227v205q-47 -94 -136.5 -148.5t-211.5 -54.5q-204 0 -330.5 140t-126.5 370q0 229 126.5 367.5t330.5 138.5q124 0 213.5 -54.5
t136.5 -150.5zM563 98q101 0 180.5 52t120.5 134.5t41 178.5v72q0 146 -95.5 255t-246.5 109q-152 0 -244 -108.5t-92 -290.5q0 -184 92 -293t244 -109z" />
    <glyph glyph-name="h" unicode="h" horiz-adv-x="1142" 
d="M627 1006q169 0 266.5 -100.5t97.5 -270.5v-635h-125v608q0 135 -71 213t-197 78q-142 0 -225.5 -86.5t-83.5 -210.5v-602h-125v1444h123v-619q48 82 135 131.5t205 49.5z" />
    <glyph glyph-name="i" unicode="i" horiz-adv-x="450" 
d="M326 1323q0 -41 -28.5 -68.5t-68.5 -27.5t-68 27.5t-28 68.5t28 68.5t68 27.5t68.5 -27.5t28.5 -68.5zM164 0v995h125v-995h-125z" />
    <glyph glyph-name="j" unicode="j" horiz-adv-x="466" 
d="M342 1323q0 -41 -28 -68.5t-68 -27.5t-68 27.5t-28 68.5t28 68.5t68 27.5t68 -27.5t28 -68.5zM-6 -420q-85 0 -137 23l10 110q48 -20 104 -20q100 0 154.5 57.5t54.5 165.5v1079h123v-1081q0 -158 -82.5 -246t-226.5 -88z" />
    <glyph glyph-name="k" unicode="k" horiz-adv-x="972" 
d="M819 0l-368 487l-164 -174v-313h-123v1444h123v-965l479 516h158l-394 -422l433 -573h-144z" />
    <glyph glyph-name="l" unicode="l" horiz-adv-x="477" 
d="M408 115l12 -109q-50 -16 -98 -16q-77 0 -120.5 47.5t-43.5 132.5v1274h123v-1254q0 -42 20 -64t53 -22q26 0 54 11z" />
    <glyph glyph-name="m" unicode="m" horiz-adv-x="1796" 
d="M1292 1006q159 0 256 -101t97 -272v-633h-125v608q0 136 -71 213.5t-187 77.5q-136 0 -216.5 -86.5t-80.5 -210.5v-602h-125v614q0 130 -71 207.5t-187 77.5q-135 0 -215 -86.5t-80 -210.5v-602h-123v995h117l4 -170q48 83 131.5 132t195.5 49q121 0 207.5 -60.5
t122.5 -167.5q40 102 131 165t219 63z" />
    <glyph glyph-name="n" unicode="n" horiz-adv-x="1142" 
d="M627 1006q170 0 267 -101.5t97 -283.5v-621h-125v596q0 142 -71 222.5t-199 80.5q-142 0 -225.5 -87t-83.5 -210v-602h-123v995h117l4 -172q48 83 136 133t206 50z" />
    <glyph glyph-name="o" unicode="o" horiz-adv-x="1157" 
d="M578 1006q216 0 347.5 -139t131.5 -367t-131.5 -369t-347.5 -141q-214 0 -346 137.5t-132 364.5q0 228 132.5 371t345.5 143zM578 899q-157 0 -254 -111.5t-97 -291.5q0 -178 97 -288t254 -110q159 0 255.5 109.5t96.5 288.5q0 181 -96.5 292t-255.5 111z" />
    <glyph glyph-name="p" unicode="p" horiz-adv-x="1204" 
d="M653 1006q202 0 325.5 -136.5t123.5 -361.5q0 -230 -128 -374t-333 -144q-127 0 -217 53t-137 147v-600h-123v1405h119l4 -200q51 97 146 154t220 57zM635 98q152 0 246 112.5t94 295.5q0 178 -90.5 285.5t-241.5 107.5q-105 0 -188 -52.5t-125.5 -134.5t-42.5 -175v-74
q0 -97 40.5 -179t121 -134t186.5 -52z" />
    <glyph glyph-name="q" unicode="q" horiz-adv-x="1202" 
d="M918 995h120v-1405h-123v611q-51 -97 -145.5 -154t-220.5 -57q-200 0 -324.5 136t-124.5 361q0 229 128 374t333 145q126 0 216 -54t138 -147zM561 98q156 0 255 109t99 254v74q0 148 -96 256t-252 108q-152 0 -246 -114t-94 -296q0 -179 92 -285t242 -106z" />
    <glyph glyph-name="r" unicode="r" horiz-adv-x="657" 
d="M561 1006q20 0 55 -7v-120q-12 6 -63 6q-116 0 -191 -105.5t-75 -238.5v-541h-123v995h117l4 -198q37 93 106.5 151t169.5 58z" />
    <glyph glyph-name="s" unicode="s" horiz-adv-x="950" 
d="M242 735q0 -48 26 -81.5t69 -50t98 -31t112 -24t112 -30t98 -49t69 -81t26 -124.5q0 -125 -103 -199.5t-276 -74.5q-184 0 -282.5 76.5t-100.5 218.5h115q5 -89 73 -138t195 -49q122 0 189 44.5t67 121.5q0 56 -33.5 93t-87.5 55.5t-119 32t-130 31.5t-119 45.5
t-87.5 81.5t-33.5 132q0 124 99 197.5t265 73.5q165 0 257.5 -75.5t95.5 -213.5h-115q-4 89 -68.5 135.5t-171.5 46.5q-111 0 -175 -43.5t-64 -120.5z" />
    <glyph glyph-name="t" unicode="t" horiz-adv-x="722" 
d="M690 127l6 -109q-58 -28 -159 -28q-160 0 -247 83.5t-87 235.5v578h-156v108h162v303h117v-303h346v-104h-346v-582q0 -102 52.5 -156.5t170.5 -54.5q72 0 141 29z" />
    <glyph glyph-name="u" unicode="u" 
d="M834 995h124v-995h-116l-6 174q-48 -84 -133 -134t-197 -50q-164 0 -259 99t-95 267v639h124v-620q0 -129 70 -203t193 -74q131 0 213 86.5t82 208.5v602z" />
    <glyph glyph-name="v" unicode="v" horiz-adv-x="1015" 
d="M840 995h127l-387 -995h-144l-391 995h139l303 -800q7 -16 23 -70h4q6 27 21 70z" />
    <glyph glyph-name="w" unicode="w" horiz-adv-x="1492" 
d="M1300 995h140l-301 -995h-152l-223 764q-11 42 -16 72h-3q-1 -8 -18 -72l-221 -764h-152l-301 995h140l217 -794q3 -12 8.5 -29.5t9 -30t4.5 -16.5h4q7 16 23 76l223 794h127l223 -794q4 -15 13 -43t10 -33h4q8 20 24 76z" />
    <glyph glyph-name="x" unicode="x" horiz-adv-x="925" 
d="M885 0h-146l-276 422l-277 -422h-141l346 506l-348 489h147l273 -399l272 399h142l-340 -485z" />
    <glyph glyph-name="y" unicode="y" horiz-adv-x="1007" 
d="M838 995h127l-385 -995l-60 -152q-56 -147 -130 -207.5t-191 -60.5q-86 0 -138 23l11 110q48 -20 104 -20q81 0 135 36.5t92 131.5l46 106l-398 1028h139l299 -800l23 -70h4q4 27 19 70z" />
    <glyph glyph-name="z" unicode="z" horiz-adv-x="913" 
d="M229 106h609v-106h-760v102l596 789h-582v104h729v-102z" />
    <glyph glyph-name="braceleft" unicode="{" horiz-adv-x="608" 
d="M74 680h20q51 0 90 35.5t39 105.5v443q0 124 69 192t189 68h62v-111h-62q-137 0 -137 -149v-457q0 -81 -32.5 -128t-71.5 -56q39 -9 71.5 -56t32.5 -127v-458q0 -150 137 -150h62v-111h-62q-120 0 -189 68t-69 193v442q0 70 -39 105.5t-90 35.5h-20v115z" />
    <glyph glyph-name="bar" unicode="|" horiz-adv-x="497" 
d="M188 -332v1776h121v-1776h-121z" />
    <glyph glyph-name="braceright" unicode="}" horiz-adv-x="608" 
d="M535 680v-115h-21q-51 0 -90 -35.5t-39 -105.5v-442q0 -124 -69.5 -192.5t-188.5 -68.5h-64v111h64q66 0 100.5 38.5t34.5 111.5v458q0 79 33.5 126.5t71.5 56.5q-39 9 -72 56t-33 128v457q0 149 -135 149h-64v111h64q119 0 188.5 -68t69.5 -192v-443q0 -70 39 -105.5
t90 -35.5h21z" />
    <glyph glyph-name="asciitilde" unicode="~" horiz-adv-x="1069" 
d="M377 733q-57 0 -91 -26t-34 -74h-96q0 97 54.5 150t158.5 53q53 0 104 -17.5t84 -38.5t74 -38.5t76 -18.5q58 2 91 28.5t33 73.5h95q1 -97 -55.5 -149.5t-155.5 -52.5q-50 0 -101 17t-85 38t-75.5 38t-76.5 17z" />
    <glyph glyph-name="exclamdown" unicode="&#xa1;" horiz-adv-x="473" 
d="M233 815q-43 0 -70.5 27.5t-27.5 70.5q0 42 27.5 68.5t70.5 26.5q44 0 71.5 -26t27.5 -69t-27.5 -70.5t-71.5 -27.5zM305 -408h-135l14 1022h107z" />
    <glyph glyph-name="cent" unicode="&#xa2;" horiz-adv-x="1085" 
d="M571 264q124 0 201.5 71t93.5 181h131q-19 -149 -113 -244t-249 -112v-201h-127v201q-184 22 -295 160.5t-111 345.5q0 210 110.5 346.5t295.5 158.5v201h127v-201q153 -17 249 -113.5t113 -246.5h-131q-16 112 -94 185t-201 73q-155 0 -248.5 -110t-93.5 -293
t93.5 -292.5t248.5 -109.5z" />
    <glyph glyph-name="sterling" unicode="&#xa3;" horiz-adv-x="1181" 
d="M424 369q0 -162 -74 -258h729v-111h-985v102q115 0 160 54.5t45 191.5q0 103 -20 250h-181v109h168q-18 193 -18 270q2 204 111.5 319t304.5 115q189 0 302 -109.5t113 -295.5h-125q0 139 -77 216.5t-215 77.5q-140 0 -213.5 -82.5t-73.5 -240.5q0 -119 18 -270h490v-109
h-477q18 -151 18 -229z" />
    <glyph glyph-name="currency" unicode="&#xa4;" horiz-adv-x="1167" 
d="M979 653q0 -138 -74 -245l142 -142l-86 -84l-138 140q-99 -74 -239 -74q-138 0 -242 74l-139 -140l-84 84l141 142q-72 104 -72 245q0 142 72 246l-139 141l84 84l137 -139q99 74 242 74t241 -76l142 141l82 -86l-142 -141q72 -101 72 -244zM584 369q125 0 199.5 80
t76.5 204q-2 123 -76.5 204t-199.5 81t-200 -81t-75 -204q0 -124 75 -204t200 -80z" />
    <glyph glyph-name="yen" unicode="&#xa5;" horiz-adv-x="1239" 
d="M1190 1397l-438 -688h237v-111h-307v-178h307v-109h-307v-311h-125v311h-307v109h307v180h-307v109h237l-438 688h139l433 -682l430 682h139z" />
    <glyph glyph-name="brokenbar" unicode="&#xa6;" horiz-adv-x="509" 
d="M195 731v713h120v-713h-120zM195 -332v709h120v-709h-120z" />
    <glyph glyph-name="section" unicode="&#xa7;" horiz-adv-x="1075" 
d="M768 238q158 -86 158 -281q0 -151 -109.5 -239.5t-298.5 -88.5q-193 0 -307.5 93.5t-114.5 257.5h115q0 -110 83 -176t222 -66q132 0 209.5 59t77.5 160q0 56 -23 98t-62 67t-89.5 43t-106.5 32t-112 29.5t-106.5 39.5t-89.5 57t-62 87t-23 125q0 96 54.5 169.5
t152.5 112.5q-168 82 -168 275q0 145 107.5 231t281.5 86t280.5 -91t106.5 -249h-117q0 111 -74 171t-192 60q-119 0 -195.5 -56t-76.5 -152q0 -55 23 -95.5t62 -63.5t89.5 -40t106.5 -30t112 -28t106.5 -39.5t89.5 -58.5t62 -91.5t23 -133.5q0 -92 -51.5 -164t-143.5 -110z
M252 535q0 -32 9 -58.5t22 -45.5t38 -36t45.5 -27.5t56.5 -22t59.5 -17.5t66 -16.5t65.5 -16.5q104 17 166 77.5t60 139.5q0 26 -6 49.5t-13.5 41t-25 34.5t-29 27.5t-39 23t-41 19t-48 16.5t-47.5 13.5t-52 13.5q-21 5 -31 8q-114 -9 -185 -72t-71 -151z" />
    <glyph glyph-name="dieresis" unicode="&#xa8;" horiz-adv-x="681" 
d="M152 1411q39 0 63.5 -24.5t24.5 -63.5q0 -40 -24 -64t-64 -24t-65.5 24.5t-25.5 63.5q0 38 25.5 63t65.5 25zM512 1411q40 0 65 -25t25 -63q0 -40 -25 -64t-65 -24t-65 24t-25 64q0 38 25 63t65 25z" />
    <glyph glyph-name="copyright" unicode="&#xa9;" horiz-adv-x="1619" 
d="M809 -10q-154 0 -285 53.5t-222 146.5t-142.5 224.5t-50.5 283.5q0 203 88 365t248 254t364 92t364.5 -92t248.5 -254t87 -365q0 -203 -88 -364.5t-248 -252.5t-364 -91zM809 90q170 0 306.5 79.5t212 218.5t75.5 310q0 128 -44.5 241t-122.5 193.5t-188.5 127.5
t-238.5 47q-171 0 -307 -80t-211.5 -219t-75.5 -310t75.5 -310t212 -218.5t306.5 -79.5zM823 367q100 0 165 58t79 150h119q-17 -140 -114.5 -224.5t-246.5 -84.5q-183 0 -294 120.5t-109 313.5q-2 193 109.5 313t293.5 120q150 0 248.5 -87.5t112.5 -226.5h-119
q-14 92 -78.5 152.5t-165.5 60.5q-128 0 -205 -90t-77 -242t76.5 -242.5t205.5 -90.5z" />
    <glyph glyph-name="ordfeminine" unicode="&#xaa;" horiz-adv-x="894" 
d="M440 1409q145 0 228.5 -76t83.5 -205v-475h-117l-4 127q-32 -53 -99.5 -93t-175.5 -40q-117 0 -183.5 54.5t-66.5 144.5q0 231 426 231h99v51q0 84 -51.5 132.5t-143.5 48.5q-78 0 -128.5 -40.5t-57.5 -109.5h-117q10 117 92.5 183.5t214.5 66.5zM389 745q59 0 108 19
t76.5 46.5t42.5 54.5t15 46v86h-101q-301 0 -301 -141q0 -52 42 -81.5t118 -29.5z" />
    <glyph glyph-name="guillemotleft" unicode="&#xab;" horiz-adv-x="940" 
d="M78 485v25l266 295h135l-268 -307l270 -310h-137zM410 485v25l266 295h135l-268 -307l270 -310h-137z" />
    <glyph glyph-name="registered" unicode="&#xae;" horiz-adv-x="1052" 
d="M526 1409q189 0 306.5 -120t117.5 -306t-118 -307t-306 -121q-189 0 -306.5 121t-117.5 307q0 185 118.5 305.5t305.5 120.5zM526 633q148 0 245 100t97 250t-96 250t-246 100q-148 0 -245 -100t-97 -250t96 -250t246 -100zM637 942q23 -22 50 -91.5t50 -102.5h-98
q-15 25 -34 73.5t-35.5 76t-39.5 28.5h-88v-178h-94v481h199q85 0 132.5 -38.5t47.5 -113.5q0 -101 -90 -135zM442 997h105q84 0 84 78t-84 78h-105v-156z" />
    <glyph glyph-name="macron" unicode="&#xaf;" horiz-adv-x="739" 
d="M104 1272v98h531v-98h-531z" />
    <glyph glyph-name="degree" unicode="&#xb0;" horiz-adv-x="706" 
d="M610 1196q0 -115 -73.5 -185.5t-184.5 -70.5q-110 0 -183 70.5t-73 185.5q0 116 73 187t183 71q111 0 184.5 -71t73.5 -187zM520 1196q0 75 -48 121.5t-120 46.5q-70 0 -117 -46.5t-47 -121.5t47 -121.5t117 -46.5q72 0 120 46.5t48 121.5z" />
    <glyph glyph-name="plusminus" unicode="&#xb1;" horiz-adv-x="1083" 
d="M602 852h340v-104h-340v-361h-119v361h-340v104h340v360h119v-360zM143 162v104h797v-104h-797z" />
    <glyph glyph-name="acute" unicode="&#xb4;" horiz-adv-x="514" 
d="M211 1157h-102l108 313h160z" />
    <glyph glyph-name="paragraph" unicode="&#xb6;" horiz-adv-x="1177" 
d="M848 -299v1585h-160v-1585h-121v928h-96q-186 0 -300 106t-114 275q0 170 114 278.5t300 108.5h500v-1696h-123z" />
    <glyph glyph-name="periodcentered" unicode="&#xb7;" horiz-adv-x="454" 
d="M227 856q44 0 71.5 -26.5t27.5 -69.5t-27.5 -69.5t-71.5 -26.5q-43 0 -70.5 26.5t-27.5 69.5t27.5 69.5t70.5 26.5z" />
    <glyph glyph-name="cedilla" unicode="&#xb8;" horiz-adv-x="532" 
d="M141 -297q43 -18 101 -18q55 0 83.5 20t28.5 53q0 84 -164 84l39 185h80l-24 -115q69 -5 115 -41.5t46 -108.5q0 -76 -54 -120.5t-154 -44.5q-66 0 -115 18z" />
    <glyph glyph-name="ordmasculine" unicode="&#xba;" horiz-adv-x="925" 
d="M463 1409q164 0 264 -106t100 -277q0 -169 -100 -274t-264 -105t-264.5 105t-100.5 274q0 171 100.5 277t264.5 106zM463 1305q-107 0 -173.5 -77t-66.5 -202q0 -123 66.5 -198.5t173.5 -75.5t173 75.5t66 198.5q0 125 -66 202t-173 77z" />
    <glyph glyph-name="guillemotright" unicode="&#xbb;" horiz-adv-x="940" 
d="M530 485l-264 -297h-139l272 310l-270 307h137l264 -295v-25zM862 485l-264 -297h-137l270 310l-268 307h135l264 -295v-25z" />
    <glyph glyph-name="onequarter" unicode="&#xbc;" horiz-adv-x="1431" 
d="M954 1409h121l-598 -1409h-121zM487 721v-94h-393v94h148v500h-146v75q92 0 130 21t55 80h73v-676h133zM1368 272v-94h-102v-178h-115v178h-391v98l348 494h158v-498h102zM870 274v-2h281v387h-2z" />
    <glyph glyph-name="onehalf" unicode="&#xbd;" horiz-adv-x="1478" 
d="M952 1409h119l-598 -1409h-119zM485 721v-94h-391v94h146v500h-144v75q92 0 130 21t55 80h71v-676h133zM1042 92h361v-92h-537l-2 72l301 288q52 50 78.5 92.5t26.5 94.5q0 63 -39 98t-101 35q-68 0 -109 -43t-40 -117h-115q0 123 75 190.5t194 67.5q110 0 179.5 -61.5
t69.5 -169.5q0 -76 -34 -135t-111 -133z" />
    <glyph glyph-name="threequarters" unicode="&#xbe;" horiz-adv-x="1527" 
d="M633 858q0 -110 -79 -170.5t-200 -60.5q-124 0 -201 63.5t-77 181.5h117q0 -73 44.5 -109t118.5 -36q70 0 112 32.5t42 94.5q0 65 -42.5 98t-115.5 33h-69v88h63q70 0 111.5 29t42.5 86q0 58 -40 90.5t-104 32.5q-69 0 -108 -37.5t-39 -104.5h-117q0 113 71 177.5
t191 64.5q113 0 188 -58.5t76 -160.5q-3 -109 -94 -160q109 -51 109 -174zM1055 1409h121l-598 -1409h-121zM1464 272v-94h-104v-178h-115v178h-391v98l348 494h158v-498h104zM967 274v-2h278v387h-2z" />
    <glyph glyph-name="questiondown" unicode="&#xbf;" horiz-adv-x="897" 
d="M483 823q-44 0 -72 28t-26 69q0 43 27 69.5t71 26.5t71.5 -26.5t27.5 -69.5q0 -42 -28.5 -69.5t-70.5 -27.5zM717 -33h123q0 -188 -109 -291.5t-293 -103.5q-171 0 -271.5 89.5t-100.5 244.5q0 61 19.5 115.5t51.5 96t70 80.5t76 76t70 75.5t51.5 86.5t19.5 101v84h115
v-89q0 -61 -19 -115t-50 -95t-68.5 -79.5t-74.5 -75.5t-68 -75t-50 -85.5t-19 -100.5q1 -110 72.5 -166.5t183.5 -56.5q124 0 197.5 70.5t73.5 213.5z" />
    <glyph glyph-name="Agrave" unicode="&#xc0;" horiz-adv-x="1267" 
d="M696 1481h-118l-162 256h182zM1104 0l-143 383h-654l-141 -383h-127l522 1397h146l522 -1397h-125zM348 496h572l-287 768z" />
    <glyph glyph-name="Aacute" unicode="&#xc1;" horiz-adv-x="1267" 
d="M864 1737l-166 -256h-118l96 256h188zM1104 0l-143 383h-654l-141 -383h-127l522 1397h146l522 -1397h-125zM348 496h572l-287 768z" />
    <glyph glyph-name="Acircumflex" unicode="&#xc2;" horiz-adv-x="1267" 
d="M633 1647l-158 -166h-106l182 256h166l180 -256h-106zM1104 0l-143 383h-654l-141 -383h-127l522 1397h146l522 -1397h-125zM348 496h572l-287 768z" />
    <glyph glyph-name="Atilde" unicode="&#xc3;" horiz-adv-x="1267" 
d="M512 1618q-37 0 -59.5 -26t-22.5 -70h-98q0 95 43.5 146.5t128.5 51.5q38 0 69.5 -10.5t53 -26t41 -31t42.5 -26t48 -10.5q37 0 58.5 24t21.5 72h96q1 -95 -44.5 -147t-125.5 -52q-44 0 -82 16.5t-60 36t-51.5 36t-58.5 16.5zM1104 0l-143 383h-654l-141 -383h-127
l522 1397h146l522 -1397h-125zM348 496h572l-287 768z" />
    <glyph glyph-name="Adieresis" unicode="&#xc4;" horiz-adv-x="1267" 
d="M455 1522q-40 0 -65 24t-25 62q0 40 25 64t65 24t64 -24t24 -64q0 -38 -24 -62t-64 -24zM815 1522q-40 0 -65 24t-25 62q0 40 25 64t65 24t64 -24t24 -64q0 -38 -24 -62t-64 -24zM1104 0l-143 383h-654l-141 -383h-127l522 1397h146l522 -1397h-125zM348 496h572
l-287 768z" />
    <glyph glyph-name="Aring" unicode="&#xc5;" horiz-adv-x="1267" 
d="M635 1454q-75 0 -125.5 47t-50.5 121q0 77 50.5 125.5t125.5 48.5t125.5 -48.5t50.5 -125.5q0 -74 -50.5 -121t-125.5 -47zM635 1708q-41 0 -63.5 -23.5t-22.5 -62.5q0 -36 23 -60t63 -24t64 24t24 60q0 39 -23.5 62.5t-64.5 23.5zM1104 0l-143 383h-654l-141 -383h-127
l522 1397h146l522 -1397h-125zM348 496h572l-287 768z" />
    <glyph glyph-name="AE" unicode="&#xc6;" horiz-adv-x="2023" 
d="M1122 113h795v-113h-918v383h-614l-260 -383h-137l938 1397h983v-113h-787v-500h723v-112h-723v-559zM463 496h536v784h-4z" />
    <glyph glyph-name="Ccedilla" unicode="&#xc7;" horiz-adv-x="1406" 
d="M733 100q202 0 318 106.5t137 278.5h125q-24 -219 -167.5 -354t-389.5 -141l-17 -78q70 -5 116 -41.5t46 -108.5q0 -76 -54.5 -120.5t-154.5 -44.5q-64 0 -114 18l18 88q44 -18 100 -18q55 0 84 20t29 53q0 84 -164 84l31 150q-252 21 -407.5 210t-155.5 496
q0 158 47 292t129.5 225.5t196.5 142.5t247 51q253 0 405 -139t175 -363h-125q-21 174 -138 282.5t-317 108.5q-214 0 -354.5 -165t-140.5 -435q0 -273 140 -435.5t355 -162.5z" />
    <glyph glyph-name="Egrave" unicode="&#xc8;" horiz-adv-x="1222" 
d="M721 1481h-119l-162 256h183zM324 113h792v-113h-917v1397h911v-113h-786v-500h723v-112h-723v-559z" />
    <glyph glyph-name="Eacute" unicode="&#xc9;" horiz-adv-x="1222" 
d="M889 1737l-166 -256h-119l96 256h189zM324 113h792v-113h-917v1397h911v-113h-786v-500h723v-112h-723v-559z" />
    <glyph glyph-name="Ecircumflex" unicode="&#xca;" horiz-adv-x="1222" 
d="M657 1647l-157 -166h-107l182 256h166l181 -256h-107zM324 113h792v-113h-917v1397h911v-113h-786v-500h723v-112h-723v-559z" />
    <glyph glyph-name="Edieresis" unicode="&#xcb;" horiz-adv-x="1222" 
d="M479 1522q-40 0 -65 24t-25 62q0 40 25 64t65 24t64 -24t24 -64q0 -38 -24 -62t-64 -24zM840 1522q-40 0 -65 24t-25 62q0 40 25 64t65 24t64 -24t24 -64q0 -38 -24 -62t-64 -24zM324 113h792v-113h-917v1397h911v-113h-786v-500h723v-112h-723v-559z" />
    <glyph glyph-name="Igrave" unicode="&#xcc;" horiz-adv-x="522" 
d="M207 1481l-162 256h182l99 -256h-119zM199 0v1397h125v-1397h-125z" />
    <glyph glyph-name="Iacute" unicode="&#xcd;" horiz-adv-x="522" 
d="M326 1481h-119l96 256h189zM199 0v1397h125v-1397h-125z" />
    <glyph glyph-name="Icircumflex" unicode="&#xce;" horiz-adv-x="522" 
d="M346 1737l180 -256h-106l-158 166l-158 -166h-106l182 256h166zM199 0v1397h125v-1397h-125z" />
    <glyph glyph-name="Idieresis" unicode="&#xcf;" horiz-adv-x="522" 
d="M82 1696q40 0 64 -24t24 -64q0 -38 -24 -62t-64 -24t-65 24t-25 62q0 40 25 64t65 24zM442 1696q40 0 64 -24t24 -64q0 -38 -24 -62t-64 -24t-65 24t-25 62q0 40 25 64t65 24zM199 0v1397h125v-1397h-125z" />
    <glyph glyph-name="Eth" unicode="&#xd0;" horiz-adv-x="1472" 
d="M717 1397q140 0 258 -48t203.5 -136.5t133.5 -221t48 -293.5q0 -323 -178.5 -510.5t-464.5 -187.5h-498v643h-168v105h168v649h498zM717 111q229 0 372.5 157.5t143.5 429.5t-143.5 430t-372.5 158h-373v-538h379v-105h-379v-532h373z" />
    <glyph glyph-name="Ntilde" unicode="&#xd1;" horiz-adv-x="1462" 
d="M608 1620q-37 0 -59.5 -26t-22.5 -70h-98q0 95 43.5 146.5t128.5 51.5q38 0 69.5 -10.5t53 -26t41 -31t42.5 -26t48 -10.5q37 0 58.5 24t21.5 72h96q1 -95 -44.5 -146.5t-125.5 -51.5q-36 0 -67.5 10.5t-53 26t-41.5 31t-43 26t-47 10.5zM1139 1397h125v-1397h-127
l-813 1202v-1202h-125v1397h127l813 -1202v1202z" />
    <glyph glyph-name="Ograve" unicode="&#xd2;" horiz-adv-x="1538" 
d="M713 1481l-162 256h182l98 -256h-118zM770 -10q-140 0 -260.5 48t-209 137t-139 222.5t-50.5 296.5t50.5 298.5t139 226t209 140.5t260.5 50t260.5 -48.5t209 -137.5t139 -223t51.5 -298q-1 -162 -51.5 -297t-139 -225.5t-209 -140t-260.5 -49.5zM770 100
q230 0 381.5 162.5t151.5 435.5q0 138 -41 251.5t-113 189.5t-169.5 117.5t-209.5 41.5t-209.5 -41.5t-169.5 -117.5t-113.5 -189.5t-41.5 -251.5q0 -137 41.5 -250.5t113.5 -189t169.5 -117t209.5 -41.5z" />
    <glyph glyph-name="Oacute" unicode="&#xd3;" horiz-adv-x="1538" 
d="M834 1481h-119l96 256h188zM770 -10q-140 0 -260.5 48t-209 137t-139 222.5t-50.5 296.5t50.5 298.5t139 226t209 140.5t260.5 50t260.5 -48.5t209 -137.5t139 -223t51.5 -298q-1 -162 -51.5 -297t-139 -225.5t-209 -140t-260.5 -49.5zM770 100q230 0 381.5 162.5
t151.5 435.5q0 138 -41 251.5t-113 189.5t-169.5 117.5t-209.5 41.5t-209.5 -41.5t-169.5 -117.5t-113.5 -189.5t-41.5 -251.5q0 -137 41.5 -250.5t113.5 -189t169.5 -117t209.5 -41.5z" />
    <glyph glyph-name="Ocircumflex" unicode="&#xd4;" horiz-adv-x="1538" 
d="M852 1737l180 -256h-106l-158 166l-158 -166h-106l182 256h166zM770 -10q-140 0 -260.5 48t-209 137t-139 222.5t-50.5 296.5t50.5 298.5t139 226t209 140.5t260.5 50t260.5 -48.5t209 -137.5t139 -223t51.5 -298q-1 -162 -51.5 -297t-139 -225.5t-209 -140t-260.5 -49.5
zM770 100q230 0 381.5 162.5t151.5 435.5q0 138 -41 251.5t-113 189.5t-169.5 117.5t-209.5 41.5t-209.5 -41.5t-169.5 -117.5t-113.5 -189.5t-41.5 -251.5q0 -137 41.5 -250.5t113.5 -189t169.5 -117t209.5 -41.5z" />
    <glyph glyph-name="Otilde" unicode="&#xd5;" horiz-adv-x="1538" 
d="M647 1618q-37 0 -59.5 -26t-22.5 -70h-98q0 95 43.5 146.5t128.5 51.5q38 0 69.5 -10.5t53 -26t41 -31t42.5 -26t48 -10.5q37 0 58.5 24t21.5 72h96q1 -95 -44.5 -147t-125.5 -52q-44 0 -82 16.5t-60 36t-51.5 36t-58.5 16.5zM770 -10q-140 0 -260.5 48t-209 137
t-139 222.5t-50.5 296.5t50.5 298.5t139 226t209 140.5t260.5 50t260.5 -48.5t209 -137.5t139 -223t51.5 -298q-1 -162 -51.5 -297t-139 -225.5t-209 -140t-260.5 -49.5zM770 100q230 0 381.5 162.5t151.5 435.5q0 138 -41 251.5t-113 189.5t-169.5 117.5t-209.5 41.5
t-209.5 -41.5t-169.5 -117.5t-113.5 -189.5t-41.5 -251.5q0 -137 41.5 -250.5t113.5 -189t169.5 -117t209.5 -41.5z" />
    <glyph glyph-name="Odieresis" unicode="&#xd6;" horiz-adv-x="1538" 
d="M590 1696q40 0 64 -24t24 -64q0 -38 -24 -62t-64 -24t-65 24t-25 62q0 40 25 64t65 24zM950 1696q40 0 64 -24t24 -64q0 -38 -24 -62t-64 -24t-65 24t-25 62q0 40 25 64t65 24zM770 -10q-140 0 -260.5 48t-209 137t-139 222.5t-50.5 296.5t50.5 298.5t139 226t209 140.5
t260.5 50t260.5 -48.5t209 -137.5t139 -223t51.5 -298q-1 -162 -51.5 -297t-139 -225.5t-209 -140t-260.5 -49.5zM770 100q230 0 381.5 162.5t151.5 435.5q0 138 -41 251.5t-113 189.5t-169.5 117.5t-209.5 41.5t-209.5 -41.5t-169.5 -117.5t-113.5 -189.5t-41.5 -251.5
q0 -137 41.5 -250.5t113.5 -189t169.5 -117t209.5 -41.5z" />
    <glyph glyph-name="multiply" unicode="&#xd7;" horiz-adv-x="935" 
d="M815 985l-274 -274l274 -275l-74 -74l-274 275l-274 -275l-74 72l276 277l-276 274l74 74l276 -275l272 273z" />
    <glyph glyph-name="Oslash" unicode="&#xd8;" horiz-adv-x="1538" 
d="M1192 1266q112 -93 174.5 -236.5t63.5 -327.5q-1 -162 -51.5 -297t-139 -225.5t-209 -140t-260.5 -49.5q-179 0 -330 80l-104 -164h-131l143 227q-113 91 -175 234t-62 327q0 163 50.5 298.5t139 226t209 140.5t260.5 50q181 0 330 -82l88 139h131zM236 698
q0 -296 178 -460l624 991q-120 69 -268 69q-112 0 -209.5 -41.5t-169.5 -117.5t-113.5 -189.5t-41.5 -251.5zM770 100q230 0 381.5 162.5t151.5 435.5q0 294 -177 463l-624 -991q124 -70 268 -70z" />
    <glyph glyph-name="Ugrave" unicode="&#xd9;" horiz-adv-x="1427" 
d="M657 1481l-161 256h182l98 -256h-119zM1118 1397h125v-852q0 -264 -139 -409.5t-391 -145.5q-257 0 -394 145t-137 410v852h125v-852q0 -219 103.5 -332t302.5 -113q200 0 302.5 112.5t102.5 332.5v852z" />
    <glyph glyph-name="Uacute" unicode="&#xda;" horiz-adv-x="1427" 
d="M776 1481h-119l97 256h188zM1118 1397h125v-852q0 -264 -139 -409.5t-391 -145.5q-257 0 -394 145t-137 410v852h125v-852q0 -219 103.5 -332t302.5 -113q200 0 302.5 112.5t102.5 332.5v852z" />
    <glyph glyph-name="Ucircumflex" unicode="&#xdb;" horiz-adv-x="1427" 
d="M797 1737l180 -256h-107l-157 166l-158 -166h-106l182 256h166zM1118 1397h125v-852q0 -264 -139 -409.5t-391 -145.5q-257 0 -394 145t-137 410v852h125v-852q0 -219 103.5 -332t302.5 -113q200 0 302.5 112.5t102.5 332.5v852z" />
    <glyph glyph-name="Udieresis" unicode="&#xdc;" horiz-adv-x="1427" 
d="M532 1696q40 0 64.5 -24t24.5 -64q0 -38 -24.5 -62t-64.5 -24t-65 24t-25 62q0 40 25 64t65 24zM893 1696q40 0 64 -24t24 -64q0 -38 -24 -62t-64 -24t-65 24t-25 62q0 40 25 64t65 24zM1118 1397h125v-852q0 -264 -139 -409.5t-391 -145.5q-257 0 -394 145t-137 410v852
h125v-852q0 -219 103.5 -332t302.5 -113q200 0 302.5 112.5t102.5 332.5v852z" />
    <glyph glyph-name="Yacute" unicode="&#xdd;" horiz-adv-x="1222" 
d="M842 1737l-166 -256h-119l96 256h189zM1182 1397l-508 -797v-600h-125v600l-508 797h139l432 -682l430 682h140z" />
    <glyph glyph-name="Thorn" unicode="&#xde;" horiz-adv-x="1257" 
d="M731 1104q189 0 308.5 -102t119.5 -295q0 -129 -57.5 -220t-152.5 -133.5t-218 -42.5h-407v-311h-125v1397h125v-293h407zM731 422q137 0 220 76.5t83 210.5t-82.5 209t-220.5 75h-407v-571h407z" />
    <glyph glyph-name="germandbls" unicode="&#xdf;" horiz-adv-x="1091" 
d="M711 764q139 -34 211.5 -126.5t72.5 -238.5q0 -188 -120.5 -293.5t-342.5 -105.5h-120v109h120q162 0 249 75.5t87 214.5q0 141 -87.5 222t-248.5 81h-92v95h35q158 0 239 87t81 218q0 114 -63.5 185t-184.5 71q-127 0 -193.5 -75t-66.5 -196v-1087h-123v1087
q0 171 102.5 274t280.5 103q181 0 277 -98.5t96 -257.5q0 -118 -53.5 -208t-155.5 -136z" />
    <glyph glyph-name="agrave" unicode="&#xe0;" horiz-adv-x="1093" 
d="M633 1157h-103l-165 313h159zM1044 115l13 -109q-50 -16 -96 -16q-77 0 -121.5 47.5t-44.5 130.5v8q-18 -32 -47 -61.5t-74 -59t-112 -47.5t-146 -18q-156 0 -239 72t-83 192q0 80 35.5 139.5t102.5 95.5t156 53t202 17h205v78q0 121 -75 191.5t-206 70.5
q-121 0 -194 -59t-82 -162h-121q12 152 121.5 240t283.5 88q185 0 290.5 -99.5t105.5 -271.5v-445q0 -42 19 -64t52 -22q27 0 55 11zM440 92q87 0 159 29.5t112.5 71.5t62 81.5t21.5 67.5v125h-211q-363 0 -363 -209q0 -78 55 -122t164 -44z" />
    <glyph glyph-name="aacute" unicode="&#xe1;" horiz-adv-x="1093" 
d="M745 1470l-165 -313h-103l109 313h159zM1044 115l13 -109q-50 -16 -96 -16q-77 0 -121.5 47.5t-44.5 130.5v8q-18 -32 -47 -61.5t-74 -59t-112 -47.5t-146 -18q-156 0 -239 72t-83 192q0 80 35.5 139.5t102.5 95.5t156 53t202 17h205v78q0 121 -75 191.5t-206 70.5
q-121 0 -194 -59t-82 -162h-121q12 152 121.5 240t283.5 88q185 0 290.5 -99.5t105.5 -271.5v-445q0 -42 19 -64t52 -22q27 0 55 11zM440 92q87 0 159 29.5t112.5 71.5t62 81.5t21.5 67.5v125h-211q-363 0 -363 -209q0 -78 55 -122t164 -44z" />
    <glyph glyph-name="acircumflex" unicode="&#xe2;" horiz-adv-x="1093" 
d="M551 1372l-160 -215h-108l194 313h146l194 -313h-108zM1044 115l13 -109q-50 -16 -96 -16q-77 0 -121.5 47.5t-44.5 130.5v8q-18 -32 -47 -61.5t-74 -59t-112 -47.5t-146 -18q-156 0 -239 72t-83 192q0 80 35.5 139.5t102.5 95.5t156 53t202 17h205v78q0 121 -75 191.5
t-206 70.5q-121 0 -194 -59t-82 -162h-121q12 152 121.5 240t283.5 88q185 0 290.5 -99.5t105.5 -271.5v-445q0 -42 19 -64t52 -22q27 0 55 11zM440 92q87 0 159 29.5t112.5 71.5t62 81.5t21.5 67.5v125h-211q-363 0 -363 -209q0 -78 55 -122t164 -44z" />
    <glyph glyph-name="atilde" unicode="&#xe3;" horiz-adv-x="1093" 
d="M412 1315q-38 0 -61.5 -27t-24.5 -74h-95q0 97 43 150t129 53q48 0 86.5 -17t60 -38t50.5 -38t59 -17q39 0 62.5 26.5t23.5 73.5h97q0 -97 -47 -150t-127 -53q-45 0 -83.5 17.5t-60 38t-51.5 38t-61 17.5zM1044 115l13 -109q-50 -16 -96 -16q-77 0 -121.5 47.5
t-44.5 130.5v8q-18 -32 -47 -61.5t-74 -59t-112 -47.5t-146 -18q-156 0 -239 72t-83 192q0 80 35.5 139.5t102.5 95.5t156 53t202 17h205v78q0 121 -75 191.5t-206 70.5q-121 0 -194 -59t-82 -162h-121q12 152 121.5 240t283.5 88q185 0 290.5 -99.5t105.5 -271.5v-445
q0 -42 19 -64t52 -22q27 0 55 11zM440 92q87 0 159 29.5t112.5 71.5t62 81.5t21.5 67.5v125h-211q-363 0 -363 -209q0 -78 55 -122t164 -44z" />
    <glyph glyph-name="adieresis" unicode="&#xe4;" horiz-adv-x="1093" 
d="M377 1235q-40 0 -65 24t-25 64q0 38 25 63t65 25q39 0 63.5 -24.5t24.5 -63.5q0 -40 -24 -64t-64 -24zM737 1235q-40 0 -65 24t-25 64q0 38 25 63t65 25t65 -25t25 -63q0 -40 -25 -64t-65 -24zM1044 115l13 -109q-50 -16 -96 -16q-77 0 -121.5 47.5t-44.5 130.5v8
q-18 -32 -47 -61.5t-74 -59t-112 -47.5t-146 -18q-156 0 -239 72t-83 192q0 80 35.5 139.5t102.5 95.5t156 53t202 17h205v78q0 121 -75 191.5t-206 70.5q-121 0 -194 -59t-82 -162h-121q12 152 121.5 240t283.5 88q185 0 290.5 -99.5t105.5 -271.5v-445q0 -42 19 -64
t52 -22q27 0 55 11zM440 92q87 0 159 29.5t112.5 71.5t62 81.5t21.5 67.5v125h-211q-363 0 -363 -209q0 -78 55 -122t164 -44z" />
    <glyph glyph-name="aring" unicode="&#xe5;" horiz-adv-x="1093" 
d="M551 1143q-74 0 -125 47.5t-51 120.5q0 77 50.5 125.5t125.5 48.5q73 0 123.5 -48.5t50.5 -125.5q0 -73 -50.5 -120.5t-123.5 -47.5zM551 1397q-41 0 -63.5 -23.5t-22.5 -62.5q0 -36 23 -60t63 -24q39 0 62.5 24t23.5 60q0 39 -23.5 62.5t-62.5 23.5zM1044 115l13 -109
q-50 -16 -96 -16q-77 0 -121.5 47.5t-44.5 130.5v8q-18 -32 -47 -61.5t-74 -59t-112 -47.5t-146 -18q-156 0 -239 72t-83 192q0 80 35.5 139.5t102.5 95.5t156 53t202 17h205v78q0 121 -75 191.5t-206 70.5q-121 0 -194 -59t-82 -162h-121q12 152 121.5 240t283.5 88
q185 0 290.5 -99.5t105.5 -271.5v-445q0 -42 19 -64t52 -22q27 0 55 11zM440 92q87 0 159 29.5t112.5 71.5t62 81.5t21.5 67.5v125h-211q-363 0 -363 -209q0 -78 55 -122t164 -44z" />
    <glyph glyph-name="ae" unicode="&#xe6;" horiz-adv-x="1781" 
d="M1683 502v-35h-768q9 -170 103 -271.5t239 -101.5q125 0 202.5 64.5t92.5 156.5h125q-23 -144 -132.5 -236.5t-284.5 -92.5q-136 0 -240.5 61.5t-163.5 171.5q-68 -109 -179.5 -169t-258.5 -60q-153 0 -240.5 72.5t-87.5 191.5q0 303 569 303h134v80q0 121 -74.5 191.5
t-204.5 70.5q-113 0 -184.5 -59t-83.5 -162h-123q14 151 120 239.5t273 88.5q131 0 225.5 -52t139.5 -145q61 93 157 145t213 52q197 0 314.5 -136.5t117.5 -367.5zM1251 899q-133 0 -223.5 -92t-107.5 -246h641q-13 162 -95.5 250t-214.5 88zM442 96q68 0 129.5 19
t103 47.5t73 62.5t46.5 63.5t17 51.5q-15 58 -18 125h-134q-444 0 -444 -207q0 -75 60 -118.5t167 -43.5z" />
    <glyph glyph-name="ccedilla" unicode="&#xe7;" horiz-adv-x="1081" 
d="M567 94q124 0 201.5 71t93.5 181h133q-22 -159 -130 -256.5t-283 -103.5l-17 -78q70 -5 116 -41.5t46 -108.5q0 -76 -54.5 -121t-154.5 -45q-63 0 -115 19l19 88q44 -18 100 -18q55 0 84 20t29 53q0 84 -164 84l33 150q-190 20 -297 156t-107 350q0 228 129.5 370
t339.5 142q181 0 294 -100t132 -265h-133q-16 112 -93 185t-200 73q-155 0 -248.5 -110t-93.5 -293q0 -185 91 -293.5t249 -108.5z" />
    <glyph glyph-name="egrave" unicode="&#xe8;" horiz-adv-x="1110" 
d="M653 1157h-102l-166 313h160zM1012 502v-35h-785q8 -171 100.5 -270t245.5 -99q134 0 213.5 63t94.5 154h125q-24 -142 -138.5 -233.5t-298.5 -91.5q-219 0 -344 138t-125 366q0 227 130.5 369.5t336.5 142.5q205 0 325 -136t120 -368zM569 899q-139 0 -230 -90.5
t-108 -247.5h656q-12 163 -95.5 250.5t-222.5 87.5z" />
    <glyph glyph-name="eacute" unicode="&#xe9;" horiz-adv-x="1110" 
d="M764 1470l-166 -313h-102l108 313h160zM1012 502v-35h-785q8 -171 100.5 -270t245.5 -99q134 0 213.5 63t94.5 154h125q-24 -142 -138.5 -233.5t-298.5 -91.5q-219 0 -344 138t-125 366q0 227 130.5 369.5t336.5 142.5q205 0 325 -136t120 -368zM569 899
q-139 0 -230 -90.5t-108 -247.5h656q-12 163 -95.5 250.5t-222.5 87.5z" />
    <glyph glyph-name="ecircumflex" unicode="&#xea;" horiz-adv-x="1110" 
d="M569 1372l-159 -215h-109l195 313h145l195 -313h-109zM1012 502v-35h-785q8 -171 100.5 -270t245.5 -99q134 0 213.5 63t94.5 154h125q-24 -142 -138.5 -233.5t-298.5 -91.5q-219 0 -344 138t-125 366q0 227 130.5 369.5t336.5 142.5q205 0 325 -136t120 -368zM569 899
q-139 0 -230 -90.5t-108 -247.5h656q-12 163 -95.5 250.5t-222.5 87.5z" />
    <glyph glyph-name="edieresis" unicode="&#xeb;" horiz-adv-x="1110" 
d="M395 1235q-40 0 -65 24t-25 64q0 38 25 63t65 25q39 0 63.5 -24.5t24.5 -63.5q0 -40 -24 -64t-64 -24zM756 1235q-40 0 -65 24t-25 64q0 38 25 63t65 25t65 -25t25 -63q0 -40 -25 -64t-65 -24zM1012 502v-35h-785q8 -171 100.5 -270t245.5 -99q134 0 213.5 63t94.5 154
h125q-24 -142 -138.5 -233.5t-298.5 -91.5q-219 0 -344 138t-125 366q0 227 130.5 369.5t336.5 142.5q205 0 325 -136t120 -368zM569 899q-139 0 -230 -90.5t-108 -247.5h656q-12 163 -95.5 250.5t-222.5 87.5z" />
    <glyph glyph-name="igrave" unicode="&#xec;" horiz-adv-x="450" 
d="M166 1157l-166 313h160l108 -313h-102zM164 0v995h125v-995h-125z" />
    <glyph glyph-name="iacute" unicode="&#xed;" horiz-adv-x="450" 
d="M248 1157h-103l109 313h160zM164 0v995h125v-995h-125z" />
    <glyph glyph-name="icircumflex" unicode="&#xee;" horiz-adv-x="450" 
d="M-41 1157l195 313h145l195 -313h-109l-158 215l-159 -215h-109zM164 0v995h125v-995h-125z" />
    <glyph glyph-name="idieresis" unicode="&#xef;" horiz-adv-x="450" 
d="M53 1411q39 0 63.5 -24.5t24.5 -63.5q0 -40 -24 -64t-64 -24t-65 24t-25 64q0 38 25 63t65 25zM414 1411q40 0 65 -25t25 -63q0 -40 -25 -64t-65 -24t-65 24t-25 64q0 38 25 63t65 25zM164 0v995h125v-995h-125z" />
    <glyph glyph-name="eth" unicode="&#xf0;" horiz-adv-x="1173" 
d="M770 1274q289 -259 289 -735q0 -269 -131.5 -409t-358.5 -140q-91 0 -175.5 33.5t-150 93.5t-104.5 149t-39 193q0 223 135 358t334 135q136 0 230 -65.5t129 -147.5q-18 135 -82 253.5t-160 207.5l-172 -147l-57 75l153 132q-128 88 -256 108l29 98q179 -40 311 -133
l135 117l62 -74zM569 98q164 0 261.5 104t99.5 277q0 148 -104.5 257.5t-250.5 109.5q-151 0 -249.5 -107.5t-98.5 -277.5q0 -159 102.5 -261t239.5 -102z" />
    <glyph glyph-name="ntilde" unicode="&#xf1;" horiz-adv-x="1142" 
d="M453 1315q-38 0 -61.5 -27t-24.5 -74h-95q0 97 43 150t129 53q48 0 86.5 -17t60 -38t50.5 -38t59 -17q39 0 62.5 26.5t23.5 73.5h97q0 -97 -47 -150t-127 -53q-45 0 -83.5 17.5t-60 38t-51.5 38t-61 17.5zM627 1006q170 0 267 -101.5t97 -283.5v-621h-125v596
q0 142 -71 222.5t-199 80.5q-142 0 -225.5 -87t-83.5 -210v-602h-123v995h117l4 -172q48 83 136 133t206 50z" />
    <glyph glyph-name="ograve" unicode="&#xf2;" horiz-adv-x="1157" 
d="M559 1157l-166 313h160l109 -313h-103zM578 1006q216 0 347.5 -139t131.5 -367t-131.5 -369t-347.5 -141q-214 0 -346 137.5t-132 364.5q0 228 132.5 371t345.5 143zM578 899q-157 0 -254 -111.5t-97 -291.5q0 -178 97 -288t254 -110q159 0 255.5 109.5t96.5 288.5
q0 181 -96.5 292t-255.5 111z" />
    <glyph glyph-name="oacute" unicode="&#xf3;" horiz-adv-x="1157" 
d="M608 1157h-102l108 313h160zM578 1006q216 0 347.5 -139t131.5 -367t-131.5 -369t-347.5 -141q-214 0 -346 137.5t-132 364.5q0 228 132.5 371t345.5 143zM578 899q-157 0 -254 -111.5t-97 -291.5q0 -178 97 -288t254 -110q159 0 255.5 109.5t96.5 288.5q0 181 -96.5 292
t-255.5 111z" />
    <glyph glyph-name="ocircumflex" unicode="&#xf4;" horiz-adv-x="1157" 
d="M311 1157l195 313h145l195 -313h-109l-157 215l-160 -215h-109zM578 1006q216 0 347.5 -139t131.5 -367t-131.5 -369t-347.5 -141q-214 0 -346 137.5t-132 364.5q0 228 132.5 371t345.5 143zM578 899q-157 0 -254 -111.5t-97 -291.5q0 -178 97 -288t254 -110
q159 0 255.5 109.5t96.5 288.5q0 181 -96.5 292t-255.5 111z" />
    <glyph glyph-name="otilde" unicode="&#xf5;" horiz-adv-x="1157" 
d="M440 1315q-38 0 -61.5 -27t-24.5 -74h-94q0 97 43 150t129 53q48 0 86.5 -17t60 -38t50.5 -38t59 -17q39 0 62.5 26.5t23.5 73.5h96q0 -97 -47 -150t-127 -53q-45 0 -83.5 17.5t-60 38t-51.5 38t-61 17.5zM578 1006q216 0 347.5 -139t131.5 -367t-131.5 -369t-347.5 -141
q-214 0 -346 137.5t-132 364.5q0 228 132.5 371t345.5 143zM578 899q-157 0 -254 -111.5t-97 -291.5q0 -178 97 -288t254 -110q159 0 255.5 109.5t96.5 288.5q0 181 -96.5 292t-255.5 111z" />
    <glyph glyph-name="odieresis" unicode="&#xf6;" horiz-adv-x="1157" 
d="M406 1411q39 0 63.5 -24.5t24.5 -63.5q0 -40 -24 -64t-64 -24t-65.5 24.5t-25.5 63.5q0 38 25.5 63t65.5 25zM766 1411q40 0 65 -25t25 -63q0 -40 -25 -64t-65 -24t-65 24t-25 64q0 38 25 63t65 25zM578 1006q216 0 347.5 -139t131.5 -367t-131.5 -369t-347.5 -141
q-214 0 -346 137.5t-132 364.5q0 228 132.5 371t345.5 143zM578 899q-157 0 -254 -111.5t-97 -291.5q0 -178 97 -288t254 -110q159 0 255.5 109.5t96.5 288.5q0 181 -96.5 292t-255.5 111z" />
    <glyph glyph-name="divide" unicode="&#xf7;" horiz-adv-x="1054" 
d="M530 1128q42 0 67.5 -24.5t25.5 -65.5q0 -40 -26 -65t-67 -25t-66.5 25t-25.5 65q0 41 25.5 65.5t66.5 24.5zM129 657v105h799v-105h-799zM530 481q42 0 67.5 -24.5t25.5 -65.5q0 -40 -26 -65t-67 -25t-66.5 25t-25.5 65q0 41 25.5 65.5t66.5 24.5z" />
    <glyph glyph-name="oslash" unicode="&#xf8;" horiz-adv-x="1157" 
d="M879 909q86 -67 132 -172t46 -237q0 -228 -131.5 -369t-347.5 -141q-128 0 -226 49l-61 -100h-105l90 147q-84 67 -130 171t-46 235q0 228 132.5 371t345.5 143q125 0 229 -52l59 99h101zM227 496q0 -196 113 -306l408 668q-74 41 -170 41q-157 0 -254 -111.5t-97 -291.5
zM578 98q159 0 255.5 109.5t96.5 288.5q0 196 -113 309l-405 -668q76 -39 166 -39z" />
    <glyph glyph-name="ugrave" unicode="&#xf9;" 
d="M641 1157h-102l-166 313h159zM834 995h124v-995h-116l-6 174q-48 -84 -133 -134t-197 -50q-164 0 -259 99t-95 267v639h124v-620q0 -129 70 -203t193 -74q131 0 213 86.5t82 208.5v602z" />
    <glyph glyph-name="uacute" unicode="&#xfa;" 
d="M752 1470l-166 -313h-103l109 313h160zM834 995h124v-995h-116l-6 174q-48 -84 -133 -134t-197 -50q-164 0 -259 99t-95 267v639h124v-620q0 -129 70 -203t193 -74q131 0 213 86.5t82 208.5v602z" />
    <glyph glyph-name="ucircumflex" unicode="&#xfb;" 
d="M557 1372l-160 -215h-108l194 313h146l194 -313h-108zM834 995h124v-995h-116l-6 174q-48 -84 -133 -134t-197 -50q-164 0 -259 99t-95 267v639h124v-620q0 -129 70 -203t193 -74q131 0 213 86.5t82 208.5v602z" />
    <glyph glyph-name="udieresis" unicode="&#xfc;" 
d="M385 1235q-40 0 -65 24t-25 64q0 38 25 63t65 25q39 0 63.5 -24.5t24.5 -63.5q0 -40 -24 -64t-64 -24zM745 1235q-40 0 -65 24t-25 64q0 38 25 63t65 25t65.5 -25t25.5 -63q0 -39 -25.5 -63.5t-65.5 -24.5zM834 995h124v-995h-116l-6 174q-48 -84 -133 -134t-197 -50
q-164 0 -259 99t-95 267v639h124v-620q0 -129 70 -203t193 -74q131 0 213 86.5t82 208.5v602z" />
    <glyph glyph-name="yacute" unicode="&#xfd;" horiz-adv-x="1007" 
d="M705 1470l-166 -313h-103l109 313h160zM838 995h127l-385 -995l-60 -152q-56 -147 -130 -207.5t-191 -60.5q-86 0 -138 23l11 110q48 -20 104 -20q81 0 135 36.5t92 131.5l46 106l-398 1028h139l299 -800l23 -70h4q4 27 19 70z" />
    <glyph glyph-name="thorn" unicode="&#xfe;" horiz-adv-x="1204" 
d="M653 1006q202 0 325.5 -136.5t123.5 -361.5q0 -230 -128 -374t-333 -144q-127 0 -217 53t-137 147v-600h-123v1854h123v-647q51 96 146 152.5t220 56.5zM635 98q152 0 246 112.5t94 295.5q0 178 -90.5 285.5t-241.5 107.5q-105 0 -188 -52.5t-125.5 -134.5t-42.5 -175
v-74q0 -97 40.5 -179t121 -134t186.5 -52z" />
    <glyph glyph-name="ydieresis" unicode="&#xff;" horiz-adv-x="1007" 
d="M336 1235q-40 0 -65 24t-25 64q0 38 25 63t65 25q39 0 63.5 -24.5t24.5 -63.5q0 -40 -24 -64t-64 -24zM696 1235q-40 0 -65 24t-25 64q0 38 25 63t65 25t65 -25t25 -63q0 -40 -25 -64t-65 -24zM838 995h127l-385 -995l-60 -152q-56 -147 -130 -207.5t-191 -60.5
q-86 0 -138 23l11 110q48 -20 104 -20q81 0 135 36.5t92 131.5l46 106l-398 1028h139l299 -800l23 -70h4q4 27 19 70z" />
    <glyph glyph-name="Amacron" unicode="&#x100;" horiz-adv-x="1267" 
d="M899 1655v-101h-528v101h528zM1104 0l-143 383h-654l-141 -383h-127l522 1397h146l522 -1397h-125zM348 496h572l-287 768z" />
    <glyph glyph-name="amacron" unicode="&#x101;" horiz-adv-x="1093" 
d="M819 1370v-98h-530v98h530zM1044 115l13 -109q-50 -16 -96 -16q-77 0 -121.5 47.5t-44.5 130.5v8q-18 -32 -47 -61.5t-74 -59t-112 -47.5t-146 -18q-156 0 -239 72t-83 192q0 80 35.5 139.5t102.5 95.5t156 53t202 17h205v78q0 121 -75 191.5t-206 70.5q-121 0 -194 -59
t-82 -162h-121q12 152 121.5 240t283.5 88q185 0 290.5 -99.5t105.5 -271.5v-445q0 -42 19 -64t52 -22q27 0 55 11zM440 92q87 0 159 29.5t112.5 71.5t62 81.5t21.5 67.5v125h-211q-363 0 -363 -209q0 -78 55 -122t164 -44z" />
    <glyph glyph-name="Abreve" unicode="&#x102;" horiz-adv-x="1267" 
d="M635 1481q-118 0 -180 69t-62 187h107q0 -77 34.5 -117t100.5 -39q64 0 98.5 40.5t34.5 115.5h109q0 -116 -62.5 -186t-179.5 -70zM1104 0l-143 383h-654l-141 -383h-127l522 1397h146l522 -1397h-125zM348 496h572l-287 768z" />
    <glyph glyph-name="abreve" unicode="&#x103;" horiz-adv-x="1093" 
d="M549 1153q-124 0 -193 79.5t-69 223.5h104q0 -107 43 -157t115 -50q156 3 156 207h106q0 -142 -69.5 -222.5t-192.5 -80.5zM1044 115l13 -109q-50 -16 -96 -16q-77 0 -121.5 47.5t-44.5 130.5v8q-18 -32 -47 -61.5t-74 -59t-112 -47.5t-146 -18q-156 0 -239 72t-83 192
q0 80 35.5 139.5t102.5 95.5t156 53t202 17h205v78q0 121 -75 191.5t-206 70.5q-121 0 -194 -59t-82 -162h-121q12 152 121.5 240t283.5 88q185 0 290.5 -99.5t105.5 -271.5v-445q0 -42 19 -64t52 -22q27 0 55 11zM440 92q87 0 159 29.5t112.5 71.5t62 81.5t21.5 67.5v125
h-211q-363 0 -363 -209q0 -78 55 -122t164 -44z" />
    <glyph glyph-name="Aogonek" unicode="&#x104;" horiz-adv-x="1267" 
d="M1264 -283l36 -71q-49 -52 -149 -52q-84 0 -135 45.5t-51 127.5q0 136 139 235l-143 381h-654l-141 -383h-127l522 1397h146l522 -1397q-7 -4 -18 -10.5t-39.5 -29t-50.5 -46t-40 -60t-18 -73.5q0 -48 27.5 -73t68.5 -25q58 0 105 34zM348 496h572l-287 768z" />
    <glyph glyph-name="aogonek" unicode="&#x105;" horiz-adv-x="1093" 
d="M1092 -276l36 -72q-48 -51 -149 -51q-84 0 -135 45.5t-51 126.5q0 127 122 221q-57 13 -88.5 59t-31.5 115v8q-18 -32 -47 -61.5t-74 -59t-112 -47.5t-146 -18q-156 0 -239 72t-83 192q0 80 35.5 139.5t102.5 95.5t156 53t202 17h205v78q0 121 -75 191.5t-206 70.5
q-121 0 -194 -59t-82 -162h-121q12 152 121.5 240t283.5 88q185 0 290.5 -99.5t105.5 -271.5v-445q0 -42 19 -64t52 -22q27 0 55 11l13 -109q-7 -4 -18 -10.5t-39.5 -29t-50.5 -46t-40 -60t-18 -73.5q0 -48 27.5 -73t68.5 -25q56 0 105 35zM440 92q87 0 159 29.5t112.5 71.5
t62 81.5t21.5 67.5v125h-211q-363 0 -363 -209q0 -78 55 -122t164 -44z" />
    <glyph glyph-name="Cacute" unicode="&#x106;" horiz-adv-x="1406" 
d="M797 1460h-119l96 256h189zM733 100q202 0 318 106.5t137 278.5h125q-24 -223 -174 -359t-406 -136q-134 0 -248.5 49.5t-196.5 140t-128.5 224t-46.5 294.5q0 158 47 292t129.5 225.5t196.5 142.5t247 51q253 0 405 -139t175 -363h-125q-21 174 -138 282.5t-317 108.5
q-214 0 -354.5 -165t-140.5 -435q0 -273 140 -435.5t355 -162.5z" />
    <glyph glyph-name="cacute" unicode="&#x107;" horiz-adv-x="1081" 
d="M600 1157h-102l108 313h160zM563 -14q-217 0 -340 138.5t-123 369.5q0 228 129.5 370t339.5 142q181 0 294 -100t132 -265h-133q-16 112 -93 185t-200 73q-155 0 -248.5 -110t-93.5 -293q0 -185 91 -293.5t249 -108.5q124 0 201.5 71t93.5 181h133q-22 -163 -136 -261.5
t-296 -98.5z" />
    <glyph glyph-name="Ccircumflex" unicode="&#x108;" horiz-adv-x="1406" 
d="M815 1716l180 -256h-106l-158 166l-158 -166h-106l182 256h166zM733 100q202 0 318 106.5t137 278.5h125q-24 -223 -174 -359t-406 -136q-134 0 -248.5 49.5t-196.5 140t-128.5 224t-46.5 294.5q0 158 47 292t129.5 225.5t196.5 142.5t247 51q253 0 405 -139t175 -363
h-125q-21 174 -138 282.5t-317 108.5q-214 0 -354.5 -165t-140.5 -435q0 -273 140 -435.5t355 -162.5z" />
    <glyph glyph-name="ccircumflex" unicode="&#x109;" horiz-adv-x="1081" 
d="M303 1157l195 313h145l195 -313h-109l-158 215l-159 -215h-109zM563 -14q-217 0 -340 138.5t-123 369.5q0 228 129.5 370t339.5 142q181 0 294 -100t132 -265h-133q-16 112 -93 185t-200 73q-155 0 -248.5 -110t-93.5 -293q0 -185 91 -293.5t249 -108.5q124 0 201.5 71
t93.5 181h133q-22 -163 -136 -261.5t-296 -98.5z" />
    <glyph glyph-name="Cdotaccent" unicode="&#x10a;" horiz-adv-x="1406" 
d="M731 1679q43 0 70.5 -27.5t27.5 -70.5q0 -41 -27.5 -67.5t-70.5 -26.5q-44 0 -71 26t-27 68q0 43 27 70.5t71 27.5zM733 100q202 0 318 106.5t137 278.5h125q-24 -223 -174 -359t-406 -136q-134 0 -248.5 49.5t-196.5 140t-128.5 224t-46.5 294.5q0 158 47 292
t129.5 225.5t196.5 142.5t247 51q253 0 405 -139t175 -363h-125q-21 174 -138 282.5t-317 108.5q-214 0 -354.5 -165t-140.5 -435q0 -273 140 -435.5t355 -162.5z" />
    <glyph glyph-name="cdotaccent" unicode="&#x10b;" horiz-adv-x="1081" 
d="M569 1421q44 0 71.5 -26.5t27.5 -69.5t-27.5 -69.5t-71.5 -26.5t-71 26.5t-27 69.5t27 69.5t71 26.5zM563 -14q-217 0 -340 138.5t-123 369.5q0 228 129.5 370t339.5 142q181 0 294 -100t132 -265h-133q-16 112 -93 185t-200 73q-155 0 -248.5 -110t-93.5 -293
q0 -185 91 -293.5t249 -108.5q124 0 201.5 71t93.5 181h133q-22 -163 -136 -261.5t-296 -98.5z" />
    <glyph glyph-name="Ccaron" unicode="&#x10c;" horiz-adv-x="1406" 
d="M817 1460h-166l-182 256h106l158 -168l158 168h106zM733 100q202 0 318 106.5t137 278.5h125q-24 -223 -174 -359t-406 -136q-134 0 -248.5 49.5t-196.5 140t-128.5 224t-46.5 294.5q0 158 47 292t129.5 225.5t196.5 142.5t247 51q253 0 405 -139t175 -363h-125
q-21 174 -138 282.5t-317 108.5q-214 0 -354.5 -165t-140.5 -435q0 -273 140 -435.5t355 -162.5z" />
    <glyph glyph-name="ccaron" unicode="&#x10d;" horiz-adv-x="1081" 
d="M305 1470h109l157 -215l158 215h109l-193 -313h-145zM563 -14q-217 0 -340 138.5t-123 369.5q0 228 129.5 370t339.5 142q181 0 294 -100t132 -265h-133q-16 112 -93 185t-200 73q-155 0 -248.5 -110t-93.5 -293q0 -185 91 -293.5t249 -108.5q124 0 201.5 71t93.5 181
h133q-22 -163 -136 -261.5t-296 -98.5z" />
    <glyph glyph-name="Dcaron" unicode="&#x10e;" horiz-adv-x="1449" 
d="M776 1477h-166l-182 256h107l157 -168l158 168h106zM696 1397q140 0 258 -48t203.5 -136.5t133.5 -221t48 -293.5q0 -323 -178.5 -510.5t-464.5 -187.5h-497v1397h497zM696 111q229 0 372.5 157.5t143.5 429.5t-143.5 430t-372.5 158h-372v-1175h372z" />
    <glyph glyph-name="dcaron" unicode="&#x10f;" horiz-adv-x="1218" 
d="M1251 1503q99 0 99 -133q0 -120 -57 -190t-126 -68v72q36 0 63 34.5t27 92.5q-45 0 -73.5 27.5t-28.5 70.5q0 42 28.5 68t67.5 26zM915 803v641h123v-1444h-120l-3 195q-47 -95 -138.5 -150t-217.5 -55q-207 0 -333 138.5t-126 367.5q0 228 128.5 369t334.5 141
q125 0 214.5 -54.5t137.5 -148.5zM567 98q154 0 251 108t97 257v72q0 94 -40.5 176.5t-120.5 135t-183 52.5q-155 0 -249.5 -111.5t-94.5 -291.5q0 -182 92.5 -290t247.5 -108z" />
    <glyph glyph-name="Dcroat" unicode="&#x110;" horiz-adv-x="1472" 
d="M717 1397q140 0 258 -48t203.5 -136.5t133.5 -221t48 -293.5q0 -323 -178.5 -510.5t-464.5 -187.5h-498v643h-168v105h168v649h498zM717 111q229 0 372.5 157.5t143.5 429.5t-143.5 430t-372.5 158h-373v-538h379v-105h-379v-532h373z" />
    <glyph glyph-name="dcroat" unicode="&#x111;" horiz-adv-x="1202" 
d="M1157 1284v-92h-119v-1192h-120l-3 203q-49 -97 -144 -155t-222 -58q-200 0 -324.5 136t-124.5 361q0 229 128 374t333 145q127 0 217 -53.5t137 -147.5v387h-299v92h299v160h123v-160h119zM561 98q156 0 255 109t99 254v74q0 148 -96 256t-252 108q-152 0 -246 -114
t-94 -296q0 -179 92 -285t242 -106z" />
    <glyph glyph-name="Emacron" unicode="&#x112;" horiz-adv-x="1222" 
d="M924 1655v-101h-529v101h529zM324 113h792v-113h-917v1397h911v-113h-786v-500h723v-112h-723v-559z" />
    <glyph glyph-name="emacron" unicode="&#x113;" horiz-adv-x="1110" 
d="M838 1370v-98h-531v98h531zM1012 502v-35h-785q8 -171 100.5 -270t245.5 -99q134 0 213.5 63t94.5 154h125q-24 -142 -138.5 -233.5t-298.5 -91.5q-219 0 -344 138t-125 366q0 227 130.5 369.5t336.5 142.5q205 0 325 -136t120 -368zM569 899q-139 0 -230 -90.5
t-108 -247.5h656q-12 163 -95.5 250.5t-222.5 87.5z" />
    <glyph glyph-name="Ebreve" unicode="&#x114;" horiz-adv-x="1222" 
d="M659 1481q-118 0 -179.5 69t-61.5 187h106q0 -77 34.5 -117t100.5 -39q64 0 99 40.5t35 115.5h108q0 -116 -62.5 -186t-179.5 -70zM324 113h792v-113h-917v1397h911v-113h-786v-500h723v-112h-723v-559z" />
    <glyph glyph-name="ebreve" unicode="&#x115;" horiz-adv-x="1110" 
d="M567 1153q-124 0 -193 79.5t-69 223.5h105q0 -107 42.5 -157t114.5 -50q156 3 156 207h106q0 -142 -69.5 -222.5t-192.5 -80.5zM1012 502v-35h-785q8 -171 100.5 -270t245.5 -99q134 0 213.5 63t94.5 154h125q-24 -142 -138.5 -233.5t-298.5 -91.5q-219 0 -344 138
t-125 366q0 227 130.5 369.5t336.5 142.5q205 0 325 -136t120 -368zM569 899q-139 0 -230 -90.5t-108 -247.5h656q-12 163 -95.5 250.5t-222.5 87.5z" />
    <glyph glyph-name="Edotaccent" unicode="&#x116;" horiz-adv-x="1222" 
d="M657 1507q-44 0 -71 26.5t-27 68.5q0 43 27 70.5t71 27.5q43 0 71 -27.5t28 -70.5q0 -41 -28 -68t-71 -27zM324 113h792v-113h-917v1397h911v-113h-786v-500h723v-112h-723v-559z" />
    <glyph glyph-name="edotaccent" unicode="&#x117;" horiz-adv-x="1110" 
d="M569 1229q-44 0 -71 26.5t-27 69.5t27 69.5t71 26.5t71.5 -26.5t27.5 -69.5t-27.5 -69.5t-71.5 -26.5zM1012 502v-35h-785q8 -171 100.5 -270t245.5 -99q134 0 213.5 63t94.5 154h125q-24 -142 -138.5 -233.5t-298.5 -91.5q-219 0 -344 138t-125 366q0 227 130.5 369.5
t336.5 142.5q205 0 325 -136t120 -368zM569 899q-139 0 -230 -90.5t-108 -247.5h656q-12 163 -95.5 250.5t-222.5 87.5z" />
    <glyph glyph-name="Eogonek" unicode="&#x118;" horiz-adv-x="1222" 
d="M1151 -283l37 -71q-49 -52 -150 -52q-84 0 -135 45.5t-51 127.5q0 131 137 233h-790v1397h911v-113h-786v-500h723v-112h-723v-559h792v-113q-7 -4 -18 -10.5t-39.5 -29t-50.5 -46t-40 -60t-18 -73.5q0 -48 28 -73t69 -25q57 0 104 34z" />
    <glyph glyph-name="eogonek" unicode="&#x119;" horiz-adv-x="1110" 
d="M1012 502v-35h-785q8 -171 100.5 -270t245.5 -99q134 0 213.5 63t94.5 154h125q-29 -182 -197 -272q-7 -4 -18 -10.5t-39.5 -29t-50.5 -46t-40 -60t-18 -73.5q0 -48 27.5 -73t68.5 -25q58 0 105 34l37 -71q-48 -51 -150 -51q-84 0 -135 45.5t-51 126.5q0 100 78 182
q-16 -2 -54 -2q-219 0 -344 138t-125 366q0 227 130.5 369.5t336.5 142.5q205 0 325 -136t120 -368zM569 899q-139 0 -230 -90.5t-108 -247.5h656q-12 163 -95.5 250.5t-222.5 87.5z" />
    <glyph glyph-name="Ecaron" unicode="&#x11a;" horiz-adv-x="1222" 
d="M743 1481h-165l-183 256h107l157 -168l158 168h107zM324 113h792v-113h-917v1397h911v-113h-786v-500h723v-112h-723v-559z" />
    <glyph glyph-name="ecaron" unicode="&#x11b;" horiz-adv-x="1110" 
d="M643 1157h-145l-195 313h109l157 -215l158 215h109zM1012 502v-35h-785q8 -171 100.5 -270t245.5 -99q134 0 213.5 63t94.5 154h125q-24 -142 -138.5 -233.5t-298.5 -91.5q-219 0 -344 138t-125 366q0 227 130.5 369.5t336.5 142.5q205 0 325 -136t120 -368zM569 899
q-139 0 -230 -90.5t-108 -247.5h656q-12 163 -95.5 250.5t-222.5 87.5z" />
    <glyph glyph-name="Gcircumflex" unicode="&#x11c;" horiz-adv-x="1466" 
d="M754 1647l-158 -166h-107l183 256h166l180 -256h-107zM745 709h588v-709h-96v287q-63 -136 -190.5 -216.5t-309.5 -80.5q-282 0 -453 190t-171 522q0 318 178.5 512.5t468.5 194.5q252 0 398 -130t169 -339h-127q-22 158 -131.5 258t-308.5 100q-235 0 -378.5 -164
t-143.5 -432q0 -282 138 -442t361 -160q112 0 206.5 38.5t156 102.5t95.5 144.5t34 165.5v51h-484v107z" />
    <glyph glyph-name="gcircumflex" unicode="&#x11d;" horiz-adv-x="1191" 
d="M600 1372l-160 -215h-108l194 313h146l194 -313h-108zM911 995h117v-1007q0 -193 -122 -305.5t-339 -112.5q-195 0 -304 78t-126 229h123q15 -102 90.5 -150.5t214.5 -48.5q162 0 251 83t89 227v205q-47 -94 -136.5 -148.5t-211.5 -54.5q-204 0 -330.5 140t-126.5 370
q0 229 126.5 367.5t330.5 138.5q124 0 213.5 -54.5t136.5 -150.5zM563 98q101 0 180.5 52t120.5 134.5t41 178.5v72q0 146 -95.5 255t-246.5 109q-152 0 -244 -108.5t-92 -290.5q0 -184 92 -293t244 -109z" />
    <glyph glyph-name="Gbreve" unicode="&#x11e;" horiz-adv-x="1466" 
d="M756 1481q-118 0 -180 69t-62 187h107q0 -77 34.5 -117t100.5 -39q64 0 98.5 40.5t34.5 115.5h108q0 -116 -62 -186t-179 -70zM745 709h588v-709h-96v287q-63 -136 -190.5 -216.5t-309.5 -80.5q-282 0 -453 190t-171 522q0 318 178.5 512.5t468.5 194.5q252 0 398 -130
t169 -339h-127q-22 158 -131.5 258t-308.5 100q-235 0 -378.5 -164t-143.5 -432q0 -282 138 -442t361 -160q112 0 206.5 38.5t156 102.5t95.5 144.5t34 165.5v51h-484v107z" />
    <glyph glyph-name="gbreve" unicode="&#x11f;" horiz-adv-x="1191" 
d="M598 1153q-124 0 -193 79.5t-69 223.5h104q0 -107 43 -157t115 -50q156 3 156 207h106q0 -142 -69.5 -222.5t-192.5 -80.5zM911 995h117v-1007q0 -193 -122 -305.5t-339 -112.5q-195 0 -304 78t-126 229h123q15 -102 90.5 -150.5t214.5 -48.5q162 0 251 83t89 227v205
q-47 -94 -136.5 -148.5t-211.5 -54.5q-204 0 -330.5 140t-126.5 370q0 229 126.5 367.5t330.5 138.5q124 0 213.5 -54.5t136.5 -150.5zM563 98q101 0 180.5 52t120.5 134.5t41 178.5v72q0 146 -95.5 255t-246.5 109q-152 0 -244 -108.5t-92 -290.5q0 -184 92 -293t244 -109z
" />
    <glyph glyph-name="Gdotaccent" unicode="&#x120;" horiz-adv-x="1466" 
d="M754 1507q-44 0 -71.5 26.5t-27.5 68.5q0 43 27.5 70.5t71.5 27.5q43 0 70.5 -27.5t27.5 -70.5q0 -41 -27.5 -68t-70.5 -27zM745 709h588v-709h-96v287q-63 -136 -190.5 -216.5t-309.5 -80.5q-282 0 -453 190t-171 522q0 318 178.5 512.5t468.5 194.5q252 0 398 -130
t169 -339h-127q-22 158 -131.5 258t-308.5 100q-235 0 -378.5 -164t-143.5 -432q0 -282 138 -442t361 -160q112 0 206.5 38.5t156 102.5t95.5 144.5t34 165.5v51h-484v107z" />
    <glyph glyph-name="gdotaccent" unicode="&#x121;" horiz-adv-x="1191" 
d="M598 1229q-44 0 -71 26.5t-27 69.5t27 69.5t71 26.5t71 -26.5t27 -69.5t-27 -69.5t-71 -26.5zM911 995h117v-1007q0 -193 -122 -305.5t-339 -112.5q-195 0 -304 78t-126 229h123q15 -102 90.5 -150.5t214.5 -48.5q162 0 251 83t89 227v205q-47 -94 -136.5 -148.5
t-211.5 -54.5q-204 0 -330.5 140t-126.5 370q0 229 126.5 367.5t330.5 138.5q124 0 213.5 -54.5t136.5 -150.5zM563 98q101 0 180.5 52t120.5 134.5t41 178.5v72q0 146 -95.5 255t-246.5 109q-152 0 -244 -108.5t-92 -290.5q0 -184 92 -293t244 -109z" />
    <glyph glyph-name="Gcommaaccent" unicode="&#x122;" horiz-adv-x="1466" 
d="M745 709h588v-709h-96v287q-63 -136 -190.5 -216.5t-309.5 -80.5q-282 0 -453 190t-171 522q0 318 178.5 512.5t468.5 194.5q252 0 398 -130t169 -339h-127q-22 158 -131.5 258t-308.5 100q-235 0 -378.5 -164t-143.5 -432q0 -282 138 -442t361 -160q112 0 206.5 38.5
t156 102.5t95.5 144.5t34 165.5v51h-484v107zM745 -92q99 0 99 -135q0 -113 -57.5 -182t-124.5 -66v72q35 0 62.5 32.5t27.5 85.5q-47 0 -75 28t-28 71t28 68.5t68 25.5z" />
    <glyph glyph-name="gcommaaccent" unicode="&#x123;" horiz-adv-x="1191" 
d="M582 1137q-99 0 -99 135q0 113 58 182t125 66v-72q-35 0 -63 -33t-28 -86q47 0 75 -27.5t28 -70.5t-28 -68.5t-68 -25.5zM911 995h117v-1007q0 -193 -122 -305.5t-339 -112.5q-195 0 -304 78t-126 229h123q15 -102 90.5 -150.5t214.5 -48.5q162 0 251 83t89 227v205
q-47 -94 -136.5 -148.5t-211.5 -54.5q-204 0 -330.5 140t-126.5 370q0 229 126.5 367.5t330.5 138.5q124 0 213.5 -54.5t136.5 -150.5zM563 98q101 0 180.5 52t120.5 134.5t41 178.5v72q0 146 -95.5 255t-246.5 109q-152 0 -244 -108.5t-92 -290.5q0 -184 92 -293t244 -109z
" />
    <glyph glyph-name="Hcircumflex" unicode="&#x124;" horiz-adv-x="1464" 
d="M735 1638l-157 -165h-107l182 256h166l180 -256h-106zM1141 1397h125v-1397h-125v672h-817v-672h-125v1397h125v-615h817v615z" />
    <glyph glyph-name="hcircumflex" unicode="&#x125;" horiz-adv-x="1142" 
d="M381 1507l-158 166l-157 -166h-107l182 256h166l180 -256h-106zM627 1006q169 0 266.5 -100.5t97.5 -270.5v-635h-125v608q0 135 -71 213t-197 78q-142 0 -225.5 -86.5t-83.5 -210.5v-602h-125v1444h123v-619q48 82 135 131.5t205 49.5z" />
    <glyph glyph-name="Hbar" unicode="&#x126;" horiz-adv-x="1464" 
d="M1368 1208v-104h-102v-1104h-125v672h-817v-672h-125v1104h-93v104h93v189h125v-189h817v189h125v-189h102zM1141 782v322h-817v-322h817z" />
    <glyph glyph-name="hbar" unicode="&#x127;" horiz-adv-x="1142" 
d="M627 1006q169 0 266.5 -100.5t97.5 -270.5v-635h-125v608q0 135 -71 213t-197 78q-142 0 -225.5 -86.5t-83.5 -210.5v-602h-125v1192h-121v92h121v160h123v-160h297v-92h-297v-367q48 82 135 131.5t205 49.5z" />
    <glyph glyph-name="Itilde" unicode="&#x128;" horiz-adv-x="522" 
d="M139 1618q-37 0 -59.5 -26t-22.5 -70h-98q0 95 43.5 146.5t128.5 51.5q38 0 69.5 -10.5t53 -26t41 -31t42.5 -26t48 -10.5q37 0 58.5 24t21.5 72h96q1 -95 -44.5 -147t-125.5 -52q-44 0 -82 16.5t-60 36t-51.5 36t-58.5 16.5zM199 0v1397h125v-1397h-125z" />
    <glyph glyph-name="itilde" unicode="&#x129;" horiz-adv-x="450" 
d="M88 1315q-38 0 -61.5 -27t-24.5 -74h-94q0 97 43 150t129 53q48 0 86.5 -17t60 -38t50.5 -38t59 -17q39 0 62.5 26.5t23.5 73.5h96q0 -97 -47 -150t-127 -53q-45 0 -83.5 17.5t-60 38t-51.5 38t-61 17.5zM164 0v995h125v-995h-125z" />
    <glyph glyph-name="Imacron" unicode="&#x12a;" horiz-adv-x="522" 
d="M-2 1554v101h528v-101h-528zM199 0v1397h125v-1397h-125z" />
    <glyph glyph-name="imacron" unicode="&#x12b;" horiz-adv-x="450" 
d="M-35 1272v98h531v-98h-531zM164 0v995h125v-995h-125z" />
    <glyph glyph-name="Ibreve" unicode="&#x12c;" horiz-adv-x="522" 
d="M506 1737q0 -116 -62.5 -186t-179.5 -70q-118 0 -179.5 69t-61.5 187h106q0 -77 34.5 -117t100.5 -39q64 0 98.5 40.5t34.5 115.5h109zM199 0v1397h125v-1397h-125z" />
    <glyph glyph-name="ibreve" unicode="&#x12d;" horiz-adv-x="450" 
d="M487 1456q0 -142 -69.5 -222.5t-192.5 -80.5q-124 0 -193 79.5t-69 223.5h105q0 -107 42.5 -157t114.5 -50q156 3 156 207h106zM164 0v995h125v-995h-125z" />
    <glyph glyph-name="Iogonek" unicode="&#x12e;" horiz-adv-x="522" 
d="M358 -283l37 -71q-49 -52 -149 -52q-84 0 -135.5 46t-51.5 127q0 131 140 235v1395h125v-1397q-7 -4 -18 -10.5t-39.5 -29t-50.5 -46t-40 -60t-18 -73.5q0 -48 27.5 -73t68.5 -25q57 0 104 34z" />
    <glyph glyph-name="iogonek" unicode="&#x12f;" horiz-adv-x="450" 
d="M229 1227q-40 0 -68 27.5t-28 68.5t28 68.5t68 27.5t68.5 -27.5t28.5 -68.5t-28.5 -68.5t-68.5 -27.5zM324 -283l36 -71q-49 -52 -149 -52q-84 0 -135 45.5t-51 127.5q0 131 139 235v993h125v-995q-7 -4 -18 -10.5t-39.5 -29t-50.5 -46t-40 -60t-18 -73.5q0 -48 27.5 -73
t68.5 -25q58 0 105 34z" />
    <glyph glyph-name="Idotaccent" unicode="&#x130;" horiz-adv-x="522" 
d="M262 1700q43 0 70.5 -27.5t27.5 -70.5q0 -41 -27.5 -68t-70.5 -27q-44 0 -71 26.5t-27 68.5q0 43 27 70.5t71 27.5zM199 0v1397h125v-1397h-125z" />
    <glyph glyph-name="dotlessi" unicode="&#x131;" horiz-adv-x="450" 
d="M164 0v995h125v-995h-125z" />
    <glyph glyph-name="IJ" unicode="&#x132;" horiz-adv-x="1564" 
d="M199 0v1397h125v-1397h-125zM709 410q1 -152 74.5 -230t199.5 -78q130 0 201 85t71 233v977h123v-969q0 -198 -102 -317t-293 -119q-192 0 -294.5 111t-102.5 307h123z" />
    <glyph glyph-name="ij" unicode="&#x133;" horiz-adv-x="919" 
d="M326 1323q0 -41 -28.5 -68.5t-68.5 -27.5t-68 27.5t-28 68.5t28 68.5t68 27.5t68.5 -27.5t28.5 -68.5zM797 1323q0 -41 -28.5 -68.5t-68.5 -27.5t-68 27.5t-28 68.5t28 68.5t68 27.5t68.5 -27.5t28.5 -68.5zM164 0v995h125v-995h-125zM449 -420q-86 0 -138 23l11 110
q48 -20 104 -20q100 0 154.5 57.5t54.5 165.5v1079h123v-1081q0 -158 -82.5 -246t-226.5 -88z" />
    <glyph glyph-name="Jcircumflex" unicode="&#x134;" horiz-adv-x="1032" 
d="M862 1724l180 -256h-106l-158 166l-157 -166h-107l182 256h166zM176 410q1 -151 74.5 -229.5t200.5 -78.5q130 0 201 85t71 233v977h123v-969q0 -198 -102 -317t-293 -119q-192 0 -295 111t-103 307h123z" />
    <glyph glyph-name="jcircumflex" unicode="&#x135;" horiz-adv-x="466" 
d="M-33 1157l195 313h145l195 -313h-109l-157 215l-160 -215h-109zM-6 -420q-85 0 -137 23l10 110q48 -20 104 -20q100 0 154.5 57.5t54.5 165.5v1079h123v-1081q0 -158 -82.5 -246t-226.5 -88z" />
    <glyph glyph-name="Kcommaaccent" unicode="&#x136;" horiz-adv-x="1288" 
d="M690 786l596 -786h-149l-531 694l-282 -309v-385h-125v1397h125v-854l763 854h156zM694 -92q99 0 99 -135q0 -113 -58 -182t-125 -66v72q35 0 62.5 32.5t27.5 85.5q-46 0 -74 27.5t-28 71.5q0 43 28 68.5t68 25.5z" />
    <glyph glyph-name="kcommaaccent" unicode="&#x137;" horiz-adv-x="972" 
d="M530 573l433 -573h-144l-368 487l-164 -174v-313h-123v1444h123v-965l479 516h158zM516 -92q98 0 98 -135q0 -113 -57.5 -182t-124.5 -66v72q35 0 62.5 32.5t27.5 85.5q-46 0 -74 27.5t-28 71.5q0 43 28 68.5t68 25.5z" />
    <glyph glyph-name="kgreenlandic" unicode="&#x138;" horiz-adv-x="972" 
d="M819 0l-368 487l-164 -174v-313h-123v995h123v-516l479 516h158l-394 -422l433 -573h-144z" />
    <glyph glyph-name="Lacute" unicode="&#x139;" horiz-adv-x="1118" 
d="M483 1737l-166 -256h-118l96 256h188zM324 113h768v-113h-893v1397h125v-1284z" />
    <glyph glyph-name="lacute" unicode="&#x13a;" horiz-adv-x="477" 
d="M440 1763l-166 -256h-118l96 256h188zM354 104q26 0 54 11l12 -109q-50 -16 -98 -16q-77 0 -120.5 47.5t-43.5 132.5v1274h123v-1254q0 -42 20 -64t53 -22z" />
    <glyph glyph-name="Lcommaaccent" unicode="&#x13b;" horiz-adv-x="1118" 
d="M324 113h768v-113h-893v1397h125v-1284zM659 -92q99 0 99 -135q0 -113 -58 -182t-125 -66v72q35 0 63 32.5t28 85.5q-47 0 -75 28t-28 71t28 68.5t68 25.5z" />
    <glyph glyph-name="lcommaaccent" unicode="&#x13c;" horiz-adv-x="477" 
d="M322 -10q-77 0 -120.5 47.5t-43.5 132.5v1274h123v-1254q0 -42 20 -64t53 -22q26 0 54 11l12 -109q-50 -16 -98 -16zM276 -92q99 0 99 -135q0 -113 -57.5 -182t-124.5 -66v72q35 0 62.5 32.5t27.5 85.5q-47 0 -75 28t-28 71t28 68.5t68 25.5z" />
    <glyph glyph-name="Lcaron" unicode="&#x13d;" horiz-adv-x="1122" 
d="M827 1243q-46 0 -74 27t-28 69q0 44 28 69.5t68 25.5q99 0 99 -134q0 -113 -58 -181.5t-125 -65.5v71q36 0 63 33t27 86zM324 113h768v-113h-893v1397h125v-1284z" />
    <glyph glyph-name="lcaron" unicode="&#x13e;" horiz-adv-x="477" 
d="M485 1526q99 0 99 -133q0 -113 -58 -182t-125 -66v72q36 0 63.5 32.5t27.5 85.5q-46 0 -74.5 27.5t-28.5 69.5q0 44 28 69t68 25zM354 104q26 0 54 11l12 -109q-50 -16 -98 -16q-77 0 -120.5 47.5t-43.5 132.5v1274h123v-1254q0 -42 20 -64t53 -22z" />
    <glyph glyph-name="Ldot" unicode="&#x13f;" 
d="M324 113h768v-113h-893v1397h125v-1284zM819 604q-43 0 -70.5 26.5t-27.5 69.5t27.5 70t70.5 27q44 0 71.5 -27t27.5 -70t-27.5 -69.5t-71.5 -26.5z" />
    <glyph glyph-name="ldot" unicode="&#x140;" horiz-adv-x="571" 
d="M354 104q26 0 54 11l12 -109q-50 -16 -98 -16q-77 0 -120.5 47.5t-43.5 132.5v1274h123v-1254q0 -42 20 -64t53 -22zM512 799q44 0 71 -27t27 -70t-27 -69.5t-71 -26.5q-43 0 -70.5 26.5t-27.5 69.5t27.5 70t70.5 27z" />
    <glyph glyph-name="Lslash" unicode="&#x141;" horiz-adv-x="1167" 
d="M373 113h768v-113h-893v530l-168 -104l-51 92l219 135v744h125v-666l264 162l49 -92l-313 -195v-493z" />
    <glyph glyph-name="lslash" unicode="&#x142;" horiz-adv-x="585" 
d="M430 104q26 0 53 11l13 -109q-50 -16 -99 -16q-77 0 -120.5 47.5t-43.5 132.5v473l-139 -84l-47 84l186 113v688h123v-613l136 82l47 -84l-183 -110v-529q0 -42 20.5 -64t53.5 -22z" />
    <glyph glyph-name="Nacute" unicode="&#x143;" horiz-adv-x="1462" 
d="M963 1737l-166 -256h-119l96 256h189zM1139 1397h125v-1397h-127l-813 1202v-1202h-125v1397h127l813 -1202v1202z" />
    <glyph glyph-name="nacute" unicode="&#x144;" horiz-adv-x="1142" 
d="M786 1470l-165 -313h-103l109 313h159zM627 1006q170 0 267 -101.5t97 -283.5v-621h-125v596q0 142 -71 222.5t-199 80.5q-142 0 -225.5 -87t-83.5 -210v-602h-123v995h117l4 -172q48 83 136 133t206 50z" />
    <glyph glyph-name="Ncommaaccent" unicode="&#x145;" horiz-adv-x="1462" 
d="M1139 1397h125v-1397h-127l-813 1202v-1202h-125v1397h127l813 -1202v1202zM735 -92q99 0 99 -135q0 -113 -58 -182t-125 -66v72q35 0 62.5 32.5t27.5 85.5q-47 0 -74.5 27.5t-27.5 71.5q0 43 28 68.5t68 25.5z" />
    <glyph glyph-name="ncommaaccent" unicode="&#x146;" horiz-adv-x="1142" 
d="M627 1006q170 0 267 -101.5t97 -283.5v-621h-125v596q0 142 -71 222.5t-199 80.5q-142 0 -225.5 -87t-83.5 -210v-602h-123v995h117l4 -172q48 83 136 133t206 50zM578 -92q98 0 98 -135q0 -113 -57.5 -182t-124.5 -66v72q35 0 62.5 32.5t27.5 85.5q-47 0 -75 28t-28 71
t28.5 68.5t68.5 25.5z" />
    <glyph glyph-name="Ncaron" unicode="&#x147;" horiz-adv-x="1462" 
d="M817 1481h-166l-182 256h106l158 -168l158 168h106zM1139 1397h125v-1397h-127l-813 1202v-1202h-125v1397h127l813 -1202v1202z" />
    <glyph glyph-name="ncaron" unicode="&#x148;" horiz-adv-x="1142" 
d="M664 1157h-146l-194 313h108l158 -215l158 215h108zM627 1006q170 0 267 -101.5t97 -283.5v-621h-125v596q0 142 -71 222.5t-199 80.5q-142 0 -225.5 -87t-83.5 -210v-602h-123v995h117l4 -172q48 83 136 133t206 50z" />
    <glyph glyph-name="napostrophe" unicode="&#x149;" horiz-adv-x="1247" 
d="M166 1438q98 0 98 -133q0 -113 -57.5 -182t-124.5 -66v71q36 0 63 33t27 86q-46 0 -74 27t-28 69q0 44 28 69.5t68 25.5zM731 1006q170 0 267.5 -101.5t97.5 -283.5v-621h-125v596q0 142 -71.5 222.5t-199.5 80.5q-142 0 -225.5 -87t-83.5 -210v-602h-123v995h117l4 -172
q48 83 136 133t206 50z" />
    <glyph glyph-name="Eng" unicode="&#x14a;" horiz-adv-x="1462" 
d="M1139 1397h125v-1483q0 -158 -83.5 -246t-226.5 -88q-85 0 -137 23l10 110q48 -20 105 -20q97 0 151 55.5t54 155.5v96l-813 1202v-1202h-125v1397h127l813 -1202v1202z" />
    <glyph glyph-name="eng" unicode="&#x14b;" horiz-adv-x="1142" 
d="M627 1006q170 0 267 -101.5t97 -283.5v-707q0 -158 -82.5 -246t-226.5 -88q-81 0 -137 23l10 110q48 -20 104 -20q100 0 153.5 57.5t53.5 165.5v680q0 142 -71 222.5t-199 80.5q-142 0 -225.5 -87t-83.5 -210v-602h-123v995h117l4 -172q48 83 136 133t206 50z" />
    <glyph glyph-name="Omacron" unicode="&#x14c;" horiz-adv-x="1538" 
d="M506 1554v101h528v-101h-528zM770 -10q-140 0 -260.5 48t-209 137t-139 222.5t-50.5 296.5t50.5 298.5t139 226t209 140.5t260.5 50t260.5 -48.5t209 -137.5t139 -223t51.5 -298q-1 -162 -51.5 -297t-139 -225.5t-209 -140t-260.5 -49.5zM770 100q230 0 381.5 162.5
t151.5 435.5q0 138 -41 251.5t-113 189.5t-169.5 117.5t-209.5 41.5t-209.5 -41.5t-169.5 -117.5t-113.5 -189.5t-41.5 -251.5q0 -137 41.5 -250.5t113.5 -189t169.5 -117t209.5 -41.5z" />
    <glyph glyph-name="omacron" unicode="&#x14d;" horiz-adv-x="1157" 
d="M317 1272v98h531v-98h-531zM578 1006q216 0 347.5 -139t131.5 -367t-131.5 -369t-347.5 -141q-214 0 -346 137.5t-132 364.5q0 228 132.5 371t345.5 143zM578 899q-157 0 -254 -111.5t-97 -291.5q0 -178 97 -288t254 -110q159 0 255.5 109.5t96.5 288.5q0 181 -96.5 292
t-255.5 111z" />
    <glyph glyph-name="Obreve" unicode="&#x14e;" horiz-adv-x="1538" 
d="M1012 1737q0 -116 -62.5 -186t-179.5 -70q-118 0 -180 69t-62 187h107q0 -77 34.5 -117t100.5 -39q64 0 98.5 40.5t34.5 115.5h109zM770 -10q-140 0 -260.5 48t-209 137t-139 222.5t-50.5 296.5t50.5 298.5t139 226t209 140.5t260.5 50t260.5 -48.5t209 -137.5t139 -223
t51.5 -298q-1 -162 -51.5 -297t-139 -225.5t-209 -140t-260.5 -49.5zM770 100q230 0 381.5 162.5t151.5 435.5q0 138 -41 251.5t-113 189.5t-169.5 117.5t-209.5 41.5t-209.5 -41.5t-169.5 -117.5t-113.5 -189.5t-41.5 -251.5q0 -137 41.5 -250.5t113.5 -189t169.5 -117
t209.5 -41.5z" />
    <glyph glyph-name="obreve" unicode="&#x14f;" horiz-adv-x="1157" 
d="M840 1456q0 -142 -69.5 -222.5t-192.5 -80.5q-124 0 -193.5 79.5t-69.5 223.5h105q0 -107 43 -157t115 -50q155 3 155 207h107zM578 1006q216 0 347.5 -139t131.5 -367t-131.5 -369t-347.5 -141q-214 0 -346 137.5t-132 364.5q0 228 132.5 371t345.5 143zM578 899
q-157 0 -254 -111.5t-97 -291.5q0 -178 97 -288t254 -110q159 0 255.5 109.5t96.5 288.5q0 181 -96.5 292t-255.5 111z" />
    <glyph glyph-name="Ohungarumlaut" unicode="&#x150;" horiz-adv-x="1538" 
d="M633 1481h-107l119 256h168zM905 1481h-104l119 256h165zM770 -10q-140 0 -260.5 48t-209 137t-139 222.5t-50.5 296.5t50.5 298.5t139 226t209 140.5t260.5 50t260.5 -48.5t209 -137.5t139 -223t51.5 -298q-1 -162 -51.5 -297t-139 -225.5t-209 -140t-260.5 -49.5z
M770 100q230 0 381.5 162.5t151.5 435.5q0 138 -41 251.5t-113 189.5t-169.5 117.5t-209.5 41.5t-209.5 -41.5t-169.5 -117.5t-113.5 -189.5t-41.5 -251.5q0 -137 41.5 -250.5t113.5 -189t169.5 -117t209.5 -41.5z" />
    <glyph glyph-name="ohungarumlaut" unicode="&#x151;" horiz-adv-x="1157" 
d="M477 1157h-98l96 313h168zM764 1157h-98l96 313h168zM578 1006q216 0 347.5 -139t131.5 -367t-131.5 -369t-347.5 -141q-214 0 -346 137.5t-132 364.5q0 228 132.5 371t345.5 143zM578 899q-157 0 -254 -111.5t-97 -291.5q0 -178 97 -288t254 -110q159 0 255.5 109.5
t96.5 288.5q0 181 -96.5 292t-255.5 111z" />
    <glyph glyph-name="OE" unicode="&#x152;" horiz-adv-x="2330" 
d="M1434 113h792v-113h-917v268q-89 -134 -229 -206t-310 -72q-140 0 -260.5 48t-209 137t-139 222.5t-50.5 296.5t50.5 298.5t139 226t209 140.5t260.5 50q171 0 310.5 -70t228.5 -202v260h911v-113h-786v-500h723v-112h-723v-559zM770 100q230 0 381.5 162.5t151.5 435.5
q0 138 -41 251.5t-113 189.5t-169.5 117.5t-209.5 41.5t-209.5 -41.5t-169.5 -117.5t-113.5 -189.5t-41.5 -251.5q0 -137 41.5 -250.5t113.5 -189t169.5 -117t209.5 -41.5z" />
    <glyph glyph-name="oe" unicode="&#x153;" horiz-adv-x="1939" 
d="M1841 502v-35h-784q8 -171 100.5 -270t245.5 -99q134 0 213 63t94 154h125q-25 -142 -138.5 -233.5t-297.5 -91.5q-143 0 -247.5 60.5t-162.5 170.5q-59 -110 -166 -170.5t-245 -60.5q-214 0 -346 137.5t-132 364.5q0 228 132.5 371t345.5 143q141 0 248.5 -62
t168.5 -174q59 111 164 173.5t238 62.5q205 0 324.5 -136t119.5 -368zM578 98q159 0 255.5 109.5t96.5 288.5q0 181 -96.5 292t-255.5 111q-157 0 -254 -111.5t-97 -291.5q0 -178 97 -288t254 -110zM1399 899q-139 0 -230 -90.5t-108 -247.5h655q-12 163 -95 250.5
t-222 87.5z" />
    <glyph glyph-name="Racute" unicode="&#x154;" horiz-adv-x="1302" 
d="M846 1737l-166 -256h-119l96 256h189zM1253 115l13 -111q-54 -14 -97 -14q-98 0 -156 45.5t-112 150.5l-203 402h-374v-588h-125v1397h508q92 0 170 -25t138.5 -74t95 -128t34.5 -181q0 -159 -82.5 -257t-220.5 -130l196 -395q53 -103 144 -103q44 0 71 11zM324 1286
v-594h383q139 0 225 78t86 219q0 142 -85.5 219.5t-225.5 77.5h-383z" />
    <glyph glyph-name="racute" unicode="&#x155;" horiz-adv-x="657" 
d="M578 1470l-166 -313h-103l109 313h160zM561 1006q20 0 55 -7v-120q-12 6 -63 6q-116 0 -191 -105.5t-75 -238.5v-541h-123v995h117l4 -198q37 93 106.5 151t169.5 58z" />
    <glyph glyph-name="Rcommaaccent" unicode="&#x156;" horiz-adv-x="1302" 
d="M1253 115l13 -111q-54 -14 -97 -14q-98 0 -156 45.5t-112 150.5l-203 402h-374v-588h-125v1397h508q92 0 170 -25t138.5 -74t95 -128t34.5 -181q0 -159 -82.5 -257t-220.5 -130l196 -395q53 -103 144 -103q44 0 71 11zM324 1286v-594h383q139 0 225 78t86 219
q0 142 -85.5 219.5t-225.5 77.5h-383zM670 -92q98 0 98 -135q0 -113 -57.5 -182t-124.5 -66v72q35 0 62.5 32.5t27.5 85.5q-47 0 -75 28t-28 71t28.5 68.5t68.5 25.5z" />
    <glyph glyph-name="rcommaaccent" unicode="&#x157;" horiz-adv-x="657" 
d="M561 1006q20 0 55 -7v-120q-12 6 -63 6q-116 0 -191 -105.5t-75 -238.5v-541h-123v995h117l4 -198q37 93 106.5 151t169.5 58zM233 -92q99 0 99 -135q0 -113 -57.5 -182t-124.5 -66v72q35 0 62.5 32.5t27.5 85.5q-47 0 -75 28t-28 71t28 68.5t68 25.5z" />
    <glyph glyph-name="Rcaron" unicode="&#x158;" horiz-adv-x="1302" 
d="M700 1481h-165l-183 256h107l157 -168l158 168h107zM1253 115l13 -111q-54 -14 -97 -14q-98 0 -156 45.5t-112 150.5l-203 402h-374v-588h-125v1397h508q92 0 170 -25t138.5 -74t95 -128t34.5 -181q0 -159 -82.5 -257t-220.5 -130l196 -395q53 -103 144 -103q44 0 71 11z
M324 1286v-594h383q139 0 225 78t86 219q0 142 -85.5 219.5t-225.5 77.5h-383z" />
    <glyph glyph-name="rcaron" unicode="&#x159;" horiz-adv-x="657" 
d="M455 1157h-146l-194 313h108l158 -215l158 215h108zM285 797q37 93 106.5 151t169.5 58q20 0 55 -7v-120q-12 6 -63 6q-116 0 -191 -105.5t-75 -238.5v-541h-123v995h117z" />
    <glyph glyph-name="Sacute" unicode="&#x15a;" horiz-adv-x="1212" 
d="M844 1729l-166 -256h-119l96 256h189zM262 1044q0 -67 29 -115.5t77.5 -76t112 -46.5t133.5 -34t140 -32t133.5 -45.5t112 -69t77.5 -109t29 -160.5q0 -167 -139.5 -266.5t-358.5 -99.5q-234 0 -374 106.5t-140 300.5h125q-2 -138 104.5 -217.5t292.5 -79.5
q167 0 266 68.5t99 187.5q0 71 -29 121.5t-77.5 80t-112 50t-133.5 36t-140 32t-133.5 43.5t-112 65.5t-77.5 104t-29 153.5q-1 169 131.5 268t345.5 99q216 0 342.5 -103t126.5 -288h-122q0 140 -95 210t-256 70q-166 0 -257 -65.5t-91 -188.5z" />
    <glyph glyph-name="sacute" unicode="&#x15b;" horiz-adv-x="950" 
d="M678 1470l-166 -313h-102l108 313h160zM242 735q0 -48 26 -81.5t69 -50t98 -31t112 -24t112 -30t98 -49t69 -81t26 -124.5q0 -125 -103 -199.5t-276 -74.5q-184 0 -282.5 76.5t-100.5 218.5h115q5 -89 73 -138t195 -49q122 0 189 44.5t67 121.5q0 56 -33.5 93t-87.5 55.5
t-119 32t-130 31.5t-119 45.5t-87.5 81.5t-33.5 132q0 124 99 197.5t265 73.5q165 0 257.5 -75.5t95.5 -213.5h-115q-4 89 -68.5 135.5t-171.5 46.5q-111 0 -175 -43.5t-64 -120.5z" />
    <glyph glyph-name="Scircumflex" unicode="&#x15c;" horiz-adv-x="1212" 
d="M614 1638l-157 -165h-107l182 256h166l181 -256h-107zM262 1044q0 -67 29 -115.5t77.5 -76t112 -46.5t133.5 -34t140 -32t133.5 -45.5t112 -69t77.5 -109t29 -160.5q0 -167 -139.5 -266.5t-358.5 -99.5q-234 0 -374 106.5t-140 300.5h125q-2 -138 104.5 -217.5
t292.5 -79.5q167 0 266 68.5t99 187.5q0 71 -29 121.5t-77.5 80t-112 50t-133.5 36t-140 32t-133.5 43.5t-112 65.5t-77.5 104t-29 153.5q-1 169 131.5 268t345.5 99q216 0 342.5 -103t126.5 -288h-122q0 140 -95 210t-256 70q-166 0 -257 -65.5t-91 -188.5z" />
    <glyph glyph-name="scircumflex" unicode="&#x15d;" horiz-adv-x="950" 
d="M483 1372l-159 -215h-109l195 313h145l195 -313h-109zM242 735q0 -48 26 -81.5t69 -50t98 -31t112 -24t112 -30t98 -49t69 -81t26 -124.5q0 -125 -103 -199.5t-276 -74.5q-184 0 -282.5 76.5t-100.5 218.5h115q5 -89 73 -138t195 -49q122 0 189 44.5t67 121.5
q0 56 -33.5 93t-87.5 55.5t-119 32t-130 31.5t-119 45.5t-87.5 81.5t-33.5 132q0 124 99 197.5t265 73.5q165 0 257.5 -75.5t95.5 -213.5h-115q-4 89 -68.5 135.5t-171.5 46.5q-111 0 -175 -43.5t-64 -120.5z" />
    <glyph glyph-name="Scedilla" unicode="&#x15e;" horiz-adv-x="1212" 
d="M1106 356q0 -163 -132.5 -261.5t-342.5 -104.5l-17 -78q70 -5 116 -41.5t46 -108.5q0 -76 -54.5 -120.5t-154.5 -44.5q-65 0 -114 18l18 88q43 -18 100 -18q55 0 84 20t29 53q0 84 -164 84l31 150q-209 12 -333 117.5t-124 287.5h125q-2 -138 104.5 -217.5t292.5 -79.5
q167 0 266 68.5t99 187.5q0 71 -29 121.5t-77.5 80t-112 50t-133.5 36t-140 32t-133.5 43.5t-112 65.5t-77.5 104t-29 153.5q-1 169 131.5 268t345.5 99q216 0 342.5 -103t126.5 -288h-122q0 140 -95 210t-256 70q-166 0 -257 -65.5t-91 -188.5q0 -67 29 -115.5t77.5 -76
t112 -46.5t133.5 -34t140 -32t133.5 -45.5t112 -69t77.5 -109t29 -160.5z" />
    <glyph glyph-name="scedilla" unicode="&#x15f;" horiz-adv-x="950" 
d="M852 264q0 -120 -94 -193t-256 -81l-17 -78q70 -5 116 -41.5t46 -108.5q0 -76 -54.5 -120.5t-154.5 -44.5q-64 0 -114 18l18 88q44 -18 100 -18q55 0 84 20t29 53q0 84 -164 84l31 150q-159 10 -244.5 86t-87.5 207h115q5 -89 73 -138t195 -49q122 0 189 44.5t67 121.5
q0 56 -33.5 93t-87.5 55.5t-119 32t-130 31.5t-119 45.5t-87.5 81.5t-33.5 132q0 124 99 197.5t265 73.5q165 0 257.5 -75.5t95.5 -213.5h-115q-4 89 -68.5 135.5t-171.5 46.5q-111 0 -175 -43.5t-64 -120.5q0 -48 26 -81.5t69 -50t98 -31t112 -24t112 -30t98 -49t69 -81
t26 -124.5z" />
    <glyph glyph-name="Scaron" unicode="&#x160;" horiz-adv-x="1212" 
d="M698 1473h-166l-182 256h107l157 -168l158 168h107zM262 1044q0 -67 29 -115.5t77.5 -76t112 -46.5t133.5 -34t140 -32t133.5 -45.5t112 -69t77.5 -109t29 -160.5q0 -167 -139.5 -266.5t-358.5 -99.5q-234 0 -374 106.5t-140 300.5h125q-2 -138 104.5 -217.5t292.5 -79.5
q167 0 266 68.5t99 187.5q0 71 -29 121.5t-77.5 80t-112 50t-133.5 36t-140 32t-133.5 43.5t-112 65.5t-77.5 104t-29 153.5q-1 169 131.5 268t345.5 99q216 0 342.5 -103t126.5 -288h-122q0 140 -95 210t-256 70q-166 0 -257 -65.5t-91 -188.5z" />
    <glyph glyph-name="scaron" unicode="&#x161;" horiz-adv-x="950" 
d="M557 1157h-145l-195 313h109l157 -215l158 215h109zM242 735q0 -48 26 -81.5t69 -50t98 -31t112 -24t112 -30t98 -49t69 -81t26 -124.5q0 -125 -103 -199.5t-276 -74.5q-184 0 -282.5 76.5t-100.5 218.5h115q5 -89 73 -138t195 -49q122 0 189 44.5t67 121.5
q0 56 -33.5 93t-87.5 55.5t-119 32t-130 31.5t-119 45.5t-87.5 81.5t-33.5 132q0 124 99 197.5t265 73.5q165 0 257.5 -75.5t95.5 -213.5h-115q-4 89 -68.5 135.5t-171.5 46.5q-111 0 -175 -43.5t-64 -120.5z" />
    <glyph glyph-name="uni0162" unicode="&#x162;" 
d="M623 0h-25l-18 -88q69 -5 115 -41.5t46 -108.5q0 -76 -54.5 -120.5t-154.5 -44.5q-64 0 -114 18l18 88q44 -18 101 -18q55 0 83.5 20t28.5 53q0 84 -164 84l33 158h-20v1284h-471v113h1067v-113h-471v-1284z" />
    <glyph glyph-name="uni0163" unicode="&#x163;" horiz-adv-x="722" 
d="M461 -88q70 -5 116 -41.5t46 -108.5q0 -76 -54.5 -120.5t-154.5 -44.5q-66 0 -115 18l18 88q44 -18 101 -18q55 0 83.5 20t28.5 53q0 84 -163 84l34 166q-97 31 -147.5 107.5t-50.5 193.5v578h-156v108h162v303h117v-303h346v-104h-346v-582q0 -102 52.5 -156.5
t170.5 -54.5q72 0 141 29l6 -109q-58 -28 -159 -28q-20 0 -60 4z" />
    <glyph glyph-name="Tcaron" unicode="&#x164;" 
d="M647 1481h-166l-182 256h107l157 -168l158 168h106zM498 0v1284h-471v113h1067v-113h-471v-1284h-125z" />
    <glyph glyph-name="tcaron" unicode="&#x165;" horiz-adv-x="722" 
d="M584 1313q-47 -1 -75 26t-28 70t28.5 68.5t68.5 25.5q42 0 70 -33.5t28 -103.5q0 -106 -57 -165t-127 -56v69q37 0 64.5 25.5t27.5 73.5zM690 127l6 -109q-58 -28 -159 -28q-160 0 -247 83.5t-87 235.5v578h-156v108h162v303h117v-303h346v-104h-346v-582
q0 -102 52.5 -156.5t170.5 -54.5q72 0 141 29z" />
    <glyph glyph-name="Tbar" unicode="&#x166;" horiz-adv-x="1142" 
d="M1106 1284h-471v-491h272v-105h-272v-688h-125v688h-274v105h274v491h-471v113h1067v-113z" />
    <glyph glyph-name="tbar" unicode="&#x167;" horiz-adv-x="727" 
d="M694 127l6 -109q-58 -28 -159 -28q-160 0 -247 83.5t-87 235.5v213h-127v92h127v273h-156v108h162v303h117v-303h346v-104h-346v-277h305v-92h-305v-213q0 -102 52.5 -156.5t170.5 -54.5q72 0 141 29z" />
    <glyph glyph-name="Utilde" unicode="&#x168;" horiz-adv-x="1427" 
d="M590 1618q-37 0 -59.5 -26t-22.5 -70h-98q0 95 43.5 146.5t128.5 51.5q38 0 69.5 -10.5t53 -26t41 -31t42.5 -26t48 -10.5q37 0 58 24t21 72h97q1 -95 -44.5 -147t-125.5 -52q-44 0 -82 16.5t-60 36t-51.5 36t-58.5 16.5zM1118 1397h125v-852q0 -264 -139 -409.5
t-391 -145.5q-257 0 -394 145t-137 410v852h125v-852q0 -219 103.5 -332t302.5 -113q200 0 302.5 112.5t102.5 332.5v852z" />
    <glyph glyph-name="utilde" unicode="&#x169;" 
d="M420 1315q-38 0 -61.5 -27t-24.5 -74h-94q0 97 43 150t129 53q48 0 86.5 -17t60 -38t50.5 -38t59 -17q39 0 62.5 26.5t23.5 73.5h96q0 -97 -47 -150t-127 -53q-45 0 -83.5 17.5t-60 38t-51.5 38t-61 17.5zM834 995h124v-995h-116l-6 174q-48 -84 -133 -134t-197 -50
q-164 0 -259 99t-95 267v639h124v-620q0 -129 70 -203t193 -74q131 0 213 86.5t82 208.5v602z" />
    <glyph glyph-name="Umacron" unicode="&#x16a;" horiz-adv-x="1427" 
d="M449 1554v101h528v-101h-528zM1118 1397h125v-852q0 -264 -139 -409.5t-391 -145.5q-257 0 -394 145t-137 410v852h125v-852q0 -219 103.5 -332t302.5 -113q200 0 302.5 112.5t102.5 332.5v852z" />
    <glyph glyph-name="umacron" unicode="&#x16b;" 
d="M825 1370v-98h-530v98h530zM834 995h124v-995h-116l-6 174q-48 -84 -133 -134t-197 -50q-164 0 -259 99t-95 267v639h124v-620q0 -129 70 -203t193 -74q131 0 213 86.5t82 208.5v602z" />
    <glyph glyph-name="Ubreve" unicode="&#x16c;" horiz-adv-x="1427" 
d="M956 1737q0 -116 -62 -186t-179 -70q-118 0 -180 69t-62 187h107q0 -77 34.5 -117t100.5 -39q64 0 98.5 40.5t34.5 115.5h108zM1118 1397h125v-852q0 -264 -139 -409.5t-391 -145.5q-257 0 -394 145t-137 410v852h125v-852q0 -219 103.5 -332t302.5 -113
q200 0 302.5 112.5t102.5 332.5v852z" />
    <glyph glyph-name="ubreve" unicode="&#x16d;" 
d="M555 1153q-124 0 -193 79.5t-69 223.5h104q0 -107 43 -157t115 -50q156 3 156 207h106q0 -142 -69.5 -222.5t-192.5 -80.5zM834 995h124v-995h-116l-6 174q-48 -84 -133 -134t-197 -50q-164 0 -259 99t-95 267v639h124v-620q0 -129 70 -203t193 -74q131 0 213 86.5
t82 208.5v602z" />
    <glyph glyph-name="Uring" unicode="&#x16e;" horiz-adv-x="1427" 
d="M713 1454q-75 0 -125.5 47t-50.5 121q0 77 50.5 125.5t125.5 48.5t125.5 -48.5t50.5 -125.5q0 -74 -50.5 -121t-125.5 -47zM713 1538q40 0 64 24t24 60q0 39 -23.5 62.5t-64.5 23.5t-63.5 -23.5t-22.5 -62.5q0 -36 23 -60t63 -24zM1118 1397h125v-852q0 -264 -139 -409.5
t-391 -145.5q-257 0 -394 145t-137 410v852h125v-852q0 -219 103.5 -332t302.5 -113q200 0 302.5 112.5t102.5 332.5v852z" />
    <glyph glyph-name="uring" unicode="&#x16f;" 
d="M557 1143q-74 0 -125 47.5t-51 120.5q0 77 50.5 125.5t125.5 48.5q73 0 123.5 -48.5t50.5 -125.5q0 -73 -50.5 -120.5t-123.5 -47.5zM557 1397q-41 0 -63.5 -23.5t-22.5 -62.5q0 -36 23 -60t63 -24q39 0 62.5 24t23.5 60q0 39 -23.5 62.5t-62.5 23.5zM834 995h124v-995
h-116l-6 174q-48 -84 -133 -134t-197 -50q-164 0 -259 99t-95 267v639h124v-620q0 -129 70 -203t193 -74q131 0 213 86.5t82 208.5v602z" />
    <glyph glyph-name="Uhungarumlaut" unicode="&#x170;" horiz-adv-x="1427" 
d="M575 1481h-106l119 256h168zM848 1481h-105l119 256h166zM1118 1397h125v-852q0 -264 -139 -409.5t-391 -145.5q-257 0 -394 145t-137 410v852h125v-852q0 -219 103.5 -332t302.5 -113q200 0 302.5 112.5t102.5 332.5v852z" />
    <glyph glyph-name="uhungarumlaut" unicode="&#x171;" 
d="M623 1470l-166 -313h-99l97 313h168zM909 1470l-166 -313h-98l96 313h168zM834 995h124v-995h-116l-6 174q-48 -84 -133 -134t-197 -50q-164 0 -259 99t-95 267v639h124v-620q0 -129 70 -203t193 -74q131 0 213 86.5t82 208.5v602z" />
    <glyph glyph-name="Uogonek" unicode="&#x172;" horiz-adv-x="1427" 
d="M1118 1397h125v-852q0 -204 -84 -339t-241 -186q-17 -9 -38.5 -25t-52.5 -44.5t-51 -67.5t-20 -80q0 -48 27.5 -73t68.5 -25q55 0 104 35l37 -72q-48 -51 -149 -51q-84 0 -135.5 45.5t-51.5 126.5q0 112 99 203q-14 -2 -43 -2q-257 0 -394 145t-137 410v852h125v-852
q0 -219 103.5 -332t302.5 -113q200 0 302.5 112.5t102.5 332.5v852z" />
    <glyph glyph-name="uogonek" unicode="&#x173;" 
d="M993 -283l37 -71q-49 -52 -149 -52q-84 0 -135.5 46t-51.5 127q0 136 148 241l-6 166q-48 -84 -133 -134t-197 -50q-164 0 -259 99t-95 267v639h124v-620q0 -129 70 -203t193 -74q131 0 213 86.5t82 208.5v602h124v-995q-7 -4 -18 -10.5t-39.5 -29t-50 -46t-39.5 -60
t-18 -73.5q0 -48 27.5 -73t68.5 -25q57 0 104 34z" />
    <glyph glyph-name="Wcircumflex" unicode="&#x174;" horiz-adv-x="1898" 
d="M948 1647l-157 -166h-107l182 256h166l180 -256h-106zM1724 1397h125l-411 -1397h-138l-352 1245l-352 -1245h-135l-414 1397h125l354 -1258l355 1258h135l354 -1258z" />
    <glyph glyph-name="wcircumflex" unicode="&#x175;" horiz-adv-x="1492" 
d="M748 1372l-160 -215h-109l195 313h145l195 -313h-109zM1300 995h140l-301 -995h-152l-223 764q-11 42 -16 72h-3q-1 -8 -18 -72l-221 -764h-152l-301 995h140l217 -794q3 -12 8.5 -29.5t9 -30t4.5 -16.5h4q7 16 23 76l223 794h127l223 -794q4 -15 13 -43t10 -33h4
q8 20 24 76z" />
    <glyph glyph-name="Ycircumflex" unicode="&#x176;" horiz-adv-x="1222" 
d="M610 1647l-157 -166h-107l182 256h166l180 -256h-106zM1182 1397l-508 -797v-600h-125v600l-508 797h139l432 -682l430 682h140z" />
    <glyph glyph-name="ycircumflex" unicode="&#x177;" horiz-adv-x="1007" 
d="M510 1372l-160 -215h-108l194 313h146l194 -313h-108zM838 995h127l-385 -995l-60 -152q-56 -147 -130 -207.5t-191 -60.5q-86 0 -138 23l11 110q48 -20 104 -20q81 0 135 36.5t92 131.5l46 106l-398 1028h139l299 -800l23 -70h4q4 27 19 70z" />
    <glyph glyph-name="Ydieresis" unicode="&#x178;" horiz-adv-x="1222" 
d="M432 1522q-40 0 -65 24t-25 62q0 40 25 64t65 24t64 -24t24 -64q0 -38 -24 -62t-64 -24zM793 1522q-40 0 -65.5 24t-25.5 62q0 39 25.5 63.5t65.5 24.5t64 -24t24 -64q0 -38 -24 -62t-64 -24zM1182 1397l-508 -797v-600h-125v600l-508 797h139l432 -682l430 682h140z" />
    <glyph glyph-name="Zacute" unicode="&#x179;" horiz-adv-x="1165" 
d="M795 1737l-166 -256h-119l96 256h189zM221 113h866v-113h-1015v102l862 1182h-842v113h989v-103z" />
    <glyph glyph-name="zacute" unicode="&#x17a;" horiz-adv-x="913" 
d="M668 1470l-166 -313h-103l109 313h160zM229 106h609v-106h-760v102l596 789h-582v104h729v-102z" />
    <glyph glyph-name="Zdotaccent" unicode="&#x17b;" horiz-adv-x="1165" 
d="M563 1507q-44 0 -71 26.5t-27 68.5q0 43 27 70.5t71 27.5q43 0 71 -27.5t28 -70.5q0 -41 -28 -68t-71 -27zM221 113h866v-113h-1015v102l862 1182h-842v113h989v-103z" />
    <glyph glyph-name="zdotaccent" unicode="&#x17c;" horiz-adv-x="913" 
d="M471 1229q-44 0 -71 26.5t-27 69.5t27 69.5t71 26.5t71 -26.5t27 -69.5t-27 -69.5t-71 -26.5zM229 106h609v-106h-760v102l596 789h-582v104h729v-102z" />
    <glyph glyph-name="Zcaron" unicode="&#x17d;" horiz-adv-x="1165" 
d="M649 1481h-166l-182 256h107l157 -168l158 168h106zM221 113h866v-113h-1015v102l862 1182h-842v113h989v-103z" />
    <glyph glyph-name="zcaron" unicode="&#x17e;" horiz-adv-x="913" 
d="M545 1157h-146l-194 313h108l158 -215l158 215h108zM229 106h609v-106h-760v102l596 789h-582v104h729v-102z" />
    <glyph glyph-name="uni018F" unicode="&#x18f;" horiz-adv-x="1439" 
d="M715 1409q192 0 331.5 -90t210.5 -249t70 -370q-1 -161 -47 -294.5t-127.5 -224t-194.5 -140t-245 -49.5q-295 0 -453 184t-158 522v17h1098q-3 279 -138 431t-347 152q-190 0 -308.5 -96.5t-148.5 -245.5h-125q33 199 188 326t394 127zM715 100q193 0 325 132.5
t156 369.5h-967q18 -248 144.5 -375t341.5 -127z" />
    <glyph glyph-name="uni019D" unicode="&#x19d;" horiz-adv-x="1462" 
d="M1139 1397h125v-1397h-127l-813 1202v-1288q0 -158 -82 -246t-224 -88q-83 0 -139 23l10 110q48 -20 105 -20q97 0 151 55.5t54 155.5v1493h127l813 -1202v1202z" />
    <glyph glyph-name="Gcaron" unicode="&#x1e6;" horiz-adv-x="1466" 
d="M838 1481h-166l-183 256h107l158 -168l157 168h107zM745 709h588v-709h-96v287q-63 -136 -190.5 -216.5t-309.5 -80.5q-282 0 -453 190t-171 522q0 318 178.5 512.5t468.5 194.5q252 0 398 -130t169 -339h-127q-22 158 -131.5 258t-308.5 100q-235 0 -378.5 -164
t-143.5 -432q0 -282 138 -442t361 -160q112 0 206.5 38.5t156 102.5t95.5 144.5t34 165.5v51h-484v107z" />
    <glyph glyph-name="gcaron" unicode="&#x1e7;" horiz-adv-x="1191" 
d="M674 1157h-146l-194 313h108l158 -215l158 215h108zM911 995h117v-1007q0 -193 -122 -305.5t-339 -112.5q-195 0 -304 78t-126 229h123q15 -102 90.5 -150.5t214.5 -48.5q162 0 251 83t89 227v205q-47 -94 -136.5 -148.5t-211.5 -54.5q-204 0 -330.5 140t-126.5 370
q0 229 126.5 367.5t330.5 138.5q124 0 213.5 -54.5t136.5 -150.5zM563 98q101 0 180.5 52t120.5 134.5t41 178.5v72q0 146 -95.5 255t-246.5 109q-152 0 -244 -108.5t-92 -290.5q0 -184 92 -293t244 -109z" />
    <glyph glyph-name="uni01EA" unicode="&#x1ea;" horiz-adv-x="1538" 
d="M1430 702q-1 -275 -137.5 -458.5t-358.5 -235.5q-7 -4 -18 -10.5t-39.5 -29t-50.5 -46t-40 -60t-18 -73.5q0 -48 27.5 -73t68.5 -25q56 0 105 35l37 -72q-48 -51 -150 -51q-84 0 -135 45.5t-51 126.5q0 119 112 215h-12q-140 0 -260.5 48t-209 137t-139 222.5
t-50.5 296.5t50.5 298.5t139 226t209 140.5t260.5 50t260.5 -48.5t209 -137.5t139 -223t51.5 -298zM770 100q230 0 381.5 162.5t151.5 435.5q0 138 -41 251.5t-113 189.5t-169.5 117.5t-209.5 41.5t-209.5 -41.5t-169.5 -117.5t-113.5 -189.5t-41.5 -251.5
q0 -137 41.5 -250.5t113.5 -189t169.5 -117t209.5 -41.5z" />
    <glyph glyph-name="uni01EB" unicode="&#x1eb;" horiz-adv-x="1157" 
d="M739 14q-20 -12 -41.5 -29.5t-48.5 -45t-44 -63.5t-17 -73q0 -48 27.5 -73t68.5 -25q55 0 104 35l37 -72q-48 -51 -149 -51q-84 0 -135.5 45.5t-51.5 126.5q0 112 97 201h-8q-214 0 -346 137.5t-132 364.5q0 228 132.5 371t345.5 143q216 0 347.5 -139t131.5 -367
q0 -181 -85 -310.5t-233 -175.5zM227 496q0 -178 97 -288t254 -110q159 0 255.5 109.5t96.5 288.5q0 181 -96.5 292t-255.5 111q-157 0 -254 -111.5t-97 -291.5z" />
    <glyph glyph-name="Aringacute" unicode="&#x1fa;" horiz-adv-x="1267" 
d="M1104 0l-143 383h-654l-141 -383h-127l510 1362q-42 21 -66 59t-24 88q0 77 50.5 125.5t125.5 48.5q96 0 145 -71l62 125h141l-174 -250q-9 -85 -88 -127l508 -1360h-125zM635 1595q-41 0 -63.5 -23.5t-22.5 -62.5q0 -36 23 -60t63 -24q32 0 54 15.5t30 40.5h-2l4 8
q2 6 2 20q0 39 -23.5 62.5t-64.5 23.5zM348 496h572l-287 768z" />
    <glyph glyph-name="aringacute" unicode="&#x1fb;" horiz-adv-x="1093" 
d="M551 1143q-74 0 -125 47.5t-51 120.5q0 77 50.5 125.5t125.5 48.5q86 0 135 -62l59 162h138l-160 -307q-12 -60 -60 -97.5t-112 -37.5zM551 1397q-41 0 -63.5 -23.5t-22.5 -62.5q0 -36 23 -60t63 -24q39 0 62.5 24t23.5 60q0 39 -23.5 62.5t-62.5 23.5zM1044 115l13 -109
q-50 -16 -96 -16q-77 0 -121.5 47.5t-44.5 130.5v8q-18 -32 -47 -61.5t-74 -59t-112 -47.5t-146 -18q-156 0 -239 72t-83 192q0 80 35.5 139.5t102.5 95.5t156 53t202 17h205v78q0 121 -75 191.5t-206 70.5q-121 0 -194 -59t-82 -162h-121q12 152 121.5 240t283.5 88
q185 0 290.5 -99.5t105.5 -271.5v-445q0 -42 19 -64t52 -22q27 0 55 11zM440 92q87 0 159 29.5t112.5 71.5t62 81.5t21.5 67.5v125h-211q-363 0 -363 -209q0 -78 55 -122t164 -44z" />
    <glyph glyph-name="AEacute" unicode="&#x1fc;" horiz-adv-x="2023" 
d="M1266 1737l-166 -256h-119l96 256h189zM1122 113h795v-113h-918v383h-614l-260 -383h-137l938 1397h983v-113h-787v-500h723v-112h-723v-559zM463 496h536v784h-4z" />
    <glyph glyph-name="aeacute" unicode="&#x1fd;" horiz-adv-x="1781" 
d="M1081 1470l-166 -313h-102l109 313h159zM1683 502v-35h-768q9 -170 103 -271.5t239 -101.5q125 0 202.5 64.5t92.5 156.5h125q-23 -144 -132.5 -236.5t-284.5 -92.5q-136 0 -240.5 61.5t-163.5 171.5q-68 -109 -179.5 -169t-258.5 -60q-153 0 -240.5 72.5t-87.5 191.5
q0 303 569 303h134v80q0 121 -74.5 191.5t-204.5 70.5q-113 0 -184.5 -59t-83.5 -162h-123q14 151 120 239.5t273 88.5q131 0 225.5 -52t139.5 -145q61 93 157 145t213 52q197 0 314.5 -136.5t117.5 -367.5zM1251 899q-133 0 -223.5 -92t-107.5 -246h641q-13 162 -95.5 250
t-214.5 88zM442 96q68 0 129.5 19t103 47.5t73 62.5t46.5 63.5t17 51.5q-15 58 -18 125h-134q-444 0 -444 -207q0 -75 60 -118.5t167 -43.5z" />
    <glyph glyph-name="Oslashacute" unicode="&#x1fe;" horiz-adv-x="1538" 
d="M928 1714l-166 -256h-119l96 256h189zM1192 1266q112 -93 174.5 -236.5t63.5 -327.5q-1 -162 -51.5 -297t-139 -225.5t-209 -140t-260.5 -49.5q-179 0 -330 80l-104 -164h-131l143 227q-113 91 -175 234t-62 327q0 163 50.5 298.5t139 226t209 140.5t260.5 50
q181 0 330 -82l88 139h131zM236 698q0 -296 178 -460l624 991q-120 69 -268 69q-112 0 -209.5 -41.5t-169.5 -117.5t-113.5 -189.5t-41.5 -251.5zM770 100q230 0 381.5 162.5t151.5 435.5q0 294 -177 463l-624 -991q124 -70 268 -70z" />
    <glyph glyph-name="oslashacute" unicode="&#x1ff;" horiz-adv-x="1157" 
d="M764 1470l-166 -313h-102l108 313h160zM879 909q86 -67 132 -172t46 -237q0 -228 -131.5 -369t-347.5 -141q-128 0 -226 49l-61 -100h-105l90 147q-84 67 -130 171t-46 235q0 228 132.5 371t345.5 143q125 0 229 -52l59 99h101zM227 496q0 -196 113 -306l408 668
q-74 41 -170 41q-157 0 -254 -111.5t-97 -291.5zM578 98q159 0 255.5 109.5t96.5 288.5q0 196 -113 309l-405 -668q76 -39 166 -39z" />
    <glyph glyph-name="Scommaaccent" unicode="&#x218;" horiz-adv-x="1212" 
d="M262 1044q0 -67 29 -115.5t77.5 -76t112 -46.5t133.5 -34t140 -32t133.5 -45.5t112 -69t77.5 -109t29 -160.5q0 -167 -139.5 -266.5t-358.5 -99.5q-234 0 -374 106.5t-140 300.5h125q-2 -138 104.5 -217.5t292.5 -79.5q167 0 266 68.5t99 187.5q0 71 -29 121.5t-77.5 80
t-112 50t-133.5 36t-140 32t-133.5 43.5t-112 65.5t-77.5 104t-29 153.5q-1 169 131.5 268t345.5 99q216 0 342.5 -103t126.5 -288h-122q0 140 -95 210t-256 70q-166 0 -257 -65.5t-91 -188.5zM627 -92q98 0 98 -135q0 -113 -57.5 -182t-124.5 -66v72q35 0 62.5 32.5
t27.5 85.5q-47 0 -75 28t-28 71t28.5 68.5t68.5 25.5z" />
    <glyph glyph-name="scommaaccent" unicode="&#x219;" horiz-adv-x="950" 
d="M242 735q0 -48 26 -81.5t69 -50t98 -31t112 -24t112 -30t98 -49t69 -81t26 -124.5q0 -125 -103 -199.5t-276 -74.5q-184 0 -282.5 76.5t-100.5 218.5h115q5 -89 73 -138t195 -49q122 0 189 44.5t67 121.5q0 56 -33.5 93t-87.5 55.5t-119 32t-130 31.5t-119 45.5
t-87.5 81.5t-33.5 132q0 124 99 197.5t265 73.5q165 0 257.5 -75.5t95.5 -213.5h-115q-4 89 -68.5 135.5t-171.5 46.5q-111 0 -175 -43.5t-64 -120.5zM483 -92q99 0 99 -135q0 -113 -58 -182t-125 -66v72q35 0 62.5 32.5t27.5 85.5q-47 0 -74.5 27.5t-27.5 71.5
q0 43 28 68.5t68 25.5z" />
    <glyph glyph-name="uni021A" unicode="&#x21a;" 
d="M498 0v1284h-471v113h1067v-113h-471v-1284h-125zM473 -403q35 0 62.5 32.5t27.5 85.5q-47 0 -74.5 27.5t-27.5 71.5q0 43 28 68.5t68 25.5q98 0 98 -135q0 -113 -57.5 -182t-124.5 -66v72z" />
    <glyph glyph-name="uni021B" unicode="&#x21b;" horiz-adv-x="722" 
d="M696 18q-58 -28 -159 -28q-160 0 -247 83.5t-87 235.5v578h-156v108h162v303h117v-303h346v-104h-346v-582q0 -102 52.5 -156.5t170.5 -54.5q72 0 141 29zM459 -92q98 0 98 -135q0 -113 -57.5 -182t-124.5 -66v72q35 0 62.5 32.5t27.5 85.5q-47 0 -75 28t-28 71
t28.5 68.5t68.5 25.5z" />
    <glyph glyph-name="uni0232" unicode="&#x232;" horiz-adv-x="1222" 
d="M874 1655v-101h-528v101h528zM1182 1397l-508 -797v-600h-125v600l-508 797h139l432 -682l430 682h140z" />
    <glyph glyph-name="uni0233" unicode="&#x233;" horiz-adv-x="1007" 
d="M778 1370v-98h-530v98h530zM838 995h127l-385 -995l-60 -152q-56 -147 -130 -207.5t-191 -60.5q-86 0 -138 23l11 110q48 -20 104 -20q81 0 135 36.5t92 131.5l46 106l-398 1028h139l299 -800l23 -70h4q4 27 19 70z" />
    <glyph glyph-name="uni0237" unicode="&#x237;" horiz-adv-x="466" 
d="M-6 -420q-85 0 -137 23l10 110q48 -20 104 -20q100 0 154.5 57.5t54.5 165.5v1079h123v-1081q0 -158 -82.5 -246t-226.5 -88z" />
    <glyph glyph-name="uni0259" unicode="&#x259;" horiz-adv-x="1110" 
d="M549 1006q215 0 338 -137.5t123 -366.5t-129 -370.5t-338 -141.5t-327 131t-118 371v34h787q-6 174 -95.5 272.5t-238.5 98.5q-134 0 -214 -63.5t-106 -157.5h-125q26 140 145 235t298 95zM545 98q139 0 229 89t107 243h-658q13 -162 96.5 -247t225.5 -85z" />
    <glyph glyph-name="uni0272" unicode="&#x272;" horiz-adv-x="1142" 
d="M627 1006q170 0 267 -101.5t97 -283.5v-621h-125v596q0 142 -71 222.5t-199 80.5q-142 0 -225.5 -87t-83.5 -210v-688q0 -157 -79.5 -245.5t-209.5 -88.5q-85 0 -137 23l10 110q48 -20 104 -20q87 0 138 58t51 165v1079h117l4 -172q48 83 136 133t206 50z" />
    <glyph glyph-name="circumflex" unicode="&#x2c6;" horiz-adv-x="671" 
d="M66 1157l194 313h146l194 -313h-108l-158 215l-160 -215h-108z" />
    <glyph glyph-name="caron" unicode="&#x2c7;" horiz-adv-x="655" 
d="M39 1470h108l158 -215l158 215h108l-192 -313h-146z" />
    <glyph glyph-name="breve" unicode="&#x2d8;" horiz-adv-x="622" 
d="M573 1456q0 -142 -69.5 -222.5t-192.5 -80.5q-124 0 -193 79.5t-69 223.5h105q0 -107 42.5 -157t114.5 -50q156 3 156 207h106z" />
    <glyph glyph-name="dotaccent" unicode="&#x2d9;" horiz-adv-x="378" 
d="M160 1421q44 0 71 -26.5t27 -69.5t-27 -69.5t-71 -26.5t-71.5 26.5t-27.5 69.5t27.5 69.5t71.5 26.5z" />
    <glyph glyph-name="ring" unicode="&#x2da;" horiz-adv-x="505" 
d="M250 1143q-74 0 -125 47.5t-51 120.5q0 77 50.5 125.5t125.5 48.5q73 0 123.5 -48.5t50.5 -125.5q0 -73 -50.5 -120.5t-123.5 -47.5zM250 1227q39 0 62.5 24t23.5 60q0 39 -23.5 62.5t-62.5 23.5q-41 0 -63.5 -23.5t-22.5 -62.5q0 -36 23 -60t63 -24z" />
    <glyph glyph-name="ogonek" unicode="&#x2db;" horiz-adv-x="507" 
d="M414 -352q-48 -51 -150 -51q-84 0 -135 45.5t-51 126.5q0 55 23.5 104.5t57.5 81t67.5 55.5t57.5 34l23 11l35 -53q-7 -4 -18 -10.5t-39.5 -29t-50.5 -46t-40 -60t-18 -73.5q0 -48 27.5 -73t68.5 -25q58 0 105 34z" />
    <glyph glyph-name="tilde" unicode="&#x2dc;" horiz-adv-x="774" 
d="M256 1315q-38 0 -61.5 -27t-24.5 -74h-94q0 97 43 150t129 53q48 0 86.5 -17t60 -38t50.5 -38t59 -17q39 0 62.5 26.5t23.5 73.5h96q0 -97 -47 -150t-127 -53q-45 0 -83.5 17.5t-60 38t-51.5 38t-61 17.5z" />
    <glyph glyph-name="hungarumlaut" unicode="&#x2dd;" horiz-adv-x="759" 
d="M199 1157h-99l97 313h168zM485 1157h-98l96 313h168z" />
    <glyph glyph-name="gravecomb" unicode="&#x300;" horiz-adv-x="0" 
d="M-207 1157l-166 313h160l109 -313h-103z" />
    <glyph glyph-name="acutecomb" unicode="&#x301;" horiz-adv-x="0" 
d="M-301 1157h-102l108 313h160z" />
    <glyph glyph-name="uni0302" unicode="&#x302;" horiz-adv-x="0" 
d="M-604 1157l194 313h146l194 -313h-108l-158 215l-160 -215h-108z" />
    <glyph glyph-name="tildecomb" unicode="&#x303;" horiz-adv-x="0" 
d="M-518 1315q-38 0 -61.5 -27t-24.5 -74h-94q0 97 43 150t129 53q48 0 86.5 -17t60 -38t50.5 -38t59 -17q39 0 62.5 26.5t23.5 73.5h96q0 -97 -47 -150t-127 -53q-45 0 -83.5 17.5t-60 38t-51.5 38t-61 17.5z" />
    <glyph glyph-name="uni0304" unicode="&#x304;" horiz-adv-x="0" 
d="M-635 1272v98h531v-98h-531z" />
    <glyph glyph-name="uni0306" unicode="&#x306;" horiz-adv-x="0" 
d="M-49 1456q0 -142 -69.5 -222.5t-192.5 -80.5q-124 0 -193 79.5t-69 223.5h104q0 -107 43 -157t115 -50q155 3 155 207h107z" />
    <glyph glyph-name="uni0307" unicode="&#x307;" horiz-adv-x="0" 
d="M-160 1421q44 0 71.5 -26.5t27.5 -69.5t-27.5 -69.5t-71.5 -26.5t-71 26.5t-27 69.5t27 69.5t71 26.5z" />
    <glyph glyph-name="uni0308" unicode="&#x308;" horiz-adv-x="0" 
d="M-512 1411q39 0 63.5 -24.5t24.5 -63.5q0 -40 -24 -64t-64 -24t-65 24t-25 64q0 38 25 63t65 25zM-152 1411q40 0 65.5 -25t25.5 -63q0 -39 -25.5 -63.5t-65.5 -24.5t-65 24t-25 64q0 38 25 63t65 25z" />
    <glyph glyph-name="uni030A" unicode="&#x30a;" horiz-adv-x="0" 
d="M-248 1143q-74 0 -125 47.5t-51 120.5q0 77 50.5 125.5t125.5 48.5q73 0 123.5 -48.5t50.5 -125.5q0 -73 -50.5 -120.5t-123.5 -47.5zM-248 1227q39 0 62.5 24t23.5 60q0 39 -23.5 62.5t-62.5 23.5q-41 0 -63.5 -23.5t-22.5 -62.5q0 -36 23 -60t63 -24z" />
    <glyph glyph-name="uni030B" unicode="&#x30b;" horiz-adv-x="0" 
d="M-588 1157h-98l96 313h168zM-301 1157h-98l96 313h168z" />
    <glyph glyph-name="uni030C" unicode="&#x30c;" horiz-adv-x="0" 
d="M-571 1470h108l158 -215l158 215h108l-192 -313h-146z" />
    <glyph glyph-name="dotbelowcomb" unicode="&#x323;" horiz-adv-x="0" 
d="M-160 -158q44 0 71.5 -26.5t27.5 -69.5t-27.5 -69.5t-71.5 -26.5t-71 26.5t-27 69.5t27 69.5t71 26.5z" />
    <glyph glyph-name="uni0326" unicode="&#x326;" horiz-adv-x="0" 
d="M-272 -403q35 0 62.5 32.5t27.5 85.5q-47 0 -75 28t-28 71t28.5 68.5t68.5 25.5q98 0 98 -135q0 -113 -57.5 -182t-124.5 -66v72z" />
    <glyph glyph-name="uni0327" unicode="&#x327;" horiz-adv-x="0" 
d="M-391 -297q43 -18 100 -18q55 0 84 20t29 53q0 84 -164 84l39 185h80l-25 -115q70 -5 116 -41.5t46 -108.5q0 -76 -54.5 -120.5t-154.5 -44.5q-65 0 -115 18z" />
    <glyph glyph-name="uni0328" unicode="&#x328;" horiz-adv-x="0" 
d="M-94 -352q-48 -51 -150 -51q-84 0 -135 45.5t-51 126.5q0 55 23.5 104.5t57 81t67.5 55.5t58 34l23 11l35 -53q-7 -4 -18 -10.5t-39.5 -29t-50.5 -46t-40 -60t-18 -73.5q0 -48 27.5 -73t68.5 -25q58 0 105 34z" />
    <glyph glyph-name="uni0335" unicode="&#x335;" horiz-adv-x="0" 
d="M-582 446h541v-92h-541v92z" />
    <glyph glyph-name="uni0336" unicode="&#x336;" horiz-adv-x="0" 
d="M-707 459h672v-105h-672v105z" />
    <glyph glyph-name="uni0337" unicode="&#x337;" horiz-adv-x="0" 
d="M-532 721l444 272l47 -84l-444 -270z" />
    <glyph glyph-name="uni0338" unicode="&#x338;" horiz-adv-x="0" 
d="M-274 1071h100l-676 -1114h-104z" />
    <glyph glyph-name="Wgrave" unicode="&#x1e80;" horiz-adv-x="1898" 
d="M1012 1481h-119l-162 256h182zM1724 1397h125l-411 -1397h-138l-352 1245l-352 -1245h-135l-414 1397h125l354 -1258l355 1258h135l354 -1258z" />
    <glyph glyph-name="wgrave" unicode="&#x1e81;" horiz-adv-x="1492" 
d="M829 1157h-102l-166 313h160zM1300 995h140l-301 -995h-152l-223 764q-11 42 -16 72h-3q-1 -8 -18 -72l-221 -764h-152l-301 995h140l217 -794q3 -12 8.5 -29.5t9 -30t4.5 -16.5h4q7 16 23 76l223 794h127l223 -794q4 -15 13 -43t10 -33h4q8 20 24 76z" />
    <glyph glyph-name="Wacute" unicode="&#x1e82;" horiz-adv-x="1898" 
d="M1178 1737l-166 -256h-119l96 256h189zM1724 1397h125l-411 -1397h-138l-352 1245l-352 -1245h-135l-414 1397h125l354 -1258l355 1258h135l354 -1258z" />
    <glyph glyph-name="wacute" unicode="&#x1e83;" horiz-adv-x="1492" 
d="M942 1470l-166 -313h-102l108 313h160zM1300 995h140l-301 -995h-152l-223 764q-11 42 -16 72h-3q-1 -8 -18 -72l-221 -764h-152l-301 995h140l217 -794q3 -12 8.5 -29.5t9 -30t4.5 -16.5h4q7 16 23 76l223 794h127l223 -794q4 -15 13 -43t10 -33h4q8 20 24 76z" />
    <glyph glyph-name="Wdieresis" unicode="&#x1e84;" horiz-adv-x="1898" 
d="M768 1522q-40 0 -65 24t-25 62q0 40 25 64t65 24t64 -24t24 -64q0 -38 -24 -62t-64 -24zM1128 1522q-40 0 -65 24t-25 62q0 40 25 64t65 24t64.5 -24t24.5 -64q0 -38 -24.5 -62t-64.5 -24zM1724 1397h125l-411 -1397h-138l-352 1245l-352 -1245h-135l-414 1397h125
l354 -1258l355 1258h135l354 -1258z" />
    <glyph glyph-name="wdieresis" unicode="&#x1e85;" horiz-adv-x="1492" 
d="M573 1235q-40 0 -65 24t-25 64q0 38 25 63t65 25q39 0 64 -24.5t25 -63.5q0 -40 -24.5 -64t-64.5 -24zM934 1235q-40 0 -65 24t-25 64q0 38 25 63t65 25t65 -25t25 -63q0 -40 -25 -64t-65 -24zM1300 995h140l-301 -995h-152l-223 764q-11 42 -16 72h-3q-1 -8 -18 -72
l-221 -764h-152l-301 995h140l217 -794q3 -12 8.5 -29.5t9 -30t4.5 -16.5h4q7 16 23 76l223 794h127l223 -794q4 -15 13 -43t10 -33h4q8 20 24 76z" />
    <glyph glyph-name="uni1E9E" unicode="&#x1e9e;" horiz-adv-x="1333" 
d="M821 784q194 -12 300 -117t106 -276q0 -183 -120 -287t-341 -104h-148v109h148q161 0 248.5 74.5t87.5 207.5q0 135 -86.5 214t-241.5 79h-88v102l330 504h-484q-104 0 -161.5 -58.5t-57.5 -160.5v-1071h-125v1067q0 145 89 237.5t239 92.5h662v-76z" />
    <glyph glyph-name="uni1EA0" unicode="&#x1ea0;" horiz-adv-x="1267" 
d="M1229 0h-125l-143 383h-654l-141 -383h-127l522 1397h146zM348 496h572l-287 768zM635 -158q44 0 71 -26.5t27 -69.5t-27 -69.5t-71 -26.5t-71 26.5t-27 69.5t27 69.5t71 26.5z" />
    <glyph glyph-name="uni1EA1" unicode="&#x1ea1;" horiz-adv-x="1093" 
d="M1044 115l13 -109q-50 -16 -96 -16q-77 0 -121.5 47.5t-44.5 130.5v8q-18 -32 -47 -61.5t-74 -59t-112 -47.5t-146 -18q-156 0 -239 72t-83 192q0 80 35.5 139.5t102.5 95.5t156 53t202 17h205v78q0 121 -75 191.5t-206 70.5q-121 0 -194 -59t-82 -162h-121
q12 152 121.5 240t283.5 88q185 0 290.5 -99.5t105.5 -271.5v-445q0 -42 19 -64t52 -22q27 0 55 11zM440 92q87 0 159 29.5t112.5 71.5t62 81.5t21.5 67.5v125h-211q-363 0 -363 -209q0 -78 55 -122t164 -44zM514 -158q44 0 71 -26.5t27 -69.5t-27 -69.5t-71 -26.5t-71 26.5
t-27 69.5t27 69.5t71 26.5z" />
    <glyph glyph-name="uni1EB8" unicode="&#x1eb8;" horiz-adv-x="1222" 
d="M324 113h792v-113h-917v1397h911v-113h-786v-500h723v-112h-723v-559zM666 -158q44 0 71 -26.5t27 -69.5t-27 -69.5t-71 -26.5t-71.5 26.5t-27.5 69.5t27.5 69.5t71.5 26.5z" />
    <glyph glyph-name="uni1EB9" unicode="&#x1eb9;" horiz-adv-x="1110" 
d="M1012 502v-35h-785q8 -171 100.5 -270t245.5 -99q134 0 213.5 63t94.5 154h125q-24 -142 -138.5 -233.5t-298.5 -91.5q-219 0 -344 138t-125 366q0 227 130.5 369.5t336.5 142.5q205 0 325 -136t120 -368zM569 899q-139 0 -230 -90.5t-108 -247.5h656
q-12 163 -95.5 250.5t-222.5 87.5zM578 -158q44 0 71 -26.5t27 -69.5t-27 -69.5t-71 -26.5t-71.5 26.5t-27.5 69.5t27.5 69.5t71.5 26.5z" />
    <glyph glyph-name="uni1EBC" unicode="&#x1ebc;" horiz-adv-x="1222" 
d="M537 1618q-37 0 -59.5 -26t-22.5 -70h-99q0 95 43.5 146.5t128.5 51.5q38 0 69.5 -10.5t53 -26t41 -31t42.5 -26t48 -10.5q37 0 58.5 24t21.5 72h96q1 -95 -44.5 -147t-125.5 -52q-44 0 -82 16.5t-60 36t-51 36t-58 16.5zM324 113h792v-113h-917v1397h911v-113h-786v-500
h723v-112h-723v-559z" />
    <glyph glyph-name="uni1EBD" unicode="&#x1ebd;" horiz-adv-x="1110" 
d="M432 1315q-38 0 -61.5 -27t-24.5 -74h-94q0 97 43 150t129 53q48 0 86.5 -17t60 -38t50.5 -38t59 -17q39 0 62.5 26.5t23.5 73.5h96q0 -97 -47 -150t-127 -53q-45 0 -83.5 17.5t-60 38t-51.5 38t-61 17.5zM1012 502v-35h-785q8 -171 100.5 -270t245.5 -99q134 0 213.5 63
t94.5 154h125q-24 -142 -138.5 -233.5t-298.5 -91.5q-219 0 -344 138t-125 366q0 227 130.5 369.5t336.5 142.5q205 0 325 -136t120 -368zM569 899q-139 0 -230 -90.5t-108 -247.5h656q-12 163 -95.5 250.5t-222.5 87.5z" />
    <glyph glyph-name="uni1ECA" unicode="&#x1eca;" horiz-adv-x="522" 
d="M199 0v1397h125v-1397h-125zM262 -158q44 0 71 -26.5t27 -69.5t-27 -69.5t-71 -26.5t-71 26.5t-27 69.5t27 69.5t71 26.5z" />
    <glyph glyph-name="uni1ECB" unicode="&#x1ecb;" horiz-adv-x="450" 
d="M225 1421q44 0 71.5 -26.5t27.5 -69.5t-27.5 -69.5t-71.5 -26.5t-71 26.5t-27 69.5t27 69.5t71 26.5zM164 0v995h125v-995h-125zM227 -158q44 0 71.5 -26.5t27.5 -69.5t-27.5 -69.5t-71.5 -26.5t-71 26.5t-27 69.5t27 69.5t71 26.5z" />
    <glyph glyph-name="uni1ECC" unicode="&#x1ecc;" horiz-adv-x="1538" 
d="M770 -10q-140 0 -260.5 48t-209 137t-139 222.5t-50.5 296.5t50.5 298.5t139 226t209 140.5t260.5 50t260.5 -48.5t209 -137.5t139 -223t51.5 -298q-1 -162 -51.5 -297t-139 -225.5t-209 -140t-260.5 -49.5zM770 100q230 0 381.5 162.5t151.5 435.5q0 138 -41 251.5
t-113 189.5t-169.5 117.5t-209.5 41.5t-209.5 -41.5t-169.5 -117.5t-113.5 -189.5t-41.5 -251.5q0 -137 41.5 -250.5t113.5 -189t169.5 -117t209.5 -41.5zM770 -158q44 0 71 -26.5t27 -69.5t-27 -69.5t-71 -26.5t-71 26.5t-27 69.5t27 69.5t71 26.5z" />
    <glyph glyph-name="uni1ECD" unicode="&#x1ecd;" horiz-adv-x="1157" 
d="M578 1006q216 0 347.5 -139t131.5 -367t-131.5 -369t-347.5 -141q-214 0 -346 137.5t-132 364.5q0 228 132.5 371t345.5 143zM578 899q-157 0 -254 -111.5t-97 -291.5q0 -178 97 -288t254 -110q159 0 255.5 109.5t96.5 288.5q0 181 -96.5 292t-255.5 111zM578 -158
q44 0 71 -26.5t27 -69.5t-27 -69.5t-71 -26.5t-71.5 26.5t-27.5 69.5t27.5 69.5t71.5 26.5z" />
    <glyph glyph-name="uni1EE4" unicode="&#x1ee4;" horiz-adv-x="1427" 
d="M1118 1397h125v-852q0 -264 -139 -409.5t-391 -145.5q-257 0 -394 145t-137 410v852h125v-852q0 -219 103.5 -332t302.5 -113q200 0 302.5 112.5t102.5 332.5v852zM713 -158q44 0 71 -26.5t27 -69.5t-27 -69.5t-71 -26.5t-71.5 26.5t-27.5 69.5t27.5 69.5t71.5 26.5z" />
    <glyph glyph-name="uni1EE5" unicode="&#x1ee5;" 
d="M834 995h124v-995h-116l-6 174q-48 -84 -133 -134t-197 -50q-164 0 -259 99t-95 267v639h124v-620q0 -129 70 -203t193 -74q131 0 213 86.5t82 208.5v602zM569 -158q44 0 71.5 -26.5t27.5 -69.5t-27.5 -69.5t-71.5 -26.5t-71 26.5t-27 69.5t27 69.5t71 26.5z" />
    <glyph glyph-name="Ygrave" unicode="&#x1ef2;" horiz-adv-x="1222" 
d="M674 1481h-119l-162 256h182zM1182 1397l-508 -797v-600h-125v600l-508 797h139l432 -682l430 682h140z" />
    <glyph glyph-name="ygrave" unicode="&#x1ef3;" horiz-adv-x="1007" 
d="M592 1157h-103l-165 313h159zM838 995h127l-385 -995l-60 -152q-56 -147 -130 -207.5t-191 -60.5q-86 0 -138 23l11 110q48 -20 104 -20q81 0 135 36.5t92 131.5l46 106l-398 1028h139l299 -800l23 -70h4q4 27 19 70z" />
    <glyph glyph-name="uni1EF8" unicode="&#x1ef8;" horiz-adv-x="1222" 
d="M487 1618q-37 0 -59 -26t-22 -70h-99q0 95 43.5 146.5t128.5 51.5q38 0 69.5 -10.5t53 -26t41 -31t42.5 -26t48 -10.5q37 0 58.5 24t21.5 72h96q1 -95 -44.5 -147t-125.5 -52q-44 0 -82 16.5t-60 36t-51.5 36t-58.5 16.5zM1182 1397l-508 -797v-600h-125v600l-508 797
h139l432 -682l430 682h140z" />
    <glyph glyph-name="uni1EF9" unicode="&#x1ef9;" horiz-adv-x="1007" 
d="M371 1315q-38 0 -61.5 -27t-24.5 -74h-95q0 97 43 150t129 53q48 0 86.5 -17t60 -38t50.5 -38t59 -17q39 0 63 27t24 73h96q0 -97 -47 -150t-127 -53q-45 0 -83.5 17.5t-60 38t-51.5 38t-61 17.5zM838 995h127l-385 -995l-60 -152q-56 -147 -130 -207.5t-191 -60.5
q-86 0 -138 23l11 110q48 -20 104 -20q81 0 135 36.5t92 131.5l46 106l-398 1028h139l299 -800l23 -70h4q4 27 19 70z" />
    <glyph glyph-name="endash" unicode="&#x2013;" horiz-adv-x="1091" 
d="M139 535v96h815v-96h-815z" />
    <glyph glyph-name="emdash" unicode="&#x2014;" horiz-adv-x="1642" 
d="M139 535v96h1364v-96h-1364z" />
    <glyph glyph-name="quoteleft" unicode="&#x2018;" horiz-adv-x="425" 
d="M313 1423q-46 0 -84.5 -42t-38.5 -99q1 0 9.5 1t15.5 1q45 0 71.5 -28.5t26.5 -71.5q0 -46 -29 -74.5t-73 -28.5q-47 0 -79 36t-32 114q0 116 67.5 194.5t145.5 75.5v-78z" />
    <glyph glyph-name="quoteright" unicode="&#x2019;" horiz-adv-x="428" 
d="M123 1159q46 0 84.5 42t38.5 99q-1 0 -9.5 -1t-15.5 -1q-44 0 -71 29t-27 72q0 46 29 74t73 28q47 0 79 -35.5t32 -113.5q0 -116 -67.5 -195t-145.5 -76v78z" />
    <glyph glyph-name="quotesinglbase" unicode="&#x201a;" horiz-adv-x="452" 
d="M119 -133q46 0 84.5 42t38.5 99q-1 0 -9.5 -1t-15.5 -1q-45 0 -71.5 28.5t-26.5 71.5q0 46 29 74.5t73 28.5q47 0 79 -36t32 -114q0 -116 -67.5 -194.5t-145.5 -75.5v78z" />
    <glyph glyph-name="quotedblleft" unicode="&#x201c;" horiz-adv-x="716" 
d="M313 1423q-46 0 -84.5 -42t-38.5 -99q1 0 9.5 1t15.5 1q45 0 71.5 -28.5t26.5 -71.5q0 -46 -29 -74.5t-73 -28.5q-47 0 -79 36t-32 114q0 116 67.5 194.5t145.5 75.5v-78zM606 1423q-46 0 -84.5 -42t-38.5 -99q1 0 9.5 1t15.5 1q45 0 71.5 -28.5t26.5 -71.5
q0 -46 -29 -74.5t-73 -28.5q-47 0 -79 36t-32 114q0 116 67.5 194.5t145.5 75.5v-78z" />
    <glyph glyph-name="quotedblright" unicode="&#x201d;" horiz-adv-x="718" 
d="M123 1159q46 0 84.5 42t38.5 99q-1 0 -9.5 -1t-15.5 -1q-44 0 -71 29t-27 72q0 46 29 74t73 28q47 0 79 -35.5t32 -113.5q0 -116 -67.5 -195t-145.5 -76v78zM414 1159q46 0 84.5 42t38.5 99q-1 0 -9.5 -1t-15.5 -1q-44 0 -71 29t-27 72q0 46 29 74t73 28q47 0 79 -35.5
t32 -113.5q0 -116 -67.5 -195t-145.5 -76v78z" />
    <glyph glyph-name="quotedblbase" unicode="&#x201e;" horiz-adv-x="727" 
d="M113 -174q46 0 84.5 42t38.5 99q-1 0 -9.5 -1t-15.5 -1q-44 0 -71 29t-27 72q0 46 29 74t73 28q47 0 79 -36t32 -114q0 -116 -67.5 -194.5t-145.5 -75.5v78zM403 -174q46 0 84.5 42t38.5 99q-1 0 -9 -1t-15 -1q-45 0 -72 29t-27 72q0 46 29.5 74t73.5 28q47 0 78.5 -36
t31.5 -114q0 -116 -67.5 -194.5t-145.5 -75.5v78z" />
    <glyph glyph-name="dagger" unicode="&#x2020;" horiz-adv-x="804" 
d="M684 1198v-111h-221v-608h-121v608h-221v111h221v246h121v-246h221z" />
    <glyph glyph-name="daggerdbl" unicode="&#x2021;" horiz-adv-x="804" 
d="M684 1090h-221v-256h221v-111h-221v-244h-121v244h-221v111h221v256h-221v110h221v244h121v-244h221v-110z" />
    <glyph glyph-name="bullet" unicode="&#x2022;" horiz-adv-x="696" 
d="M348 889q78 0 126 -47.5t48 -124.5q0 -75 -48 -121.5t-126 -46.5t-126 46.5t-48 121.5q0 77 48 125t126 47z" />
    <glyph glyph-name="ellipsis" unicode="&#x2026;" horiz-adv-x="1079" 
d="M213 182q44 0 71 -26.5t27 -69.5t-27 -69.5t-71 -26.5q-43 0 -70.5 26.5t-27.5 69.5t27.5 69.5t70.5 26.5zM539 182q44 0 71 -26.5t27 -69.5t-27 -69.5t-71 -26.5q-43 0 -71 27t-28 69t28 69t71 27zM864 182q44 0 71.5 -26.5t27.5 -69.5t-27.5 -69.5t-71.5 -26.5
q-43 0 -70.5 26.5t-27.5 69.5t27.5 69.5t70.5 26.5z" />
    <glyph glyph-name="perthousand" unicode="&#x2030;" horiz-adv-x="2144" 
d="M1071 1409h121l-598 -1409h-121zM682 1014q0 -189 -80.5 -290t-224.5 -101q-143 0 -223 101.5t-80 289.5q0 189 80.5 291t222.5 102q144 0 224.5 -102t80.5 -291zM377 731q86 0 132 72t46 211q0 140 -46 211t-132 71t-132 -71t-46 -211q0 -139 46.5 -211t131.5 -72z
M1767 774q143 0 224.5 -102t81.5 -291q0 -188 -81.5 -289.5t-224.5 -101.5q-160 0 -241 125q-81 -125 -242 -125q-143 0 -224 101.5t-81 289.5q0 190 81 291.5t224 101.5q161 0 242 -125q81 125 241 125zM1284 100q86 0 132 71t46 210q0 141 -46 213t-132 72t-132 -72
t-46 -213q0 -139 46 -210t132 -71zM1767 100q86 0 132.5 71t46.5 210q0 141 -46.5 213t-132.5 72t-132 -72t-46 -213q0 -139 46 -210t132 -71z" />
    <glyph glyph-name="guilsinglleft" unicode="&#x2039;" horiz-adv-x="608" 
d="M78 485v25l266 295h135l-268 -307l270 -310h-137z" />
    <glyph glyph-name="guilsinglright" unicode="&#x203a;" horiz-adv-x="608" 
d="M530 485l-264 -297h-139l272 310l-270 307h137l264 -295v-25z" />
    <glyph glyph-name="fraction" unicode="&#x2044;" horiz-adv-x="315" 
d="M-205 0l598 1409h121l-598 -1409h-121z" />
    <glyph glyph-name="Euro" unicode="&#x20ac;" horiz-adv-x="1435" 
d="M842 100q142 0 233 74.5t129 196.5h129q-45 -174 -171 -277.5t-320 -103.5q-216 0 -366 132.5t-197 369.5h-205l22 110h168q-4 62 -4 92q0 35 4 97h-190l22 108h183q47 241 198 375.5t365 134.5q192 0 319.5 -105.5t171.5 -279.5h-129q-39 125 -131 199.5t-231 74.5
q-160 0 -276 -104.5t-158 -294.5h469l-23 -108h-463q-4 -62 -4 -95q0 -32 4 -94h486l-23 -110h-444q41 -187 156.5 -289.5t275.5 -102.5z" />
    <glyph glyph-name="trademark" unicode="&#x2122;" horiz-adv-x="1413" 
d="M61 1313v84h514v-84h-206v-504h-99v504h-209zM1149 1397h104v-588h-90v420l-174 -420h-67l-174 420v-420h-89v588h109l186 -449z" />
    <glyph glyph-name="oneeighth" unicode="&#x215b;" horiz-adv-x="1517" 
d="M950 1409h121l-598 -1409h-121zM483 721v-94h-391v94h146v500h-144v75q92 0 130 21t55 80h71v-676h133zM1311 410q131 -59 131 -191q0 -103 -79 -165t-204 -62q-126 0 -204 62t-78 165q0 132 131 191q-105 62 -105 168q0 93 72.5 151.5t183.5 58.5t182.5 -58.5
t71.5 -151.5q0 -105 -102 -168zM1159 698q-67 0 -108 -38.5t-41 -88.5q0 -52 41 -88.5t108 -36.5q69 0 109.5 37.5t38.5 87.5q2 49 -39.5 88t-108.5 39zM1159 82q76 0 124 40t48 99q0 62 -48 100.5t-124 38.5t-124 -38.5t-48 -100.5q0 -60 48.5 -99.5t123.5 -39.5z" />
    <glyph glyph-name="threeeighths" unicode="&#x215c;" horiz-adv-x="1576" 
d="M631 858q0 -110 -79.5 -170.5t-201.5 -60.5q-123 0 -199.5 63.5t-76.5 181.5h116q0 -73 44.5 -109t119.5 -36q70 0 112 32.5t42 94.5q-1 66 -43 98.5t-115 32.5h-69v88h63q70 0 111.5 29t42.5 86q-1 59 -41 91t-105 32q-68 0 -107 -37.5t-38 -104.5h-117q-1 112 70 177
t190 65q114 0 189 -58.5t75 -160.5q0 -108 -92 -160q106 -52 109 -174zM1042 1409h119l-596 -1409h-121zM1370 410q131 -59 131 -191q0 -103 -78.5 -165t-203.5 -62q-126 0 -205.5 62t-79.5 165q0 133 133 191q-104 62 -104 168q0 93 72.5 151.5t183.5 58.5t182.5 -58.5
t71.5 -151.5q0 -105 -103 -168zM1219 698q-67 0 -108.5 -38.5t-41.5 -88.5q0 -51 41.5 -88t108.5 -37q68 0 108.5 37.5t38.5 87.5q2 49 -39 88t-108 39zM1219 82q75 0 123.5 40t46.5 99q1 62 -46.5 100.5t-123.5 38.5q-77 0 -124.5 -38t-47.5 -101q0 -60 48.5 -99.5
t123.5 -39.5z" />
    <glyph glyph-name="fiveeighths" unicode="&#x215d;" horiz-adv-x="1595" 
d="M1053 1409h118l-596 -1409h-120zM631 879q0 -112 -79 -183t-204 -71t-200.5 68t-75.5 175h112q0 -63 44 -103t118 -40q76 0 123 43.5t47 110.5q0 73 -45 114t-123 41q-85 0 -158 -57l-96 35l43 385h451v-97h-365l-20 -204q69 37 157 37q122 0 196.5 -67.5t74.5 -186.5z
M1389 410q133 -58 133 -191q0 -103 -79.5 -165t-205.5 -62t-204.5 62t-78.5 165q0 132 131 191q-102 63 -102 168q0 93 71.5 151.5t182.5 58.5t183.5 -58.5t72.5 -151.5q0 -106 -104 -168zM1237 698q-66 0 -106.5 -38.5t-40.5 -88.5q0 -52 40.5 -88.5t108.5 -36.5
q67 0 107 37.5t40 87.5t-40.5 88.5t-108.5 38.5zM1237 82q76 0 125 40t47 99q1 62 -46.5 100.5t-123.5 38.5q-77 0 -125 -38.5t-47 -100.5q0 -60 48.5 -99.5t121.5 -39.5z" />
    <glyph glyph-name="seveneighths" unicode="&#x215e;" horiz-adv-x="1503" 
d="M907 1409h119l-596 -1409h-121zM188 627l291 671v2h-424v97h545v-94l-287 -676h-125zM1288 410q131 -59 131 -191q0 -103 -78.5 -165t-203.5 -62q-126 0 -205.5 62t-79.5 165q0 133 133 191q-104 62 -104 168q0 93 72.5 151.5t183.5 58.5t182.5 -58.5t71.5 -151.5
q0 -105 -103 -168zM1137 698q-67 0 -108.5 -38.5t-41.5 -88.5q0 -51 41.5 -88t108.5 -37q68 0 108.5 37.5t38.5 87.5q2 49 -39 88t-108 39zM1137 82q75 0 123.5 40t46.5 99q1 62 -46.5 100.5t-123.5 38.5q-77 0 -124.5 -38t-47.5 -101q0 -60 48.5 -99.5t123.5 -39.5z" />
    <glyph glyph-name="minus" unicode="&#x2212;" horiz-adv-x="1095" 
d="M150 657v105h796v-105h-796z" />
    <glyph glyph-name="approxequal" unicode="&#x2248;" horiz-adv-x="1099" 
d="M154 827v107q42 30 104.5 47.5t126.5 17.5q67 0 177.5 -32.5t168.5 -32.5q59 0 119 19.5t100 50.5v-107q-99 -69 -225 -66q-67 1 -180 33.5t-168 32.5q-59 0 -123.5 -21t-99.5 -49zM154 440v107q42 30 104.5 47.5t126.5 17.5q67 0 177.5 -32.5t168.5 -32.5q59 0 119 19
t100 50v-106q-99 -69 -225 -66q-67 1 -180 33.5t-168 32.5q-59 0 -123.5 -21t-99.5 -49z" />
    <glyph glyph-name="notequal" unicode="&#x2260;" horiz-adv-x="1095" 
d="M946 862h-274l-152 -305h426v-104h-477l-104 -213h-105l105 213h-215v104h266l151 305h-417v105h468l105 213h104l-104 -213h223v-105z" />
    <glyph glyph-name="uniF8FF" unicode="&#xf8ff;" horiz-adv-x="2912" 
d="M1386 1241q0 57 36 95t87 38q53 0 89 -38t36 -95q0 -54 -36.5 -91.5t-88.5 -37.5q-51 0 -87 37.5t-36 91.5zM440 575h-239q0 290 18 668h201q20 -420 20 -668zM1393 575q0 194 6 314h-123l6 -139q9 -9 31 -9q26 0 37 11v-158q-27 -31 -138 -31q-163 0 -163 139
q0 26 3 105t3 82h-43v168l239 63l2 -37h357q20 -134 20 -508h-237zM657 565q-87 0 -135.5 60.5t-48.5 181.5q0 140 66.5 214.5t203.5 74.5q125 0 186.5 -64.5t61.5 -185.5v-271h-166l-16 130q-13 -69 -48 -104.5t-104 -35.5zM2187 575h-229q0 56 2 120t2 79q0 33 -5.5 47.5
t-23.5 14.5q-23 0 -30 -15.5t-7 -46.5q0 -15 3.5 -79t3.5 -120h-230q0 367 21 508h161q11 -129 11 -161q2 21 9 44t23 55.5t50 53.5t80 21q85 0 117.5 -53.5t35.5 -174.5zM2712 834q0 -269 -248 -269q-124 0 -184 69t-60 195q0 55 11.5 99.5t38 84t77 61.5t121.5 22
q244 0 244 -262zM782 799q0 55 -47 55q-24 0 -34.5 -12.5t-10.5 -42.5q0 -64 45 -64q22 0 34.5 17t12.5 47zM2511 799q0 55 -47 55q-41 0 -41 -55q0 -64 41 -64q22 0 34.5 17t12.5 47zM858 508h209q20 -112 20 -295q0 -172 -67.5 -245.5t-237.5 -73.5q-128 0 -176 36v176
q51 -34 142 -34q32 0 55 7t33 18t14 19.5t4 14.5q-28 -22 -98 -22q-181 0 -181 176v28h-110l6 -139q12 -8 31 -8q27 0 37 10v-156q-37 -30 -138 -30q-90 0 -125.5 36t-35.5 115t6 172h-37v170l235 62l-2 -37h355v-254q0 -34 6 -45.5t24 -11.5t24.5 12t6.5 45v254zM1470 518
q75 0 118.5 -63t43.5 -179q0 -286 -276 -286q2 -33 2 -84h-238q0 282 21 602h155q15 -101 15 -164q3 17 6.5 31t16 43t28 48.5t44.5 35.5t64 16zM2148 270q0 -46 -6 -73h-250q22 -39 101 -39q67 0 110 24v-159q-47 -33 -155 -33q-141 0 -213 66.5t-72 193.5
q0 125 66.5 196.5t185.5 71.5q110 0 171.5 -64.5t61.5 -183.5zM1962 231q6 58 -33 58q-47 0 -47 -58h80zM1346 154q10 0 24.5 4.5t31.5 23.5t17 49q0 50 -41 50q-43 0 -43 -66q0 -28 11 -61zM2157 29q0 -23 12.5 -36t34.5 -13t35.5 13t13.5 36q0 22 -13.5 34.5t-35.5 12.5
t-34.5 -12.5t-12.5 -34.5zM2167 29q0 37 37 37t37 -37q0 -39 -37 -39t-37 39zM2224 4l-12 19q5 0 9.5 4.5t4.5 11.5q0 14 -20 14h-23v-49h10v19h11l8 -19h12zM2208 33h-15v12h15q8 0 8 -6t-8 -6z" />
    <glyph glyph-name="J.ss01" horiz-adv-x="937" 
d="M84 123q114 -12 223 -12q158 0 240 77.5t82 231.5v977h123v-977q0 -201 -113 -310.5t-330 -109.5q-111 0 -225 12v111z" />
    <glyph glyph-name="Jcircumflex.ss01" horiz-adv-x="950" 
d="M770 1724l180 -256h-106l-158 166l-158 -166h-106l182 256h166zM84 123q114 -12 223 -12q158 0 240 77.5t82 231.5v977h123v-977q0 -201 -113 -310.5t-330 -109.5q-111 0 -225 12v111z" />
    <glyph glyph-name="K.ss01" horiz-adv-x="1288" 
d="M1284 115l10 -111q-51 -14 -94 -14q-85 0 -141 41t-127 155l-324 510l-284 -311v-385h-125v1397h125v-854l763 854h156l-547 -602l373 -588q38 -61 70.5 -82t72.5 -21q44 0 72 11z" />
    <glyph glyph-name="Kcommaaccent.ss01" horiz-adv-x="1288" 
d="M1284 115l10 -111q-51 -14 -94 -14q-85 0 -141 41t-127 155l-324 510l-284 -311v-385h-125v1397h125v-854l763 854h156l-547 -602l373 -588q38 -61 70.5 -82t72.5 -21q44 0 72 11zM684 -92q98 0 98 -135q0 -113 -57.5 -182t-124.5 -66v72q35 0 62.5 32.5t27.5 85.5
q-46 0 -74 27.5t-28 71.5q0 43 28 68.5t68 25.5z" />
    <glyph glyph-name="R.ss01" horiz-adv-x="1267" 
d="M1165 0h-147l-293 588h-18h-383v-588h-125v1397h508q92 0 170 -25t138.5 -73t95 -126.5t34.5 -179.5q0 -154 -77 -252t-206 -133zM324 692h383q139 0 225 78t86 219q0 142 -85.5 219.5t-225.5 77.5h-383v-594z" />
    <glyph glyph-name="Racute.ss01" horiz-adv-x="1267" 
d="M846 1737l-166 -256h-119l96 256h189zM1165 0h-147l-293 588h-18h-383v-588h-125v1397h508q92 0 170 -25t138.5 -73t95 -126.5t34.5 -179.5q0 -154 -77 -252t-206 -133zM324 692h383q139 0 225 78t86 219q0 142 -85.5 219.5t-225.5 77.5h-383v-594z" />
    <glyph glyph-name="Rcaron.ss01" horiz-adv-x="1267" 
d="M700 1481h-165l-183 256h107l157 -168l158 168h107zM1165 0h-147l-293 588h-18h-383v-588h-125v1397h508q92 0 170 -25t138.5 -73t95 -126.5t34.5 -179.5q0 -154 -77 -252t-206 -133zM324 692h383q139 0 225 78t86 219q0 142 -85.5 219.5t-225.5 77.5h-383v-594z" />
    <glyph glyph-name="Rcommaaccent.ss01" horiz-adv-x="1267" 
d="M862 608l303 -608h-147l-293 588h-18h-383v-588h-125v1397h508q92 0 170 -25t138.5 -73t95 -126.5t34.5 -179.5q0 -154 -77 -252t-206 -133zM324 692h383q139 0 225 78t86 219q0 142 -85.5 219.5t-225.5 77.5h-383v-594zM659 -92q99 0 99 -135q0 -113 -58 -182t-125 -66
v72q35 0 63 32.5t28 85.5q-47 0 -75 28t-28 71t28 68.5t68 25.5z" />
    <glyph glyph-name="i.loclTRK" horiz-adv-x="450" 
d="M225 1421q44 0 71.5 -26.5t27.5 -69.5t-27.5 -69.5t-71.5 -26.5t-71 26.5t-27 69.5t27 69.5t71 26.5zM164 0v995h125v-995h-125z" />
    <glyph glyph-name="a.ss01" horiz-adv-x="1071" 
d="M518 1006q190 0 295 -103t105 -289v-614h-121l-4 174q-18 -32 -46 -61t-72 -58.5t-109 -47t-142 -17.5q-158 0 -244 72t-86 194q0 104 62.5 173t168.5 99.5t253 30.5h217v59q0 134 -74 207.5t-207 73.5q-118 0 -192.5 -58t-83.5 -163h-121q9 151 119.5 239.5t281.5 88.5z
M444 92q71 0 131.5 19.5t99.5 49t67.5 64.5t40.5 65t12 52v125h-217q-173 0 -265 -52t-92 -155q0 -78 57.5 -123t165.5 -45z" />
    <glyph glyph-name="aacute.ss01" horiz-adv-x="1071" 
d="M715 1470l-166 -313h-103l109 313h160zM518 1006q190 0 295 -103t105 -289v-614h-121l-4 174q-18 -32 -46 -61t-72 -58.5t-109 -47t-142 -17.5q-158 0 -244 72t-86 194q0 104 62.5 173t168.5 99.5t253 30.5h217v59q0 134 -74 207.5t-207 73.5q-118 0 -192.5 -58
t-83.5 -163h-121q9 151 119.5 239.5t281.5 88.5zM444 92q71 0 131.5 19.5t99.5 49t67.5 64.5t40.5 65t12 52v125h-217q-173 0 -265 -52t-92 -155q0 -78 57.5 -123t165.5 -45z" />
    <glyph glyph-name="abreve.ss01" horiz-adv-x="1071" 
d="M518 1153q-124 0 -193 79.5t-69 223.5h104q0 -107 43 -157t115 -50q156 3 156 207h106q0 -142 -69.5 -222.5t-192.5 -80.5zM518 1006q190 0 295 -103t105 -289v-614h-121l-4 174q-18 -32 -46 -61t-72 -58.5t-109 -47t-142 -17.5q-158 0 -244 72t-86 194q0 104 62.5 173
t168.5 99.5t253 30.5h217v59q0 134 -74 207.5t-207 73.5q-118 0 -192.5 -58t-83.5 -163h-121q9 151 119.5 239.5t281.5 88.5zM444 92q71 0 131.5 19.5t99.5 49t67.5 64.5t40.5 65t12 52v125h-217q-173 0 -265 -52t-92 -155q0 -78 57.5 -123t165.5 -45z" />
    <glyph glyph-name="acircumflex.ss01" horiz-adv-x="1071" 
d="M520 1372l-160 -215h-108l194 313h146l194 -313h-108zM518 1006q190 0 295 -103t105 -289v-614h-121l-4 174q-18 -32 -46 -61t-72 -58.5t-109 -47t-142 -17.5q-158 0 -244 72t-86 194q0 104 62.5 173t168.5 99.5t253 30.5h217v59q0 134 -74 207.5t-207 73.5
q-118 0 -192.5 -58t-83.5 -163h-121q9 151 119.5 239.5t281.5 88.5zM444 92q71 0 131.5 19.5t99.5 49t67.5 64.5t40.5 65t12 52v125h-217q-173 0 -265 -52t-92 -155q0 -78 57.5 -123t165.5 -45z" />
    <glyph glyph-name="adieresis.ss01" horiz-adv-x="1071" 
d="M346 1235q-40 0 -65 24t-25 64q0 38 25 63t65 25q39 0 63.5 -24.5t24.5 -63.5q0 -40 -24 -64t-64 -24zM707 1235q-40 0 -65.5 24.5t-25.5 63.5q0 38 25.5 63t65.5 25t65 -25t25 -63q0 -40 -25 -64t-65 -24zM518 1006q190 0 295 -103t105 -289v-614h-121l-4 174
q-18 -32 -46 -61t-72 -58.5t-109 -47t-142 -17.5q-158 0 -244 72t-86 194q0 104 62.5 173t168.5 99.5t253 30.5h217v59q0 134 -74 207.5t-207 73.5q-118 0 -192.5 -58t-83.5 -163h-121q9 151 119.5 239.5t281.5 88.5zM444 92q71 0 131.5 19.5t99.5 49t67.5 64.5t40.5 65
t12 52v125h-217q-173 0 -265 -52t-92 -155q0 -78 57.5 -123t165.5 -45z" />
    <glyph glyph-name="uni1EA1.ss01" horiz-adv-x="1071" 
d="M518 1006q190 0 295 -103t105 -289v-614h-121l-4 174q-18 -32 -46 -61t-72 -58.5t-109 -47t-142 -17.5q-158 0 -244 72t-86 194q0 104 62.5 173t168.5 99.5t253 30.5h217v59q0 134 -74 207.5t-207 73.5q-118 0 -192.5 -58t-83.5 -163h-121q9 151 119.5 239.5t281.5 88.5z
M444 92q71 0 131.5 19.5t99.5 49t67.5 64.5t40.5 65t12 52v125h-217q-173 0 -265 -52t-92 -155q0 -78 57.5 -123t165.5 -45zM514 -158q44 0 71 -26.5t27 -69.5t-27 -69.5t-71 -26.5t-71 26.5t-27 69.5t27 69.5t71 26.5z" />
    <glyph glyph-name="agrave.ss01" horiz-adv-x="1071" 
d="M602 1157h-102l-166 313h160zM518 1006q190 0 295 -103t105 -289v-614h-121l-4 174q-18 -32 -46 -61t-72 -58.5t-109 -47t-142 -17.5q-158 0 -244 72t-86 194q0 104 62.5 173t168.5 99.5t253 30.5h217v59q0 134 -74 207.5t-207 73.5q-118 0 -192.5 -58t-83.5 -163h-121
q9 151 119.5 239.5t281.5 88.5zM444 92q71 0 131.5 19.5t99.5 49t67.5 64.5t40.5 65t12 52v125h-217q-173 0 -265 -52t-92 -155q0 -78 57.5 -123t165.5 -45z" />
    <glyph glyph-name="amacron.ss01" horiz-adv-x="1071" 
d="M788 1370v-98h-530v98h530zM518 1006q190 0 295 -103t105 -289v-614h-121l-4 174q-18 -32 -46 -61t-72 -58.5t-109 -47t-142 -17.5q-158 0 -244 72t-86 194q0 104 62.5 173t168.5 99.5t253 30.5h217v59q0 134 -74 207.5t-207 73.5q-118 0 -192.5 -58t-83.5 -163h-121
q9 151 119.5 239.5t281.5 88.5zM444 92q71 0 131.5 19.5t99.5 49t67.5 64.5t40.5 65t12 52v125h-217q-173 0 -265 -52t-92 -155q0 -78 57.5 -123t165.5 -45z" />
    <glyph glyph-name="aogonek.ss01" horiz-adv-x="1071" 
d="M954 -283l37 -71q-49 -52 -149 -52q-84 0 -135.5 46t-51.5 127q0 136 142 237l-4 170q-18 -32 -46 -61t-72 -58.5t-109 -47t-142 -17.5q-158 0 -244 72t-86 194q0 104 62.5 173t168.5 99.5t253 30.5h217v59q0 134 -74 207.5t-207 73.5q-118 0 -192.5 -58t-83.5 -163h-121
q9 151 119.5 239.5t281.5 88.5q190 0 295 -103t105 -289v-610l2 -4q-7 -4 -18 -10.5t-39.5 -29t-50.5 -46t-40 -60t-18 -73.5q0 -48 27.5 -73t68.5 -25q57 0 104 34zM444 92q71 0 131.5 19.5t99.5 49t67.5 64.5t40.5 65t12 52v125h-217q-173 0 -265 -52t-92 -155
q0 -78 57.5 -123t165.5 -45z" />
    <glyph glyph-name="aring.ss01" horiz-adv-x="1071" 
d="M520 1143q-74 0 -125 47.5t-51 120.5q0 77 50.5 125.5t125.5 48.5q73 0 123.5 -48.5t50.5 -125.5q0 -73 -50.5 -120.5t-123.5 -47.5zM520 1397q-41 0 -63.5 -23.5t-22.5 -62.5q0 -36 23 -60t63 -24q39 0 62.5 24t23.5 60q0 39 -23.5 62.5t-62.5 23.5zM518 1006
q190 0 295 -103t105 -289v-614h-121l-4 174q-18 -32 -46 -61t-72 -58.5t-109 -47t-142 -17.5q-158 0 -244 72t-86 194q0 104 62.5 173t168.5 99.5t253 30.5h217v59q0 134 -74 207.5t-207 73.5q-118 0 -192.5 -58t-83.5 -163h-121q9 151 119.5 239.5t281.5 88.5zM444 92
q71 0 131.5 19.5t99.5 49t67.5 64.5t40.5 65t12 52v125h-217q-173 0 -265 -52t-92 -155q0 -78 57.5 -123t165.5 -45z" />
    <glyph glyph-name="aringacute.ss01" horiz-adv-x="1071" 
d="M520 1143q-74 0 -125 47.5t-51 120.5q0 77 50.5 125.5t125.5 48.5q81 0 135 -60l58 160h135l-156 -301q-9 -63 -57.5 -102t-114.5 -39zM520 1397q-41 0 -63.5 -23.5t-22.5 -62.5q0 -36 23 -60t63 -24q39 0 62.5 24t23.5 60q0 39 -23.5 62.5t-62.5 23.5zM518 1006
q190 0 295 -103t105 -289v-614h-121l-4 174q-18 -32 -46 -61t-72 -58.5t-109 -47t-142 -17.5q-158 0 -244 72t-86 194q0 104 62.5 173t168.5 99.5t253 30.5h217v59q0 134 -74 207.5t-207 73.5q-118 0 -192.5 -58t-83.5 -163h-121q9 151 119.5 239.5t281.5 88.5zM444 92
q71 0 131.5 19.5t99.5 49t67.5 64.5t40.5 65t12 52v125h-217q-173 0 -265 -52t-92 -155q0 -78 57.5 -123t165.5 -45z" />
    <glyph glyph-name="atilde.ss01" horiz-adv-x="1071" 
d="M381 1315q-38 0 -61.5 -27t-24.5 -74h-94q0 97 43 150t129 53q48 0 86.5 -17t60 -38t50.5 -38t59 -17q39 0 62.5 26.5t23.5 73.5h96q0 -97 -47 -150t-127 -53q-45 0 -83.5 17.5t-60 38t-51.5 38t-61 17.5zM518 1006q190 0 295 -103t105 -289v-614h-121l-4 174
q-18 -32 -46 -61t-72 -58.5t-109 -47t-142 -17.5q-158 0 -244 72t-86 194q0 104 62.5 173t168.5 99.5t253 30.5h217v59q0 134 -74 207.5t-207 73.5q-118 0 -192.5 -58t-83.5 -163h-121q9 151 119.5 239.5t281.5 88.5zM444 92q71 0 131.5 19.5t99.5 49t67.5 64.5t40.5 65
t12 52v125h-217q-173 0 -265 -52t-92 -155q0 -78 57.5 -123t165.5 -45z" />
    <glyph glyph-name="f.ss01" horiz-adv-x="714" 
d="M338 995h346v-104h-346v-891h-123v891h-141v104h141v197q0 123 81 197.5t210 74.5q128 0 205 -75.5t77 -190.5h-114q2 71 -45 114.5t-123 43.5q-77 0 -122.5 -44t-45.5 -120v-197z" />
    <glyph glyph-name="g.ss01" horiz-adv-x="1204" 
d="M911 995h117v-956q0 -469 -522 -469q-170 0 -313 59v117q158 -68 313 -68q215 0 307 93.5t92 267.5v156q-47 -91 -136 -145t-212 -60q-204 0 -330.5 140t-126.5 370q0 229 126.5 367.5t330.5 138.5q124 0 213.5 -54.5t136.5 -150.5zM563 98q101 0 180.5 52t120.5 134.5
t41 178.5v72q0 146 -95.5 255t-246.5 109q-152 0 -244 -108.5t-92 -290.5q0 -184 92 -293t244 -109z" />
    <glyph glyph-name="gbreve.ss01" horiz-adv-x="1204" 
d="M598 1153q-124 0 -193 79.5t-69 223.5h104q0 -107 43 -157t115 -50q156 3 156 207h106q0 -142 -69.5 -222.5t-192.5 -80.5zM911 995h117v-956q0 -469 -522 -469q-170 0 -313 59v117q158 -68 313 -68q215 0 307 93.5t92 267.5v156q-47 -91 -136 -145t-212 -60
q-204 0 -330.5 140t-126.5 370q0 229 126.5 367.5t330.5 138.5q124 0 213.5 -54.5t136.5 -150.5zM563 98q101 0 180.5 52t120.5 134.5t41 178.5v72q0 146 -95.5 255t-246.5 109q-152 0 -244 -108.5t-92 -290.5q0 -184 92 -293t244 -109z" />
    <glyph glyph-name="gcaron.ss01" horiz-adv-x="1204" 
d="M674 1157h-146l-194 313h108l158 -215l158 215h108zM911 995h117v-956q0 -469 -522 -469q-170 0 -313 59v117q158 -68 313 -68q215 0 307 93.5t92 267.5v156q-47 -91 -136 -145t-212 -60q-204 0 -330.5 140t-126.5 370q0 229 126.5 367.5t330.5 138.5q124 0 213.5 -54.5
t136.5 -150.5zM563 98q101 0 180.5 52t120.5 134.5t41 178.5v72q0 146 -95.5 255t-246.5 109q-152 0 -244 -108.5t-92 -290.5q0 -184 92 -293t244 -109z" />
    <glyph glyph-name="gcircumflex.ss01" horiz-adv-x="1204" 
d="M600 1372l-160 -215h-108l194 313h146l194 -313h-108zM911 995h117v-956q0 -469 -522 -469q-170 0 -313 59v117q158 -68 313 -68q215 0 307 93.5t92 267.5v156q-47 -91 -136 -145t-212 -60q-204 0 -330.5 140t-126.5 370q0 229 126.5 367.5t330.5 138.5
q124 0 213.5 -54.5t136.5 -150.5zM563 98q101 0 180.5 52t120.5 134.5t41 178.5v72q0 146 -95.5 255t-246.5 109q-152 0 -244 -108.5t-92 -290.5q0 -184 92 -293t244 -109z" />
    <glyph glyph-name="gcommaaccent.ss01" horiz-adv-x="1204" 
d="M582 1137q-99 0 -99 135q0 113 58 182t125 66v-72q-35 0 -63 -33t-28 -86q47 0 75 -27.5t28 -70.5t-28 -68.5t-68 -25.5zM911 995h117v-956q0 -469 -522 -469q-170 0 -313 59v117q158 -68 313 -68q215 0 307 93.5t92 267.5v156q-47 -91 -136 -145t-212 -60
q-204 0 -330.5 140t-126.5 370q0 229 126.5 367.5t330.5 138.5q124 0 213.5 -54.5t136.5 -150.5zM563 98q101 0 180.5 52t120.5 134.5t41 178.5v72q0 146 -95.5 255t-246.5 109q-152 0 -244 -108.5t-92 -290.5q0 -184 92 -293t244 -109z" />
    <glyph glyph-name="gdotaccent.ss01" horiz-adv-x="1204" 
d="M598 1229q-44 0 -71 26.5t-27 69.5t27 69.5t71 26.5t71 -26.5t27 -69.5t-27 -69.5t-71 -26.5zM911 995h117v-956q0 -469 -522 -469q-170 0 -313 59v117q158 -68 313 -68q215 0 307 93.5t92 267.5v156q-47 -91 -136 -145t-212 -60q-204 0 -330.5 140t-126.5 370
q0 229 126.5 367.5t330.5 138.5q124 0 213.5 -54.5t136.5 -150.5zM563 98q101 0 180.5 52t120.5 134.5t41 178.5v72q0 146 -95.5 255t-246.5 109q-152 0 -244 -108.5t-92 -290.5q0 -184 92 -293t244 -109z" />
    <glyph glyph-name="j.ss01" horiz-adv-x="466" 
d="M342 1323q0 -41 -28 -68.5t-68 -27.5t-68 27.5t-28 68.5t28 68.5t68 27.5t68 -27.5t28 -68.5zM25 -324q155 0 155 170v1149h123v-1153q0 -128 -75.5 -200t-202.5 -72q-117 0 -193 66t-76 198h113q0 -78 41 -118t115 -40z" />
    <glyph glyph-name="uni0237.ss01" horiz-adv-x="466" 
d="M25 -324q155 0 155 170v1149h123v-1153q0 -128 -75.5 -200t-202.5 -72q-117 0 -193 66t-76 198h113q0 -78 41 -118t115 -40z" />
    <glyph glyph-name="jcircumflex.ss01" horiz-adv-x="466" 
d="M-33 1157l195 313h145l195 -313h-109l-157 215l-160 -215h-109zM25 -430q-117 0 -193 66t-76 198h113q0 -78 41 -118t115 -40q155 0 155 170v1149h123v-1153q0 -128 -75.5 -200t-202.5 -72z" />
    <glyph glyph-name="l.ss01" horiz-adv-x="450" 
d="M164 0v1444h123v-1444h-123z" />
    <glyph glyph-name="lacute.ss01" horiz-adv-x="450" 
d="M281 1507h-119l96 256h188zM164 0v1444h123v-1444h-123z" />
    <glyph glyph-name="lcaron.ss01" horiz-adv-x="466" 
d="M412 1184q38 0 65 34t27 93q-47 0 -75 27.5t-28 70.5t28.5 68.5t68.5 25.5q98 0 98 -133q0 -121 -57 -190.5t-127 -67.5v72zM164 0v1444h123v-1444h-123z" />
    <glyph glyph-name="lcommaaccent.ss01" horiz-adv-x="450" 
d="M164 0v1444h123v-1444h-123zM141 -403q35 0 62.5 32.5t27.5 85.5q-47 0 -74.5 27.5t-27.5 71.5q0 43 28 68.5t68 25.5q99 0 99 -135q0 -113 -58 -182t-125 -66v72z" />
    <glyph glyph-name="ldot.ss01" horiz-adv-x="577" 
d="M164 0v1444h123v-1444h-123zM516 799q44 0 71 -27t27 -70t-27 -69.5t-71 -26.5q-43 0 -70.5 26.5t-27.5 69.5t27.5 70t70.5 27z" />
    <glyph glyph-name="lslash.ss01" horiz-adv-x="585" 
d="M539 829l-181 -110v-719h-125v643l-139 -84l-47 84l186 113v688h125v-613l134 82z" />
    <glyph glyph-name="t.ss01" horiz-adv-x="845" 
d="M698 311h113q0 -152 -79 -235.5t-220 -83.5t-223 82.5t-82 240.5v572h-160v108h166v303h119v-303h393v-104h-393v-576q0 -112 45.5 -163.5t134.5 -51.5q186 0 186 211z" />
    <glyph glyph-name="tbar.ss01" horiz-adv-x="860" 
d="M698 311h113q0 -152 -79 -235.5t-220 -83.5t-223 82.5t-82 240.5v207h-127v92h127v273h-160v108h166v303h119v-303h393v-104h-393v-277h303v-92h-303v-207q0 -112 45.5 -163.5t134.5 -51.5q186 0 186 211z" />
    <glyph glyph-name="tcaron.ss01" horiz-adv-x="860" 
d="M584 1313q-47 -1 -75 26t-28 70t28.5 68.5t68.5 25.5q42 0 70 -33.5t28 -103.5q0 -106 -57 -165t-127 -56v69q37 0 64.5 25.5t27.5 73.5zM698 311h113q0 -152 -79 -235.5t-220 -83.5t-223 82.5t-82 240.5v572h-160v108h166v303h119v-303h393v-104h-393v-576
q0 -112 45.5 -163.5t134.5 -51.5q186 0 186 211z" />
    <glyph glyph-name="uni0163.ss01" horiz-adv-x="860" 
d="M512 -8h-16l-17 -80q70 -5 116 -41.5t46 -108.5q0 -76 -54.5 -120.5t-154.5 -44.5q-66 0 -115 18l19 88q44 -18 100 -18q55 0 84 20t29 53q0 84 -164 84l35 160q-101 25 -157 104t-56 209v572h-160v108h166v303h119v-303h393v-104h-393v-576q0 -112 45.5 -163.5
t134.5 -51.5q186 0 186 211h113q0 -152 -79 -235.5t-220 -83.5z" />
    <glyph glyph-name="uni021B.ss01" horiz-adv-x="860" 
d="M698 311h113q0 -152 -79 -235.5t-220 -83.5t-223 82.5t-82 240.5v572h-160v108h166v303h119v-303h393v-104h-393v-576q0 -112 45.5 -163.5t134.5 -51.5q186 0 186 211zM492 -92q98 0 98 -135q0 -113 -57.5 -182t-124.5 -66v72q35 0 62.5 32.5t27.5 85.5q-47 0 -75 28
t-28 71t28.5 68.5t68.5 25.5z" />
    <glyph glyph-name="u.ss01" horiz-adv-x="1153" 
d="M1083 115l13 -109q-50 -16 -99 -16q-77 0 -120 47t-43 131q-48 -82 -131.5 -130t-194.5 -48q-158 0 -257 101.5t-99 266.5v637h124v-620q0 -128 69 -202.5t183 -74.5q140 0 223 85.5t83 209.5v602h124v-805q0 -42 19.5 -64t52.5 -22q26 0 53 11z" />
    <glyph glyph-name="uacute.ss01" horiz-adv-x="1153" 
d="M752 1470l-166 -313h-103l109 313h160zM1083 115l13 -109q-50 -16 -99 -16q-77 0 -120 47t-43 131q-48 -82 -131.5 -130t-194.5 -48q-158 0 -257 101.5t-99 266.5v637h124v-620q0 -128 69 -202.5t183 -74.5q140 0 223 85.5t83 209.5v602h124v-805q0 -42 19.5 -64
t52.5 -22q26 0 53 11z" />
    <glyph glyph-name="ubreve.ss01" horiz-adv-x="1153" 
d="M555 1153q-124 0 -193 79.5t-69 223.5h104q0 -107 43 -157t115 -50q156 3 156 207h106q0 -142 -69.5 -222.5t-192.5 -80.5zM1083 115l13 -109q-50 -16 -99 -16q-77 0 -120 47t-43 131q-48 -82 -131.5 -130t-194.5 -48q-158 0 -257 101.5t-99 266.5v637h124v-620
q0 -128 69 -202.5t183 -74.5q140 0 223 85.5t83 209.5v602h124v-805q0 -42 19.5 -64t52.5 -22q26 0 53 11z" />
    <glyph glyph-name="ucircumflex.ss01" horiz-adv-x="1153" 
d="M557 1372l-160 -215h-108l194 313h146l194 -313h-108zM1083 115l13 -109q-50 -16 -99 -16q-77 0 -120 47t-43 131q-48 -82 -131.5 -130t-194.5 -48q-158 0 -257 101.5t-99 266.5v637h124v-620q0 -128 69 -202.5t183 -74.5q140 0 223 85.5t83 209.5v602h124v-805
q0 -42 19.5 -64t52.5 -22q26 0 53 11z" />
    <glyph glyph-name="udieresis.ss01" horiz-adv-x="1153" 
d="M385 1235q-40 0 -65 24t-25 64q0 38 25 63t65 25q39 0 63.5 -24.5t24.5 -63.5q0 -40 -24 -64t-64 -24zM745 1235q-40 0 -65 24t-25 64q0 38 25 63t65 25t65.5 -25t25.5 -63q0 -39 -25.5 -63.5t-65.5 -24.5zM1083 115l13 -109q-50 -16 -99 -16q-77 0 -120 47t-43 131
q-48 -82 -131.5 -130t-194.5 -48q-158 0 -257 101.5t-99 266.5v637h124v-620q0 -128 69 -202.5t183 -74.5q140 0 223 85.5t83 209.5v602h124v-805q0 -42 19.5 -64t52.5 -22q26 0 53 11z" />
    <glyph glyph-name="uni1EE5.ss01" horiz-adv-x="1153" 
d="M1083 115l13 -109q-50 -16 -99 -16q-77 0 -120 47t-43 131q-48 -82 -131.5 -130t-194.5 -48q-158 0 -257 101.5t-99 266.5v637h124v-620q0 -128 69 -202.5t183 -74.5q140 0 223 85.5t83 209.5v602h124v-805q0 -42 19.5 -64t52.5 -22q26 0 53 11zM567 -158
q44 0 71.5 -26.5t27.5 -69.5t-27.5 -69.5t-71.5 -26.5t-71 26.5t-27 69.5t27 69.5t71 26.5z" />
    <glyph glyph-name="ugrave.ss01" horiz-adv-x="1153" 
d="M641 1157h-102l-166 313h159zM1083 115l13 -109q-50 -16 -99 -16q-77 0 -120 47t-43 131q-48 -82 -131.5 -130t-194.5 -48q-158 0 -257 101.5t-99 266.5v637h124v-620q0 -128 69 -202.5t183 -74.5q140 0 223 85.5t83 209.5v602h124v-805q0 -42 19.5 -64t52.5 -22
q26 0 53 11z" />
    <glyph glyph-name="uhungarumlaut.ss01" horiz-adv-x="1153" 
d="M623 1470l-166 -313h-99l97 313h168zM909 1470l-166 -313h-98l96 313h168zM1083 115l13 -109q-50 -16 -99 -16q-77 0 -120 47t-43 131q-48 -82 -131.5 -130t-194.5 -48q-158 0 -257 101.5t-99 266.5v637h124v-620q0 -128 69 -202.5t183 -74.5q140 0 223 85.5t83 209.5
v602h124v-805q0 -42 19.5 -64t52.5 -22q26 0 53 11z" />
    <glyph glyph-name="umacron.ss01" horiz-adv-x="1153" 
d="M825 1370v-98h-530v98h530zM1083 115l13 -109q-50 -16 -99 -16q-77 0 -120 47t-43 131q-48 -82 -131.5 -130t-194.5 -48q-158 0 -257 101.5t-99 266.5v637h124v-620q0 -128 69 -202.5t183 -74.5q140 0 223 85.5t83 209.5v602h124v-805q0 -42 19.5 -64t52.5 -22
q26 0 53 11z" />
    <glyph glyph-name="uogonek.ss01" horiz-adv-x="1153" 
d="M1130 -276l37 -72q-48 -51 -149 -51q-84 0 -135.5 45.5t-51.5 126.5q0 125 121 221q-56 14 -87 59t-31 115q-48 -82 -131.5 -130t-194.5 -48q-158 0 -257 101.5t-99 266.5v637h124v-620q0 -128 69 -202.5t183 -74.5q140 0 223 85.5t83 209.5v602h124v-805q0 -42 19.5 -64
t52.5 -22q26 0 53 11l13 -109q-7 -4 -18 -10.5t-39.5 -29t-50.5 -46t-40 -60t-18 -73.5q0 -48 27.5 -73t68.5 -25q55 0 104 35z" />
    <glyph glyph-name="uring.ss01" horiz-adv-x="1153" 
d="M557 1143q-74 0 -125 47.5t-51 120.5q0 77 50.5 125.5t125.5 48.5q73 0 123.5 -48.5t50.5 -125.5q0 -73 -50.5 -120.5t-123.5 -47.5zM557 1397q-41 0 -63.5 -23.5t-22.5 -62.5q0 -36 23 -60t63 -24q39 0 62.5 24t23.5 60q0 39 -23.5 62.5t-62.5 23.5zM1083 115l13 -109
q-50 -16 -99 -16q-77 0 -120 47t-43 131q-48 -82 -131.5 -130t-194.5 -48q-158 0 -257 101.5t-99 266.5v637h124v-620q0 -128 69 -202.5t183 -74.5q140 0 223 85.5t83 209.5v602h124v-805q0 -42 19.5 -64t52.5 -22q26 0 53 11z" />
    <glyph glyph-name="utilde.ss01" horiz-adv-x="1153" 
d="M420 1315q-38 0 -61.5 -27t-24.5 -74h-94q0 97 43 150t129 53q48 0 86.5 -17t60 -38t50.5 -38t59 -17q39 0 62.5 26.5t23.5 73.5h96q0 -97 -47 -150t-127 -53q-45 0 -83.5 17.5t-60 38t-51.5 38t-61 17.5zM1083 115l13 -109q-50 -16 -99 -16q-77 0 -120 47t-43 131
q-48 -82 -131.5 -130t-194.5 -48q-158 0 -257 101.5t-99 266.5v637h124v-620q0 -128 69 -202.5t183 -74.5q140 0 223 85.5t83 209.5v602h124v-805q0 -42 19.5 -64t52.5 -22q26 0 53 11z" />
    <glyph glyph-name="y.ss01" 
d="M834 995h124v-1028q0 -190 -108.5 -293.5t-300.5 -103.5q-175 0 -281 80.5t-121 226.5h125q12 -99 83.5 -149t191.5 -50q289 0 289 289v207q-48 -84 -133 -134t-197 -50q-164 0 -259 99t-95 267v639h124v-620q0 -129 70 -203t193 -74q131 0 213 86.5t82 208.5v602z" />
    <glyph glyph-name="yacute.ss01" 
d="M756 1470l-166 -313h-103l109 313h160zM834 995h124v-1028q0 -190 -108.5 -293.5t-300.5 -103.5q-175 0 -281 80.5t-121 226.5h125q12 -99 83.5 -149t191.5 -50q289 0 289 289v207q-48 -84 -133 -134t-197 -50q-164 0 -259 99t-95 267v639h124v-620q0 -129 70 -203
t193 -74q131 0 213 86.5t82 208.5v602z" />
    <glyph glyph-name="ycircumflex.ss01" 
d="M561 1372l-160 -215h-108l194 313h146l194 -313h-108zM834 995h124v-1028q0 -190 -108.5 -293.5t-300.5 -103.5q-175 0 -281 80.5t-121 226.5h125q12 -99 83.5 -149t191.5 -50q289 0 289 289v207q-48 -84 -133 -134t-197 -50q-164 0 -259 99t-95 267v639h124v-620
q0 -129 70 -203t193 -74q131 0 213 86.5t82 208.5v602z" />
    <glyph glyph-name="ydieresis.ss01" 
d="M381 1235q-40 0 -65 24t-25 64q0 38 25 63t65 25q39 0 63.5 -24.5t24.5 -63.5q0 -40 -24 -64t-64 -24zM741 1235q-40 0 -65 24t-25 64q0 38 25 63t65 25t65 -25t25 -63q0 -40 -25 -64t-65 -24zM834 995h124v-1028q0 -190 -108.5 -293.5t-300.5 -103.5q-175 0 -281 80.5
t-121 226.5h125q12 -99 83.5 -149t191.5 -50q289 0 289 289v207q-48 -84 -133 -134t-197 -50q-164 0 -259 99t-95 267v639h124v-620q0 -129 70 -203t193 -74q131 0 213 86.5t82 208.5v602z" />
    <glyph glyph-name="ygrave.ss01" 
d="M633 1157h-103l-165 313h159zM834 995h124v-1028q0 -190 -108.5 -293.5t-300.5 -103.5q-175 0 -281 80.5t-121 226.5h125q12 -99 83.5 -149t191.5 -50q289 0 289 289v207q-48 -84 -133 -134t-197 -50q-164 0 -259 99t-95 267v639h124v-620q0 -129 70 -203t193 -74
q131 0 213 86.5t82 208.5v602z" />
    <glyph glyph-name="uni0233.ss01" 
d="M838 1370v-98h-531v98h531zM834 995h124v-1028q0 -190 -108.5 -293.5t-300.5 -103.5q-175 0 -281 80.5t-121 226.5h125q12 -99 83.5 -149t191.5 -50q289 0 289 289v207q-48 -84 -133 -134t-197 -50q-164 0 -259 99t-95 267v639h124v-620q0 -129 70 -203t193 -74
q131 0 213 86.5t82 208.5v602z" />
    <glyph glyph-name="uni1EF9.ss01" 
d="M430 1315q-38 0 -61.5 -27t-24.5 -74h-94q0 97 43 150t129 53q48 0 86.5 -17t60 -38t50.5 -38t59 -17q39 0 62.5 26.5t23.5 73.5h96q0 -97 -47 -150t-127 -53q-45 0 -83.5 17.5t-60 38t-51.5 38t-61 17.5zM834 995h124v-1028q0 -190 -108.5 -293.5t-300.5 -103.5
q-175 0 -281 80.5t-121 226.5h125q12 -99 83.5 -149t191.5 -50q289 0 289 289v207q-48 -84 -133 -134t-197 -50q-164 0 -259 99t-95 267v639h124v-620q0 -129 70 -203t193 -74q131 0 213 86.5t82 208.5v602z" />
    <glyph glyph-name="f.ss02" horiz-adv-x="714" 
d="M571 1335q-120 0 -176.5 -59t-56.5 -180v-101h344v-104h-344v-891h-123v891h-141v104h141v101q0 175 92 261.5t258 86.5q57 0 125 -8v-109q-65 8 -119 8z" />
    <glyph glyph-name="g.ss02" horiz-adv-x="1204" 
d="M911 995h117v-981q0 -424 -524 -424q-141 0 -311 17v106q140 -14 311 -14q217 0 309 80t92 235v181q-47 -91 -136 -145t-212 -60q-204 0 -330.5 140t-126.5 370q0 229 126.5 367.5t330.5 138.5q124 0 213.5 -54.5t136.5 -150.5zM563 98q101 0 180.5 52t120.5 134.5
t41 178.5v72q0 146 -95.5 255t-246.5 109q-152 0 -244 -108.5t-92 -290.5q0 -184 92 -293t244 -109z" />
    <glyph glyph-name="gbreve.ss02" horiz-adv-x="1204" 
d="M598 1153q-124 0 -193 79.5t-69 223.5h104q0 -107 43 -157t115 -50q156 3 156 207h106q0 -142 -69.5 -222.5t-192.5 -80.5zM911 995h117v-981q0 -424 -524 -424q-141 0 -311 17v106q140 -14 311 -14q217 0 309 80t92 235v181q-47 -91 -136 -145t-212 -60
q-204 0 -330.5 140t-126.5 370q0 229 126.5 367.5t330.5 138.5q124 0 213.5 -54.5t136.5 -150.5zM563 98q101 0 180.5 52t120.5 134.5t41 178.5v72q0 146 -95.5 255t-246.5 109q-152 0 -244 -108.5t-92 -290.5q0 -184 92 -293t244 -109z" />
    <glyph glyph-name="gcaron.ss02" horiz-adv-x="1204" 
d="M674 1157h-146l-194 313h108l158 -215l158 215h108zM911 995h117v-981q0 -424 -524 -424q-141 0 -311 17v106q140 -14 311 -14q217 0 309 80t92 235v181q-47 -91 -136 -145t-212 -60q-204 0 -330.5 140t-126.5 370q0 229 126.5 367.5t330.5 138.5q124 0 213.5 -54.5
t136.5 -150.5zM563 98q101 0 180.5 52t120.5 134.5t41 178.5v72q0 146 -95.5 255t-246.5 109q-152 0 -244 -108.5t-92 -290.5q0 -184 92 -293t244 -109z" />
    <glyph glyph-name="gcircumflex.ss02" horiz-adv-x="1204" 
d="M600 1372l-160 -215h-108l194 313h146l194 -313h-108zM911 995h117v-981q0 -424 -524 -424q-141 0 -311 17v106q140 -14 311 -14q217 0 309 80t92 235v181q-47 -91 -136 -145t-212 -60q-204 0 -330.5 140t-126.5 370q0 229 126.5 367.5t330.5 138.5q124 0 213.5 -54.5
t136.5 -150.5zM563 98q101 0 180.5 52t120.5 134.5t41 178.5v72q0 146 -95.5 255t-246.5 109q-152 0 -244 -108.5t-92 -290.5q0 -184 92 -293t244 -109z" />
    <glyph glyph-name="gcommaaccent.ss02" horiz-adv-x="1191" 
d="M586 1137q-99 0 -99 135q0 113 58 182t125 66v-72q-35 0 -62.5 -33t-27.5 -86q47 0 74.5 -27.5t27.5 -70.5t-28 -68.5t-68 -25.5zM911 995h117v-981q0 -424 -524 -424q-141 0 -311 17v106q140 -14 311 -14q217 0 309 80t92 235v181q-47 -91 -136 -145t-212 -60
q-204 0 -330.5 140t-126.5 370q0 229 126.5 367.5t330.5 138.5q124 0 213.5 -54.5t136.5 -150.5zM563 98q101 0 180.5 52t120.5 134.5t41 178.5v72q0 146 -95.5 255t-246.5 109q-152 0 -244 -108.5t-92 -290.5q0 -184 92 -293t244 -109z" />
    <glyph glyph-name="gdotaccent.ss02" horiz-adv-x="1204" 
d="M598 1229q-44 0 -71 26.5t-27 69.5t27 69.5t71 26.5t71 -26.5t27 -69.5t-27 -69.5t-71 -26.5zM911 995h117v-981q0 -424 -524 -424q-141 0 -311 17v106q140 -14 311 -14q217 0 309 80t92 235v181q-47 -91 -136 -145t-212 -60q-204 0 -330.5 140t-126.5 370
q0 229 126.5 367.5t330.5 138.5q124 0 213.5 -54.5t136.5 -150.5zM563 98q101 0 180.5 52t120.5 134.5t41 178.5v72q0 146 -95.5 255t-246.5 109q-152 0 -244 -108.5t-92 -290.5q0 -184 92 -293t244 -109z" />
    <glyph glyph-name="j.ss02" horiz-adv-x="466" 
d="M342 1323q0 -41 -28 -68.5t-68 -27.5t-68 27.5t-28 68.5t28 68.5t68 27.5t68 -27.5t28 -68.5zM-27 -416q-51 0 -125 6v111q65 -8 117 -8q215 0 215 239v1063h123v-1063q0 -174 -89 -261t-241 -87z" />
    <glyph glyph-name="uni0237.ss02" horiz-adv-x="466" 
d="M-27 -416q-51 0 -125 6v111q65 -8 117 -8q215 0 215 239v1063h123v-1063q0 -174 -89 -261t-241 -87z" />
    <glyph glyph-name="jcircumflex.ss02" horiz-adv-x="466" 
d="M-33 1157l195 313h145l195 -313h-109l-157 215l-160 -215h-109zM-27 -416q-51 0 -125 6v111q65 -8 117 -8q215 0 215 239v1063h123v-1063q0 -174 -89 -261t-241 -87z" />
    <glyph glyph-name="t.ss02" horiz-adv-x="722" 
d="M567 109q58 0 123 8v-111q-76 -6 -131 -6q-179 0 -267.5 83t-88.5 265v539h-156v108h162v303h117v-303h346v-104h-346v-543q0 -129 53.5 -184t187.5 -55z" />
    <glyph glyph-name="tbar.ss02" horiz-adv-x="722" 
d="M567 109q58 0 123 8v-111q-76 -6 -131 -6q-179 0 -267.5 83t-88.5 265v174h-123v92h123v273h-156v108h162v303h117v-303h346v-104h-346v-277h309v-92h-309v-174q0 -129 53.5 -184t187.5 -55z" />
    <glyph glyph-name="tcaron.ss02" horiz-adv-x="722" 
d="M584 1313q-47 -1 -75 26t-28 70t28.5 68.5t68.5 25.5q42 0 70 -33.5t28 -103.5q0 -106 -57 -165t-127 -56v69q37 0 64.5 25.5t27.5 73.5zM567 109q58 0 123 8v-111q-76 -6 -131 -6q-179 0 -267.5 83t-88.5 265v539h-156v108h162v303h117v-303h346v-104h-346v-543
q0 -129 53.5 -184t187.5 -55z" />
    <glyph glyph-name="uni0163.ss02" horiz-adv-x="722" 
d="M559 0q-28 0 -78 4l-20 -92q70 -5 116 -41.5t46 -108.5q0 -76 -54.5 -120.5t-154.5 -44.5q-66 0 -115 18l18 88q44 -18 101 -18q55 0 83.5 20t28.5 53q0 84 -163 84l36 178q-200 60 -200 328v539h-156v108h162v303h117v-303h346v-104h-346v-543q0 -129 53.5 -184
t187.5 -55q58 0 123 8v-111q-76 -6 -131 -6z" />
    <glyph glyph-name="uni021B.ss02" horiz-adv-x="722" 
d="M567 109q58 0 123 8v-111q-76 -6 -131 -6q-179 0 -267.5 83t-88.5 265v539h-156v108h162v303h117v-303h346v-104h-346v-543q0 -129 53.5 -184t187.5 -55zM459 -92q98 0 98 -135q0 -113 -57.5 -182t-124.5 -66v72q35 0 62.5 32.5t27.5 85.5q-47 0 -75 28t-28 71t28.5 68.5
t68.5 25.5z" />
    <glyph glyph-name="y.ss02" 
d="M834 995h124v-981q0 -200 -115 -312t-341 -112q-142 0 -312 17v106q140 -14 312 -14q334 0 334 315v160q-48 -84 -133 -134t-197 -50q-164 0 -259 99t-95 267v639h124v-620q0 -129 70 -203t193 -74q131 0 213 86.5t82 208.5v602z" />
    <glyph glyph-name="yacute.ss02" 
d="M756 1470l-166 -313h-103l109 313h160zM834 995h124v-981q0 -200 -115 -312t-341 -112q-142 0 -312 17v106q140 -14 312 -14q334 0 334 315v160q-48 -84 -133 -134t-197 -50q-164 0 -259 99t-95 267v639h124v-620q0 -129 70 -203t193 -74q131 0 213 86.5t82 208.5v602z
" />
    <glyph glyph-name="ycircumflex.ss02" 
d="M561 1372l-160 -215h-108l194 313h146l194 -313h-108zM834 995h124v-981q0 -200 -115 -312t-341 -112q-142 0 -312 17v106q140 -14 312 -14q334 0 334 315v160q-48 -84 -133 -134t-197 -50q-164 0 -259 99t-95 267v639h124v-620q0 -129 70 -203t193 -74q131 0 213 86.5
t82 208.5v602z" />
    <glyph glyph-name="ydieresis.ss02" 
d="M381 1235q-40 0 -65 24t-25 64q0 38 25 63t65 25q39 0 63.5 -24.5t24.5 -63.5q0 -40 -24 -64t-64 -24zM741 1235q-40 0 -65 24t-25 64q0 38 25 63t65 25t65 -25t25 -63q0 -40 -25 -64t-65 -24zM834 995h124v-981q0 -200 -115 -312t-341 -112q-142 0 -312 17v106
q140 -14 312 -14q334 0 334 315v160q-48 -84 -133 -134t-197 -50q-164 0 -259 99t-95 267v639h124v-620q0 -129 70 -203t193 -74q131 0 213 86.5t82 208.5v602z" />
    <glyph glyph-name="ygrave.ss02" 
d="M633 1157h-103l-165 313h159zM834 995h124v-981q0 -200 -115 -312t-341 -112q-142 0 -312 17v106q140 -14 312 -14q334 0 334 315v160q-48 -84 -133 -134t-197 -50q-164 0 -259 99t-95 267v639h124v-620q0 -129 70 -203t193 -74q131 0 213 86.5t82 208.5v602z" />
    <glyph glyph-name="uni0233.ss02" 
d="M838 1370v-98h-531v98h531zM834 995h124v-981q0 -200 -115 -312t-341 -112q-142 0 -312 17v106q140 -14 312 -14q334 0 334 315v160q-48 -84 -133 -134t-197 -50q-164 0 -259 99t-95 267v639h124v-620q0 -129 70 -203t193 -74q131 0 213 86.5t82 208.5v602z" />
    <glyph glyph-name="uni1EF9.ss02" 
d="M430 1315q-38 0 -61.5 -27t-24.5 -74h-94q0 97 43 150t129 53q48 0 86.5 -17t60 -38t50.5 -38t59 -17q39 0 62.5 26.5t23.5 73.5h96q0 -97 -47 -150t-127 -53q-45 0 -83.5 17.5t-60 38t-51.5 38t-61 17.5zM834 995h124v-981q0 -200 -115 -312t-341 -112q-142 0 -312 17
v106q140 -14 312 -14q334 0 334 315v160q-48 -84 -133 -134t-197 -50q-164 0 -259 99t-95 267v639h124v-620q0 -129 70 -203t193 -74q131 0 213 86.5t82 208.5v602z" />
    <glyph glyph-name="y.ss03" 
d="M834 995h124v-956q0 -224 -118.5 -346.5t-360.5 -122.5q-156 0 -307 59v117q166 -68 311 -68q353 0 353 361v135q-48 -84 -133 -134t-197 -50q-164 0 -259 99t-95 267v639h124v-620q0 -129 70 -203t193 -74q131 0 213 86.5t82 208.5v602z" />
    <glyph glyph-name="yacute.ss03" 
d="M756 1470l-166 -313h-103l109 313h160zM834 995h124v-956q0 -224 -118.5 -346.5t-360.5 -122.5q-156 0 -307 59v117q166 -68 311 -68q353 0 353 361v135q-48 -84 -133 -134t-197 -50q-164 0 -259 99t-95 267v639h124v-620q0 -129 70 -203t193 -74q131 0 213 86.5
t82 208.5v602z" />
    <glyph glyph-name="ycircumflex.ss03" 
d="M561 1372l-160 -215h-108l194 313h146l194 -313h-108zM834 995h124v-956q0 -224 -118.5 -346.5t-360.5 -122.5q-156 0 -307 59v117q166 -68 311 -68q353 0 353 361v135q-48 -84 -133 -134t-197 -50q-164 0 -259 99t-95 267v639h124v-620q0 -129 70 -203t193 -74
q131 0 213 86.5t82 208.5v602z" />
    <glyph glyph-name="ydieresis.ss03" 
d="M381 1235q-40 0 -65 24t-25 64q0 38 25 63t65 25q39 0 63.5 -24.5t24.5 -63.5q0 -40 -24 -64t-64 -24zM741 1235q-40 0 -65 24t-25 64q0 38 25 63t65 25t65 -25t25 -63q0 -40 -25 -64t-65 -24zM834 995h124v-956q0 -224 -118.5 -346.5t-360.5 -122.5q-156 0 -307 59v117
q166 -68 311 -68q353 0 353 361v135q-48 -84 -133 -134t-197 -50q-164 0 -259 99t-95 267v639h124v-620q0 -129 70 -203t193 -74q131 0 213 86.5t82 208.5v602z" />
    <glyph glyph-name="ygrave.ss03" 
d="M633 1157h-103l-165 313h159zM834 995h124v-956q0 -224 -118.5 -346.5t-360.5 -122.5q-156 0 -307 59v117q166 -68 311 -68q353 0 353 361v135q-48 -84 -133 -134t-197 -50q-164 0 -259 99t-95 267v639h124v-620q0 -129 70 -203t193 -74q131 0 213 86.5t82 208.5v602z
" />
    <glyph glyph-name="uni0233.ss03" 
d="M838 1370v-98h-531v98h531zM834 995h124v-956q0 -224 -118.5 -346.5t-360.5 -122.5q-156 0 -307 59v117q166 -68 311 -68q353 0 353 361v135q-48 -84 -133 -134t-197 -50q-164 0 -259 99t-95 267v639h124v-620q0 -129 70 -203t193 -74q131 0 213 86.5t82 208.5v602z" />
    <glyph glyph-name="uni1EF9.ss03" 
d="M430 1315q-38 0 -61.5 -27t-24.5 -74h-94q0 97 43 150t129 53q48 0 86.5 -17t60 -38t50.5 -38t59 -17q39 0 62.5 26.5t23.5 73.5h96q0 -97 -47 -150t-127 -53q-45 0 -83.5 17.5t-60 38t-51.5 38t-61 17.5zM834 995h124v-956q0 -224 -118.5 -346.5t-360.5 -122.5
q-156 0 -307 59v117q166 -68 311 -68q353 0 353 361v135q-48 -84 -133 -134t-197 -50q-164 0 -259 99t-95 267v639h124v-620q0 -129 70 -203t193 -74q131 0 213 86.5t82 208.5v602z" />
    <glyph glyph-name="a.sc" horiz-adv-x="1112" 
d="M944 0l-115 272h-546l-115 -272h-127l442 1049h146l442 -1049h-127zM326 377h460l-229 553z" />
    <glyph glyph-name="aacute.sc" horiz-adv-x="1112" 
d="M762 1524l-166 -314h-102l108 314h160zM944 0l-115 272h-546l-115 -272h-127l442 1049h146l442 -1049h-127zM326 377h460l-229 553z" />
    <glyph glyph-name="abreve.sc" horiz-adv-x="1112" 
d="M565 1206q-124 0 -193 79.5t-69 223.5h105q0 -107 42.5 -156.5t114.5 -49.5q156 3 156 206h106q0 -142 -69.5 -222.5t-192.5 -80.5zM944 0l-115 272h-546l-115 -272h-127l442 1049h146l442 -1049h-127zM326 377h460l-229 553z" />
    <glyph glyph-name="acircumflex.sc" horiz-adv-x="1112" 
d="M567 1425l-159 -215h-109l195 314h145l195 -314h-109zM944 0l-115 272h-546l-115 -272h-127l442 1049h146l442 -1049h-127zM326 377h460l-229 553z" />
    <glyph glyph-name="adieresis.sc" horiz-adv-x="1112" 
d="M393 1288q-40 0 -65 24t-25 64q0 38 25 63t65 25q39 0 63.5 -24.5t24.5 -63.5q0 -40 -24 -64t-64 -24zM754 1288q-40 0 -65 24t-25 64q0 38 25 63t65 25t65 -25t25 -63q0 -40 -25 -64t-65 -24zM944 0l-115 272h-546l-115 -272h-127l442 1049h146l442 -1049h-127zM326 377
h460l-229 553z" />
    <glyph glyph-name="uni1EA1.sc" horiz-adv-x="1112" 
d="M1071 0h-127l-115 272h-546l-115 -272h-127l442 1049h146zM326 377h460l-229 553zM555 -158q44 0 71 -26.5t27 -69.5t-27 -69.5t-71 -26.5t-71 26.5t-27 69.5t27 69.5t71 26.5z" />
    <glyph glyph-name="agrave.sc" horiz-adv-x="1112" 
d="M651 1210h-102l-166 314h160zM944 0l-115 272h-546l-115 -272h-127l442 1049h146l442 -1049h-127zM326 377h460l-229 553z" />
    <glyph glyph-name="amacron.sc" horiz-adv-x="1112" 
d="M836 1423v-98h-531v98h531zM944 0l-115 272h-546l-115 -272h-127l442 1049h146l442 -1049h-127zM326 377h460l-229 553z" />
    <glyph glyph-name="aogonek.sc" horiz-adv-x="1112" 
d="M1106 -283l37 -71q-49 -52 -150 -52q-84 0 -135 45.5t-51 127.5q0 131 137 233l-115 272h-546l-115 -272h-127l442 1049h146l442 -1049q-7 -4 -18 -10.5t-39.5 -29t-50.5 -46t-40 -60t-18 -73.5q0 -48 27.5 -73t68.5 -25q58 0 105 34zM326 377h460l-229 553z" />
    <glyph glyph-name="aring.sc" horiz-adv-x="1112" 
d="M567 1196q-74 0 -125 47.5t-51 120.5q0 77 50.5 125.5t125.5 48.5q73 0 123.5 -48.5t50.5 -125.5q0 -73 -50.5 -120.5t-123.5 -47.5zM567 1450q-41 0 -63.5 -23.5t-22.5 -62.5q0 -36 23 -60t63 -24q39 0 62.5 24t23.5 60q0 39 -23.5 62.5t-62.5 23.5zM944 0l-115 272
h-546l-115 -272h-127l442 1049h146l442 -1049h-127zM326 377h460l-229 553z" />
    <glyph glyph-name="aringacute.sc" horiz-adv-x="1112" 
d="M567 1196q-74 0 -125 47.5t-51 120.5q0 77 50.5 125.5t125.5 48.5q95 0 148 -76l86 180h133l-195 -305q-9 -63 -57.5 -102t-114.5 -39zM567 1450q-41 0 -63.5 -23.5t-22.5 -62.5q0 -36 23 -60t63 -24q39 0 62.5 24t23.5 60q0 39 -23.5 62.5t-62.5 23.5zM944 0l-115 272
h-546l-115 -272h-127l442 1049h146l442 -1049h-127zM326 377h460l-229 553z" />
    <glyph glyph-name="atilde.sc" horiz-adv-x="1112" 
d="M430 1368q-38 0 -61.5 -26.5t-24.5 -73.5h-94q0 97 43 149.5t129 52.5q48 0 86.5 -17t60 -38t50.5 -38t59 -17q39 0 62.5 26.5t23.5 73.5h96q0 -97 -47 -150t-127 -53q-45 0 -83.5 17.5t-60 38t-51.5 38t-61 17.5zM944 0l-115 272h-546l-115 -272h-127l442 1049h146
l442 -1049h-127zM326 377h460l-229 553z" />
    <glyph glyph-name="ae.sc" horiz-adv-x="1595" 
d="M899 111h594v-111h-717v272h-452l-187 -272h-133l701 1049h782v-111h-588v-342h535v-107h-535v-378zM393 377h383v559h-2z" />
    <glyph glyph-name="aeacute.sc" horiz-adv-x="1595" 
d="M1010 1524l-166 -314h-103l109 314h160zM899 111h594v-111h-717v272h-452l-187 -272h-133l701 1049h782v-111h-588v-342h535v-107h-535v-378zM393 377h383v559h-2z" />
    <glyph glyph-name="b.sc" horiz-adv-x="1110" 
d="M788 549q39 -8 75.5 -26.5t69 -49.5t52 -79.5t19.5 -108.5q0 -129 -91.5 -207t-240.5 -78h-496v1049h483q141 0 222.5 -72t81.5 -189q0 -45 -13.5 -83.5t-33 -63.5t-44.5 -44.5t-45.5 -29t-38.5 -14.5v-4zM838 770q0 84 -56.5 130t-154.5 46h-326v-356h317q104 0 162 48
t58 132zM651 102q104 0 165 51t61 144q0 98 -63.5 147.5t-182.5 49.5h-330v-392h350z" />
    <glyph glyph-name="c.sc" horiz-adv-x="1222" 
d="M635 102q167 0 263 75.5t112 195.5h125q-21 -171 -149.5 -276t-350.5 -105q-233 0 -383 148t-150 384q0 237 151 386t382 149q220 0 350 -107t150 -278h-125q-16 121 -112.5 197.5t-262.5 76.5q-175 0 -291.5 -117.5t-116.5 -306.5t116 -305.5t292 -116.5z" />
    <glyph glyph-name="cacute.sc" horiz-adv-x="1222" 
d="M664 1210h-103l109 314h159zM635 102q167 0 263 75.5t112 195.5h125q-21 -171 -149.5 -276t-350.5 -105q-233 0 -383 148t-150 384q0 237 151 386t382 149q220 0 350 -107t150 -278h-125q-16 121 -112.5 197.5t-262.5 76.5q-175 0 -291.5 -117.5t-116.5 -306.5
t116 -305.5t292 -116.5z" />
    <glyph glyph-name="ccaron.sc" horiz-adv-x="1222" 
d="M369 1524h108l158 -215l158 215h108l-192 -314h-146zM635 102q167 0 263 75.5t112 195.5h125q-21 -171 -149.5 -276t-350.5 -105q-233 0 -383 148t-150 384q0 237 151 386t382 149q220 0 350 -107t150 -278h-125q-16 121 -112.5 197.5t-262.5 76.5q-175 0 -291.5 -117.5
t-116.5 -306.5t116 -305.5t292 -116.5z" />
    <glyph glyph-name="ccedilla.sc" horiz-adv-x="1222" 
d="M635 102q167 0 263 75.5t112 195.5h125q-21 -166 -143.5 -270.5t-334.5 -110.5l-16 -80q70 -5 116 -41.5t46 -108.5q0 -76 -54.5 -120.5t-154.5 -44.5q-66 0 -115 18l19 88q44 -18 100 -18q55 0 84 20t29 53q0 84 -164 84l33 152q-213 19 -345.5 164t-132.5 366
q0 237 151 386t382 149q220 0 350 -107t150 -278h-125q-16 121 -112.5 197.5t-262.5 76.5q-175 0 -291.5 -117.5t-116.5 -306.5t116 -305.5t292 -116.5z" />
    <glyph glyph-name="ccircumflex.sc" horiz-adv-x="1222" 
d="M367 1210l194 314h146l194 -314h-108l-158 215l-160 -215h-108zM635 102q167 0 263 75.5t112 195.5h125q-21 -171 -149.5 -276t-350.5 -105q-233 0 -383 148t-150 384q0 237 151 386t382 149q220 0 350 -107t150 -278h-125q-16 121 -112.5 197.5t-262.5 76.5
q-175 0 -291.5 -117.5t-116.5 -306.5t116 -305.5t292 -116.5z" />
    <glyph glyph-name="cdotaccent.sc" horiz-adv-x="1222" 
d="M633 1475q44 0 71 -27t27 -70t-27 -69.5t-71 -26.5t-71 26.5t-27 69.5t27 70t71 27zM635 102q167 0 263 75.5t112 195.5h125q-21 -171 -149.5 -276t-350.5 -105q-233 0 -383 148t-150 384q0 237 151 386t382 149q220 0 350 -107t150 -278h-125q-16 121 -112.5 197.5
t-262.5 76.5q-175 0 -291.5 -117.5t-116.5 -306.5t116 -305.5t292 -116.5z" />
    <glyph glyph-name="d.sc" horiz-adv-x="1257" 
d="M604 1049q246 0 398.5 -141t152.5 -384t-152.5 -383.5t-396.5 -140.5h-430v1049h428zM606 106q189 0 306.5 111.5t117.5 306.5q0 194 -118 306t-308 112h-303v-836h305z" />
    <glyph glyph-name="eth.sc" horiz-adv-x="1271" 
d="M618 1049q246 0 398.5 -141t152.5 -384t-152 -383.5t-396 -140.5h-431v479h-137v92h137v478h428zM621 106q189 0 306 111.5t117 306.5q0 194 -118 306t-308 112h-303v-371h293v-92h-293v-373h306z" />
    <glyph glyph-name="dcaron.sc" horiz-adv-x="1257" 
d="M674 1210h-146l-194 314h108l158 -215l158 215h108zM604 1049q246 0 398.5 -141t152.5 -384t-152.5 -383.5t-396.5 -140.5h-430v1049h428zM606 106q189 0 306.5 111.5t117.5 306.5q0 194 -118 306t-308 112h-303v-836h305z" />
    <glyph glyph-name="dcroat.sc" horiz-adv-x="1271" 
d="M618 1049q246 0 398.5 -141t152.5 -384t-152 -383.5t-396 -140.5h-431v479h-137v92h137v478h428zM621 106q189 0 306 111.5t117 306.5q0 194 -118 306t-308 112h-303v-371h293v-92h-293v-373h306z" />
    <glyph glyph-name="e.sc" horiz-adv-x="1067" 
d="M301 109h664v-109h-789v1049h782v-109h-657v-344h600v-107h-600v-380z" />
    <glyph glyph-name="eacute.sc" horiz-adv-x="1067" 
d="M776 1524l-166 -314h-102l108 314h160zM301 109h664v-109h-789v1049h782v-109h-657v-344h600v-107h-600v-380z" />
    <glyph glyph-name="ebreve.sc" horiz-adv-x="1067" 
d="M580 1206q-124 0 -193.5 79.5t-69.5 223.5h105q0 -107 43 -156.5t115 -49.5q155 3 155 206h107q0 -142 -69.5 -222.5t-192.5 -80.5zM301 109h664v-109h-789v1049h782v-109h-657v-344h600v-107h-600v-380z" />
    <glyph glyph-name="ecaron.sc" horiz-adv-x="1067" 
d="M655 1210h-145l-195 314h109l158 -215l157 215h109zM301 109h664v-109h-789v1049h782v-109h-657v-344h600v-107h-600v-380z" />
    <glyph glyph-name="ecircumflex.sc" horiz-adv-x="1067" 
d="M582 1425l-160 -215h-109l195 314h145l195 -314h-109zM301 109h664v-109h-789v1049h782v-109h-657v-344h600v-107h-600v-380z" />
    <glyph glyph-name="edieresis.sc" horiz-adv-x="1067" 
d="M408 1288q-40 0 -65.5 24.5t-25.5 63.5q0 38 25.5 63t65.5 25q39 0 63.5 -24.5t24.5 -63.5q0 -40 -24 -64t-64 -24zM768 1288q-40 0 -65 24t-25 64q0 38 25 63t65 25t65 -25t25 -63q0 -40 -25 -64t-65 -24zM301 109h664v-109h-789v1049h782v-109h-657v-344h600v-107h-600
v-380z" />
    <glyph glyph-name="edotaccent.sc" horiz-adv-x="1067" 
d="M582 1282q-44 0 -71.5 26.5t-27.5 69.5t27.5 70t71.5 27t71 -27t27 -70t-27 -69.5t-71 -26.5zM301 109h664v-109h-789v1049h782v-109h-657v-344h600v-107h-600v-380z" />
    <glyph glyph-name="uni1EB9.sc" horiz-adv-x="1067" 
d="M301 109h664v-109h-789v1049h782v-109h-657v-344h600v-107h-600v-380zM578 -158q44 0 71 -26.5t27 -69.5t-27 -69.5t-71 -26.5t-71.5 26.5t-27.5 69.5t27.5 69.5t71.5 26.5z" />
    <glyph glyph-name="egrave.sc" horiz-adv-x="1067" 
d="M664 1210h-103l-166 314h160zM301 109h664v-109h-789v1049h782v-109h-657v-344h600v-107h-600v-380z" />
    <glyph glyph-name="emacron.sc" horiz-adv-x="1067" 
d="M850 1423v-98h-531v98h531zM301 109h664v-109h-789v1049h782v-109h-657v-344h600v-107h-600v-380z" />
    <glyph glyph-name="eogonek.sc" horiz-adv-x="1067" 
d="M999 -283l37 -71q-49 -52 -149 -52q-84 0 -135.5 46t-51.5 127q0 130 138 233h-662v1049h782v-109h-657v-344h600v-107h-600v-380h664v-109q-7 -4 -18 -10.5t-39.5 -29t-50.5 -46t-40 -60t-18 -73.5q0 -48 27.5 -73t68.5 -25q57 0 104 34z" />
    <glyph glyph-name="uni1EBD.sc" horiz-adv-x="1067" 
d="M442 1368q-38 0 -61.5 -26.5t-24.5 -73.5h-94q0 97 43 149.5t129 52.5q48 0 86.5 -17t60 -38t50.5 -38t59 -17q39 0 62.5 26.5t23.5 73.5h96q0 -97 -47 -150t-127 -53q-45 0 -83.5 17.5t-60 38t-51.5 38t-61 17.5zM301 109h664v-109h-789v1049h782v-109h-657v-344h600
v-107h-600v-380z" />
    <glyph glyph-name="uni0259.sc" horiz-adv-x="1224" 
d="M604 1057q228 0 372 -149.5t144 -383.5q0 -236 -146.5 -384t-367.5 -148q-251 0 -380.5 138.5t-129.5 391.5v23h899q-7 182 -121 292.5t-268 110.5q-148 0 -242.5 -67.5t-117.5 -167.5h-125q28 149 154.5 246.5t328.5 97.5zM606 102q141 0 250 92t133 248h-768
q17 -168 116.5 -254t268.5 -86z" />
    <glyph glyph-name="f.sc" horiz-adv-x="1001" 
d="M938 942h-637v-385h563v-104h-563v-453h-125v1049h762v-107z" />
    <glyph glyph-name="g.sc" horiz-adv-x="1269" 
d="M645 535h502v-535h-94v203q-55 -98 -159 -154.5t-253 -56.5q-237 0 -388 148t-151 386q0 239 152 386t399 147q217 0 342 -100.5t146 -262.5h-125q-19 111 -109.5 181.5t-251.5 70.5q-192 0 -309 -115t-117 -307q0 -190 116 -307t298 -117q179 0 287 92.5t108 217.5h6v22
h-399v101z" />
    <glyph glyph-name="gbreve.sc" horiz-adv-x="1269" 
d="M653 1214q-123 0 -192.5 80t-69.5 224h105q0 -107 42.5 -157t114.5 -50q156 3 156 207h106q0 -143 -69.5 -223.5t-192.5 -80.5zM645 535h502v-535h-94v203q-55 -98 -159 -154.5t-253 -56.5q-237 0 -388 148t-151 386q0 239 152 386t399 147q217 0 342 -100.5t146 -262.5
h-125q-19 111 -109.5 181.5t-251.5 70.5q-192 0 -309 -115t-117 -307q0 -190 116 -307t298 -117q179 0 287 92.5t108 217.5h6v22h-399v101z" />
    <glyph glyph-name="gcaron.sc" horiz-adv-x="1269" 
d="M729 1219h-145l-195 313h109l157 -215l158 215h109zM645 535h502v-535h-94v203q-55 -98 -159 -154.5t-253 -56.5q-237 0 -388 148t-151 386q0 239 152 386t399 147q217 0 342 -100.5t146 -262.5h-125q-19 111 -109.5 181.5t-251.5 70.5q-192 0 -309 -115t-117 -307
q0 -190 116 -307t298 -117q179 0 287 92.5t108 217.5h6v22h-399v101z" />
    <glyph glyph-name="gcircumflex.sc" horiz-adv-x="1269" 
d="M655 1434l-159 -215h-109l195 313h145l195 -313h-109zM645 535h502v-535h-94v203q-55 -98 -159 -154.5t-253 -56.5q-237 0 -388 148t-151 386q0 239 152 386t399 147q217 0 342 -100.5t146 -262.5h-125q-19 111 -109.5 181.5t-251.5 70.5q-192 0 -309 -115t-117 -307
q0 -190 116 -307t298 -117q179 0 287 92.5t108 217.5h6v22h-399v101z" />
    <glyph glyph-name="gcommaaccent.sc" horiz-adv-x="1269" 
d="M645 535h502v-535h-94v203q-55 -98 -159 -154.5t-253 -56.5q-237 0 -388 148t-151 386q0 239 152 386t399 147q217 0 342 -100.5t146 -262.5h-125q-19 111 -109.5 181.5t-251.5 70.5q-192 0 -309 -115t-117 -307q0 -190 116 -307t298 -117q179 0 287 92.5t108 217.5h6v22
h-399v101zM645 -92q98 0 98 -135q0 -113 -57.5 -182t-124.5 -66v72q35 0 62.5 32.5t27.5 85.5q-47 0 -74.5 27.5t-27.5 71.5q0 43 28 68.5t68 25.5z" />
    <glyph glyph-name="gdotaccent.sc" horiz-adv-x="1269" 
d="M653 1290q-44 0 -71 26.5t-27 69.5t27 70t71 27t71.5 -27t27.5 -70t-27.5 -69.5t-71.5 -26.5zM645 535h502v-535h-94v203q-55 -98 -159 -154.5t-253 -56.5q-237 0 -388 148t-151 386q0 239 152 386t399 147q217 0 342 -100.5t146 -262.5h-125q-19 111 -109.5 181.5
t-251.5 70.5q-192 0 -309 -115t-117 -307q0 -190 116 -307t298 -117q179 0 287 92.5t108 217.5h6v22h-399v101z" />
    <glyph glyph-name="h.sc" horiz-adv-x="1275" 
d="M973 1049h125v-1049h-125v487h-672v-487h-125v1049h125v-451h672v451z" />
    <glyph glyph-name="hbar.sc" horiz-adv-x="1282" 
d="M1217 903v-104h-115v-799h-125v487h-672v-487h-125v799h-106v104h106v146h125v-146h672v146h125v-146h115zM977 598v201h-672v-201h672z" />
    <glyph glyph-name="hcircumflex.sc" horiz-adv-x="1275" 
d="M639 1425l-160 -215h-108l194 314h146l194 -314h-108zM973 1049h125v-1049h-125v487h-672v-487h-125v1049h125v-451h672v451z" />
    <glyph glyph-name="i.sc" horiz-adv-x="477" 
d="M176 0v1049h125v-1049h-125z" />
    <glyph glyph-name="iacute.sc" horiz-adv-x="477" 
d="M268 1210h-102l108 314h160zM176 0v1049h125v-1049h-125z" />
    <glyph glyph-name="ibreve.sc" horiz-adv-x="477" 
d="M500 1509q0 -142 -69.5 -222.5t-192.5 -80.5q-124 0 -193.5 79.5t-69.5 223.5h105q0 -107 43 -156.5t115 -49.5q155 3 155 206h107zM176 0v1049h125v-1049h-125z" />
    <glyph glyph-name="icircumflex.sc" horiz-adv-x="477" 
d="M-29 1210l195 314h145l195 -314h-109l-157 215l-160 -215h-109zM176 0v1049h125v-1049h-125z" />
    <glyph glyph-name="idieresis.sc" horiz-adv-x="477" 
d="M66 1464q39 0 63.5 -24.5t24.5 -63.5q0 -40 -24 -64t-64 -24t-65.5 24.5t-25.5 63.5q0 38 25.5 63t65.5 25zM426 1464q40 0 65 -25t25 -63q0 -40 -25 -64t-65 -24t-65 24t-25 64q0 38 25 63t65 25zM176 0v1049h125v-1049h-125z" />
    <glyph glyph-name="i.sc.loclTRK" horiz-adv-x="477" 
d="M238 1475q44 0 71 -27t27 -70t-27 -69.5t-71 -26.5t-71.5 26.5t-27.5 69.5t27.5 70t71.5 27zM176 0v1049h125v-1049h-125z" />
    <glyph glyph-name="uni1ECB.sc" horiz-adv-x="477" 
d="M176 0v1049h125v-1049h-125zM240 -158q44 0 71 -26.5t27 -69.5t-27 -69.5t-71 -26.5t-71.5 26.5t-27.5 69.5t27.5 69.5t71.5 26.5z" />
    <glyph glyph-name="igrave.sc" horiz-adv-x="477" 
d="M219 1210l-166 314h160l109 -314h-103zM176 0v1049h125v-1049h-125z" />
    <glyph glyph-name="ij.sc" horiz-adv-x="1402" 
d="M176 0v1049h125v-1049h-125zM668 317q1 -106 61 -160.5t164 -54.5q106 0 162.5 56.5t56.5 160.5v730h125v-730q0 -151 -89 -238t-257 -87q-167 0 -256.5 86t-89.5 237h123z" />
    <glyph glyph-name="imacron.sc" horiz-adv-x="477" 
d="M-23 1325v98h531v-98h-531zM176 0v1049h125v-1049h-125z" />
    <glyph glyph-name="iogonek.sc" horiz-adv-x="477" 
d="M336 -283l37 -71q-49 -52 -150 -52q-84 0 -135 45.5t-51 127.5q0 131 139 235v1047h125v-1049q-7 -4 -18 -10.5t-39.5 -29t-50.5 -46t-40 -60t-18 -73.5q0 -48 27.5 -73t68.5 -25q58 0 105 34z" />
    <glyph glyph-name="itilde.sc" horiz-adv-x="477" 
d="M100 1368q-38 0 -61.5 -26.5t-24.5 -73.5h-94q0 97 43 149.5t129 52.5q48 0 86.5 -17t60 -38t50.5 -38t59 -17q39 0 62.5 26.5t23.5 73.5h96q0 -97 -47 -150t-127 -53q-45 0 -83.5 17.5t-60 38t-51.5 38t-61 17.5zM176 0v1049h125v-1049h-125z" />
    <glyph glyph-name="j.sc" horiz-adv-x="913" 
d="M176 317q1 -106 61 -160.5t164 -54.5q106 0 163 56.5t57 160.5v730h124v-730q0 -151 -89 -238t-257 -87q-167 0 -256.5 86t-89.5 237h123z" />
    <glyph glyph-name="jcircumflex.sc" horiz-adv-x="913" 
d="M412 1210l194 314h146l194 -314h-108l-158 215l-160 -215h-108zM176 317q1 -106 61 -160.5t164 -54.5q106 0 163 56.5t57 160.5v730h124v-730q0 -151 -89 -238t-257 -87q-167 0 -256.5 86t-89.5 237h123z" />
    <glyph glyph-name="k.sc" horiz-adv-x="1132" 
d="M967 0l-432 506l-234 -223v-283h-125v1049h125v-619l627 619h155l-458 -459l493 -590h-151z" />
    <glyph glyph-name="kcommaaccent.sc" horiz-adv-x="1132" 
d="M625 590l493 -590h-151l-432 506l-234 -223v-283h-125v1049h125v-619l627 619h155zM586 -92q98 0 98 -135q0 -113 -57.5 -182t-124.5 -66v72q35 0 62.5 32.5t27.5 85.5q-47 0 -75 28t-28 71t28.5 68.5t68.5 25.5z" />
    <glyph glyph-name="l.sc" horiz-adv-x="983" 
d="M301 111h643v-111h-768v1049h125v-938z" />
    <glyph glyph-name="lacute.sc" horiz-adv-x="983" 
d="M426 1524l-166 -314h-102l108 314h160zM301 111h643v-111h-768v1049h125v-938z" />
    <glyph glyph-name="lcaron.sc" horiz-adv-x="987" 
d="M735 887q-46 0 -74 27t-28 69q0 44 28 69t68 25q98 0 98 -133q0 -113 -57.5 -182t-124.5 -66v72q36 0 63 33t27 86zM301 111h643v-111h-768v1049h125v-938z" />
    <glyph glyph-name="lcommaaccent.sc" horiz-adv-x="983" 
d="M301 111h643v-111h-768v1049h125v-938zM573 -92q99 0 99 -135q0 -113 -58 -182t-125 -66v72q35 0 63 32.5t28 85.5q-47 0 -75 28t-28 71t28 68.5t68 25.5z" />
    <glyph glyph-name="ldot.sc" horiz-adv-x="995" 
d="M301 111h643v-111h-768v1049h125v-938zM715 442q-43 0 -71 27t-28 70q0 42 28 69t71 27q44 0 71 -26.5t27 -69.5t-27 -70t-71 -27z" />
    <glyph glyph-name="lslash.sc" horiz-adv-x="1026" 
d="M344 111h643v-111h-768v414l-129 -78l-47 82l176 108v523h125v-447l143 88l48 -84l-191 -117v-378z" />
    <glyph glyph-name="m.sc" horiz-adv-x="1470" 
d="M1106 1049h188v-1049h-120v932l-388 -932h-102l-387 932v-932h-121l-2 1049h191l370 -910z" />
    <glyph glyph-name="n.sc" horiz-adv-x="1273" 
d="M973 1049h123v-1049h-123l-672 872v-872h-125v1049h123l674 -875v875z" />
    <glyph glyph-name="nacute.sc" horiz-adv-x="1273" 
d="M834 1524l-166 -314h-103l109 314h160zM973 1049h123v-1049h-123l-672 872v-872h-125v1049h123l674 -875v875z" />
    <glyph glyph-name="ncaron.sc" horiz-adv-x="1273" 
d="M711 1210h-146l-194 314h108l158 -215l158 215h108zM973 1049h123v-1049h-123l-672 872v-872h-125v1049h123l674 -875v875z" />
    <glyph glyph-name="ncommaaccent.sc" horiz-adv-x="1273" 
d="M973 1049h123v-1049h-123l-672 872v-872h-125v1049h123l674 -875v875zM639 -92q98 0 98 -135q0 -113 -57.5 -182t-124.5 -66v72q35 0 62.5 32.5t27.5 85.5q-47 0 -74.5 27.5t-27.5 71.5q0 43 28 68.5t68 25.5z" />
    <glyph glyph-name="eng.sc" horiz-adv-x="1271" 
d="M971 1049h125v-1104q0 -122 -72 -191t-199 -69q-76 0 -120 14l10 106q40 -14 86 -14q82 0 127 40t45 112v57l-674 874v-874h-123v1049h123l672 -873v873z" />
    <glyph glyph-name="uni0272.sc" horiz-adv-x="1271" 
d="M973 1049h123v-1049h-123l-672 872v-927q0 -122 -72.5 -191t-199.5 -69q-75 0 -119 14l8 106q40 -14 88 -14q81 0 125.5 40t44.5 112v1106h123l674 -875v875z" />
    <glyph glyph-name="ntilde.sc" horiz-adv-x="1273" 
d="M500 1368q-38 0 -61.5 -26.5t-24.5 -73.5h-95q0 97 43.5 149.5t129.5 52.5q48 0 86.5 -17t60 -38t50.5 -38t59 -17q39 0 62.5 26.5t23.5 73.5h96q0 -97 -47 -150t-127 -53q-45 0 -83.5 17.5t-60 38t-51.5 38t-61 17.5zM973 1049h123v-1049h-123l-672 872v-872h-125v1049
h123l674 -875v875z" />
    <glyph glyph-name="o.sc" horiz-adv-x="1314" 
d="M657 -8q-246 0 -400.5 143.5t-154.5 388.5q0 246 154.5 390.5t400.5 144.5q244 0 398.5 -144.5t154.5 -390.5q0 -163 -72 -284.5t-196.5 -184.5t-284.5 -63zM657 100q188 0 308 115t120 309q0 196 -119.5 310t-308.5 114t-309.5 -114.5t-120.5 -309.5q0 -194 121 -309
t309 -115z" />
    <glyph glyph-name="oacute.sc" horiz-adv-x="1314" 
d="M686 1219h-102l108 313h160zM657 -8q-246 0 -400.5 143.5t-154.5 388.5q0 246 154.5 390.5t400.5 144.5q244 0 398.5 -144.5t154.5 -390.5q0 -163 -72 -284.5t-196.5 -184.5t-284.5 -63zM657 100q188 0 308 115t120 309q0 196 -119.5 310t-308.5 114t-309.5 -114.5
t-120.5 -309.5q0 -194 121 -309t309 -115z" />
    <glyph glyph-name="obreve.sc" horiz-adv-x="1314" 
d="M918 1518q0 -142 -70 -223t-193 -81t-192.5 80t-69.5 224h105q0 -107 42.5 -157t114.5 -50q156 3 156 207h107zM657 -8q-246 0 -400.5 143.5t-154.5 388.5q0 246 154.5 390.5t400.5 144.5q244 0 398.5 -144.5t154.5 -390.5q0 -163 -72 -284.5t-196.5 -184.5t-284.5 -63z
M657 100q188 0 308 115t120 309q0 196 -119.5 310t-308.5 114t-309.5 -114.5t-120.5 -309.5q0 -194 121 -309t309 -115z" />
    <glyph glyph-name="ocircumflex.sc" horiz-adv-x="1314" 
d="M389 1219l195 313h145l195 -313h-109l-158 215l-159 -215h-109zM657 -8q-246 0 -400.5 143.5t-154.5 388.5q0 246 154.5 390.5t400.5 144.5q244 0 398.5 -144.5t154.5 -390.5q0 -163 -72 -284.5t-196.5 -184.5t-284.5 -63zM657 100q188 0 308 115t120 309
q0 196 -119.5 310t-308.5 114t-309.5 -114.5t-120.5 -309.5q0 -194 121 -309t309 -115z" />
    <glyph glyph-name="odieresis.sc" horiz-adv-x="1314" 
d="M483 1473q39 0 63.5 -25t24.5 -64q0 -40 -24 -64t-64 -24t-65 24t-25 64q0 38 25.5 63.5t64.5 25.5zM844 1473q40 0 65 -25.5t25 -63.5q0 -40 -25 -64t-65 -24t-65 24t-25 64q0 38 25 63.5t65 25.5zM657 -8q-246 0 -400.5 143.5t-154.5 388.5q0 246 154.5 390.5
t400.5 144.5q244 0 398.5 -144.5t154.5 -390.5q0 -163 -72 -284.5t-196.5 -184.5t-284.5 -63zM657 100q188 0 308 115t120 309q0 196 -119.5 310t-308.5 114t-309.5 -114.5t-120.5 -309.5q0 -194 121 -309t309 -115z" />
    <glyph glyph-name="uni1ECD.sc" horiz-adv-x="1314" 
d="M657 -8q-246 0 -400.5 143.5t-154.5 388.5q0 246 154.5 390.5t400.5 144.5q244 0 398.5 -144.5t154.5 -390.5q0 -163 -72 -284.5t-196.5 -184.5t-284.5 -63zM657 100q188 0 308 115t120 309q0 196 -119.5 310t-308.5 114t-309.5 -114.5t-120.5 -309.5q0 -194 121 -309
t309 -115zM657 -158q44 0 71.5 -26.5t27.5 -69.5t-27.5 -69.5t-71.5 -26.5t-71 26.5t-27 69.5t27 69.5t71 26.5z" />
    <glyph glyph-name="ograve.sc" horiz-adv-x="1314" 
d="M639 1219l-166 313h160l108 -313h-102zM657 -8q-246 0 -400.5 143.5t-154.5 388.5q0 246 154.5 390.5t400.5 144.5q244 0 398.5 -144.5t154.5 -390.5q0 -163 -72 -284.5t-196.5 -184.5t-284.5 -63zM657 100q188 0 308 115t120 309q0 196 -119.5 310t-308.5 114
t-309.5 -114.5t-120.5 -309.5q0 -194 121 -309t309 -115z" />
    <glyph glyph-name="ohungarumlaut.sc" horiz-adv-x="1314" 
d="M557 1219h-98l96 313h168zM844 1219h-99l97 313h168zM657 -8q-246 0 -400.5 143.5t-154.5 388.5q0 246 154.5 390.5t400.5 144.5q244 0 398.5 -144.5t154.5 -390.5q0 -163 -72 -284.5t-196.5 -184.5t-284.5 -63zM657 100q188 0 308 115t120 309q0 196 -119.5 310
t-308.5 114t-309.5 -114.5t-120.5 -309.5q0 -194 121 -309t309 -115z" />
    <glyph glyph-name="omacron.sc" horiz-adv-x="1314" 
d="M395 1333v99h531v-99h-531zM657 -8q-246 0 -400.5 143.5t-154.5 388.5q0 246 154.5 390.5t400.5 144.5q244 0 398.5 -144.5t154.5 -390.5q0 -163 -72 -284.5t-196.5 -184.5t-284.5 -63zM657 100q188 0 308 115t120 309q0 196 -119.5 310t-308.5 114t-309.5 -114.5
t-120.5 -309.5q0 -194 121 -309t309 -115z" />
    <glyph glyph-name="uni01EB.sc" horiz-adv-x="1314" 
d="M803 6q-15 -8 -36.5 -23t-53 -43.5t-53 -68.5t-21.5 -82q0 -48 27.5 -73t68.5 -25q56 0 105 35l37 -72q-48 -51 -150 -51q-84 0 -135 45.5t-51 126.5q0 123 114 217q-160 0 -284.5 63t-196.5 184.5t-72 284.5q0 246 154.5 390.5t400.5 144.5q244 0 398.5 -144.5
t154.5 -390.5q0 -205 -110.5 -341t-296.5 -177zM227 524q0 -194 121 -309t309 -115t308 115t120 309q0 196 -119.5 310t-308.5 114t-309.5 -114.5t-120.5 -309.5z" />
    <glyph glyph-name="oslash.sc" horiz-adv-x="1314" 
d="M983 971q108 -67 167.5 -182t59.5 -265q0 -163 -72 -284.5t-196.5 -184.5t-284.5 -63q-134 0 -241 43l-72 -119h-115l101 164q-108 67 -168 181t-60 263q0 246 154.5 390.5t400.5 144.5q130 0 242 -45l76 123h108zM227 524q0 -113 43.5 -200.5t120.5 -143.5l449 735
q-91 33 -183 33q-189 0 -309.5 -114.5t-120.5 -309.5zM657 100q188 0 308 115t120 309q0 231 -163 346l-447 -737q91 -33 182 -33z" />
    <glyph glyph-name="oslashacute.sc" horiz-adv-x="1314" 
d="M852 1532l-166 -313h-102l108 313h160zM983 971q108 -67 167.5 -182t59.5 -265q0 -163 -72 -284.5t-196.5 -184.5t-284.5 -63q-134 0 -241 43l-72 -119h-115l101 164q-108 67 -168 181t-60 263q0 246 154.5 390.5t400.5 144.5q130 0 242 -45l76 123h108zM227 524
q0 -113 43.5 -200.5t120.5 -143.5l449 735q-91 33 -183 33q-189 0 -309.5 -114.5t-120.5 -309.5zM657 100q188 0 308 115t120 309q0 231 -163 346l-447 -737q91 -33 182 -33z" />
    <glyph glyph-name="otilde.sc" horiz-adv-x="1314" 
d="M520 1376q-38 0 -61.5 -26.5t-24.5 -73.5h-94q0 97 43 150t129 53q48 0 86.5 -17.5t60 -38t50.5 -38t59 -17.5q39 0 62.5 26.5t23.5 73.5h96q0 -96 -47 -149t-127 -53q-37 0 -68.5 11.5t-53.5 27.5t-41.5 32t-43 27.5t-49.5 11.5zM657 -8q-246 0 -400.5 143.5
t-154.5 388.5q0 246 154.5 390.5t400.5 144.5q244 0 398.5 -144.5t154.5 -390.5q0 -163 -72 -284.5t-196.5 -184.5t-284.5 -63zM657 100q188 0 308 115t120 309q0 196 -119.5 310t-308.5 114t-309.5 -114.5t-120.5 -309.5q0 -194 121 -309t309 -115z" />
    <glyph glyph-name="oe.sc" horiz-adv-x="1974" 
d="M1210 109h664v-109h-789v166q-73 -85 -183.5 -129.5t-244.5 -44.5q-246 0 -400.5 143.5t-154.5 388.5q0 246 154.5 390.5t400.5 144.5q134 0 244.5 -44.5t183.5 -129.5v164h783v-109h-658v-344h600v-107h-600v-380zM657 100q188 0 308 115t120 309q0 196 -119.5 310
t-308.5 114t-309.5 -114.5t-120.5 -309.5q0 -194 121 -309t309 -115z" />
    <glyph glyph-name="p.sc" horiz-adv-x="1079" 
d="M635 1049q167 0 271 -80t104 -230t-104 -228.5t-271 -78.5h-334v-432h-125v1049h459zM635 539q113 0 180.5 52.5t67.5 147.5q0 96 -67.5 149.5t-180.5 53.5h-334v-403h334z" />
    <glyph glyph-name="thorn.sc" horiz-adv-x="1099" 
d="M635 840q167 0 271 -80t104 -230q0 -148 -104 -227.5t-271 -79.5h-334v-223h-125v1049h125v-209h334zM635 330q113 2 180.5 54.5t67.5 147.5t-68 148t-180 53h-334v-403h334z" />
    <glyph glyph-name="q.sc" horiz-adv-x="1314" 
d="M1210 524q0 -223 -129.5 -363t-341.5 -165q106 -100 275 -100l6 -119q-130 0 -237 57t-173 160q-227 14 -367.5 156t-140.5 374q0 246 154.5 390.5t400.5 144.5q244 0 398.5 -144.5t154.5 -390.5zM657 100q188 0 308 115t120 309q0 196 -119.5 310t-308.5 114
t-309.5 -114.5t-120.5 -309.5q0 -194 121 -309t309 -115z" />
    <glyph glyph-name="r.sc" horiz-adv-x="1146" 
d="M1085 106l11 -102q-54 -12 -88 -12q-86 0 -137 35t-97 114l-162 285h-311v-426h-125v1049h438q168 0 275.5 -81t107.5 -233q0 -118 -66.5 -192.5t-180.5 -102.5l155 -266q46 -76 119 -76q40 0 61 8zM301 942v-416h313q116 0 186 54t70 153q0 100 -70 154.5t-186 54.5
h-313z" />
    <glyph glyph-name="racute.sc" horiz-adv-x="1146" 
d="M735 1532l-166 -313h-102l108 313h160zM1085 106l11 -102q-54 -12 -88 -12q-86 0 -137 35t-97 114l-162 285h-311v-426h-125v1049h438q168 0 275.5 -81t107.5 -233q0 -118 -66.5 -192.5t-180.5 -102.5l155 -266q46 -76 119 -76q40 0 61 8zM301 942v-416h313q116 0 186 54
t70 153q0 100 -70 154.5t-186 54.5h-313z" />
    <glyph glyph-name="rcaron.sc" horiz-adv-x="1146" 
d="M612 1219h-145l-195 313h109l158 -215l157 215h109zM1085 106l11 -102q-54 -12 -88 -12q-86 0 -137 35t-97 114l-162 285h-311v-426h-125v1049h438q168 0 275.5 -81t107.5 -233q0 -118 -66.5 -192.5t-180.5 -102.5l155 -266q46 -76 119 -76q40 0 61 8zM301 942v-416h313
q116 0 186 54t70 153q0 100 -70 154.5t-186 54.5h-313z" />
    <glyph glyph-name="rcommaaccent.sc" horiz-adv-x="1146" 
d="M1085 106l11 -102q-54 -12 -88 -12q-86 0 -137 35t-97 114l-162 285h-311v-426h-125v1049h438q168 0 275.5 -81t107.5 -233q0 -118 -66.5 -192.5t-180.5 -102.5l155 -266q46 -76 119 -76q40 0 61 8zM301 942v-416h313q116 0 186 54t70 153q0 100 -70 154.5t-186 54.5
h-313zM578 -92q98 0 98 -135q0 -113 -57.5 -182t-124.5 -66v72q35 0 62.5 32.5t27.5 85.5q-47 0 -75 28t-28 71t28.5 68.5t68.5 25.5z" />
    <glyph glyph-name="s.sc" horiz-adv-x="1062" 
d="M248 778q0 -59 39.5 -96.5t102 -55t138.5 -30t152.5 -30.5t139 -47.5t102 -90t39.5 -149.5q0 -136 -113 -211.5t-307 -75.5q-203 0 -327 82t-124 229l123 -2q0 -94 86.5 -148.5t239.5 -54.5q139 0 218 45t79 136q0 64 -39.5 104.5t-102 60t-138.5 33t-152.5 31t-139 45
t-102 84.5t-39.5 141q0 130 113 205.5t299 75.5q183 0 294.5 -80.5t110.5 -220.5h-123q0 95 -76 143.5t-204 48.5q-137 0 -213 -43.5t-76 -128.5z" />
    <glyph glyph-name="sacute.sc" horiz-adv-x="1062" 
d="M731 1532l-166 -313h-102l108 313h160zM248 778q0 -59 39.5 -96.5t102 -55t138.5 -30t152.5 -30.5t139 -47.5t102 -90t39.5 -149.5q0 -136 -113 -211.5t-307 -75.5q-203 0 -327 82t-124 229l123 -2q0 -94 86.5 -148.5t239.5 -54.5q139 0 218 45t79 136q0 64 -39.5 104.5
t-102 60t-138.5 33t-152.5 31t-139 45t-102 84.5t-39.5 141q0 130 113 205.5t299 75.5q183 0 294.5 -80.5t110.5 -220.5h-123q0 95 -76 143.5t-204 48.5q-137 0 -213 -43.5t-76 -128.5z" />
    <glyph glyph-name="scaron.sc" horiz-adv-x="1062" 
d="M610 1219h-145l-195 313h109l158 -215l157 215h109zM248 778q0 -59 39.5 -96.5t102 -55t138.5 -30t152.5 -30.5t139 -47.5t102 -90t39.5 -149.5q0 -136 -113 -211.5t-307 -75.5q-203 0 -327 82t-124 229l123 -2q0 -94 86.5 -148.5t239.5 -54.5q139 0 218 45t79 136
q0 64 -39.5 104.5t-102 60t-138.5 33t-152.5 31t-139 45t-102 84.5t-39.5 141q0 130 113 205.5t299 75.5q183 0 294.5 -80.5t110.5 -220.5h-123q0 95 -76 143.5t-204 48.5q-137 0 -213 -43.5t-76 -128.5z" />
    <glyph glyph-name="scedilla.sc" horiz-adv-x="1062" 
d="M961 279q0 -134 -109 -209t-299 -78l-16 -80q69 -5 115 -41.5t46 -108.5q0 -76 -54.5 -120.5t-154.5 -44.5q-65 0 -114 18l18 88q43 -18 101 -18q55 0 83.5 20t28.5 53q0 84 -164 84l33 152q-176 14 -280.5 94t-104.5 215l123 -2q0 -94 86.5 -148.5t239.5 -54.5
q139 0 218 45t79 136q0 64 -39.5 104.5t-102 60t-138.5 33t-152.5 31t-139 45t-102 84.5t-39.5 141q0 130 113 205.5t299 75.5q183 0 294.5 -80.5t110.5 -220.5h-123q0 95 -76 143.5t-204 48.5q-137 0 -213 -43.5t-76 -128.5q0 -59 39.5 -96.5t102 -55t138.5 -30
t152.5 -30.5t139 -47.5t102 -90t39.5 -149.5z" />
    <glyph glyph-name="scircumflex.sc" horiz-adv-x="1062" 
d="M537 1434l-160 -215h-109l195 313h145l195 -313h-109zM248 778q0 -59 39.5 -96.5t102 -55t138.5 -30t152.5 -30.5t139 -47.5t102 -90t39.5 -149.5q0 -136 -113 -211.5t-307 -75.5q-203 0 -327 82t-124 229l123 -2q0 -94 86.5 -148.5t239.5 -54.5q139 0 218 45t79 136
q0 64 -39.5 104.5t-102 60t-138.5 33t-152.5 31t-139 45t-102 84.5t-39.5 141q0 130 113 205.5t299 75.5q183 0 294.5 -80.5t110.5 -220.5h-123q0 95 -76 143.5t-204 48.5q-137 0 -213 -43.5t-76 -128.5z" />
    <glyph glyph-name="scommaaccent.sc" horiz-adv-x="1062" 
d="M248 778q0 -59 39.5 -96.5t102 -55t138.5 -30t152.5 -30.5t139 -47.5t102 -90t39.5 -149.5q0 -136 -113 -211.5t-307 -75.5q-203 0 -327 82t-124 229l123 -2q0 -94 86.5 -148.5t239.5 -54.5q139 0 218 45t79 136q0 64 -39.5 104.5t-102 60t-138.5 33t-152.5 31t-139 45
t-102 84.5t-39.5 141q0 130 113 205.5t299 75.5q183 0 294.5 -80.5t110.5 -220.5h-123q0 95 -76 143.5t-204 48.5q-137 0 -213 -43.5t-76 -128.5zM535 -92q98 0 98 -135q0 -113 -57.5 -182t-124.5 -66v72q35 0 62.5 32.5t27.5 85.5q-47 0 -75 28t-28 71t28.5 68.5t68.5 25.5
z" />
    <glyph glyph-name="germandbls.sc" horiz-adv-x="1167" 
d="M743 594q155 -13 240.5 -91t85.5 -204q0 -138 -104 -218.5t-293 -80.5h-123v102h123q130 0 201 51.5t71 145.5t-70.5 148.5t-195.5 54.5h-74v92l256 348h-389q-86 0 -133 -42t-47 -116v-784h-125v784q0 116 78 190.5t211 74.5h569v-80z" />
    <glyph glyph-name="t.sc" horiz-adv-x="995" 
d="M434 0v940h-397v109h919v-109h-397v-940h-125z" />
    <glyph glyph-name="tbar.sc" horiz-adv-x="1013" 
d="M967 940h-398v-344h226v-92h-226v-504h-125v504h-229v92h229v344h-397v109h920v-109z" />
    <glyph glyph-name="tcaron.sc" horiz-adv-x="995" 
d="M231 1524h109l158 -215l157 215h109l-193 -314h-145zM434 0v940h-397v109h919v-109h-397v-940h-125z" />
    <glyph glyph-name="uni0163.sc" horiz-adv-x="995" 
d="M559 0h-24l-19 -88q70 -5 116 -41.5t46 -108.5q0 -76 -54.5 -120.5t-154.5 -44.5q-66 0 -115 18l19 88q43 -18 100 -18q55 0 84 20t29 53q0 84 -164 84l33 158h-21v940h-397v109h919v-109h-397v-940z" />
    <glyph glyph-name="uni021B.sc" horiz-adv-x="995" 
d="M434 0v940h-397v109h919v-109h-397v-940h-125zM428 -403q35 0 62.5 32.5t27.5 85.5q-46 0 -74 27.5t-28 71.5q0 43 28 68.5t68 25.5q98 0 98 -135q0 -113 -57.5 -182t-124.5 -66v72z" />
    <glyph glyph-name="u.sc" horiz-adv-x="1239" 
d="M952 1049h125v-635q0 -200 -119.5 -311t-339.5 -111q-219 0 -337.5 111t-118.5 311v635h125v-635q0 -154 84 -234t247 -80q164 0 249 80t85 234v635z" />
    <glyph glyph-name="uacute.sc" horiz-adv-x="1239" 
d="M649 1210h-102l108 314h160zM952 1049h125v-635q0 -200 -119.5 -311t-339.5 -111q-219 0 -337.5 111t-118.5 311v635h125v-635q0 -154 84 -234t247 -80q164 0 249 80t85 234v635z" />
    <glyph glyph-name="ubreve.sc" horiz-adv-x="1239" 
d="M881 1509q0 -142 -70 -222.5t-193 -80.5q-124 0 -193 79.5t-69 223.5h105q0 -107 42.5 -156.5t114.5 -49.5q156 3 156 206h107zM952 1049h125v-635q0 -200 -119.5 -311t-339.5 -111q-219 0 -337.5 111t-118.5 311v635h125v-635q0 -154 84 -234t247 -80q164 0 249 80
t85 234v635z" />
    <glyph glyph-name="ucircumflex.sc" horiz-adv-x="1239" 
d="M352 1210l195 314h145l195 -314h-109l-157 215l-160 -215h-109zM952 1049h125v-635q0 -200 -119.5 -311t-339.5 -111q-219 0 -337.5 111t-118.5 311v635h125v-635q0 -154 84 -234t247 -80q164 0 249 80t85 234v635z" />
    <glyph glyph-name="udieresis.sc" horiz-adv-x="1239" 
d="M446 1464q40 0 64.5 -25t24.5 -63q0 -40 -24.5 -64t-64.5 -24t-65 24t-25 64q0 38 25 63t65 25zM807 1464q40 0 65 -25t25 -63q0 -40 -25 -64t-65 -24t-65 24t-25 64q0 38 25 63t65 25zM952 1049h125v-635q0 -200 -119.5 -311t-339.5 -111q-219 0 -337.5 111t-118.5 311
v635h125v-635q0 -154 84 -234t247 -80q164 0 249 80t85 234v635z" />
    <glyph glyph-name="uni1EE5.sc" horiz-adv-x="1239" 
d="M952 1049h125v-635q0 -200 -119.5 -311t-339.5 -111q-219 0 -337.5 111t-118.5 311v635h125v-635q0 -154 84 -234t247 -80q164 0 249 80t85 234v635zM621 -158q44 0 71 -26.5t27 -69.5t-27 -69.5t-71 -26.5t-71.5 26.5t-27.5 69.5t27.5 69.5t71.5 26.5z" />
    <glyph glyph-name="ugrave.sc" horiz-adv-x="1239" 
d="M600 1210l-166 314h160l108 -314h-102zM952 1049h125v-635q0 -200 -119.5 -311t-339.5 -111q-219 0 -337.5 111t-118.5 311v635h125v-635q0 -154 84 -234t247 -80q164 0 249 80t85 234v635z" />
    <glyph glyph-name="uhungarumlaut.sc" horiz-adv-x="1239" 
d="M520 1210h-98l96 314h168zM807 1210h-98l96 314h168zM952 1049h125v-635q0 -200 -119.5 -311t-339.5 -111q-219 0 -337.5 111t-118.5 311v635h125v-635q0 -154 84 -234t247 -80q164 0 249 80t85 234v635z" />
    <glyph glyph-name="umacron.sc" horiz-adv-x="1239" 
d="M358 1325v98h531v-98h-531zM952 1049h125v-635q0 -200 -119.5 -311t-339.5 -111q-219 0 -337.5 111t-118.5 311v635h125v-635q0 -154 84 -234t247 -80q164 0 249 80t85 234v635z" />
    <glyph glyph-name="uogonek.sc" horiz-adv-x="1239" 
d="M952 1049h125v-635q0 -154 -70.5 -256t-203.5 -142q-7 -4 -18 -10.5t-39.5 -29t-50.5 -46t-40 -60t-18 -73.5q0 -48 27.5 -73t68.5 -25q56 0 105 35l36 -72q-48 -51 -149 -51q-84 0 -135 45.5t-51 126.5q0 118 106 209h-27q-219 0 -337.5 111t-118.5 311v635h125v-635
q0 -154 84 -234t247 -80q164 0 249 80t85 234v635z" />
    <glyph glyph-name="uring.sc" horiz-adv-x="1239" 
d="M621 1196q-74 0 -125.5 47.5t-51.5 120.5q0 77 51 125.5t126 48.5q73 0 123.5 -48.5t50.5 -125.5q0 -73 -50.5 -120.5t-123.5 -47.5zM621 1280q39 0 62.5 24t23.5 60q0 39 -23.5 62.5t-62.5 23.5q-41 0 -63.5 -23.5t-22.5 -62.5q0 -36 23 -60t63 -24zM952 1049h125v-635
q0 -200 -119.5 -311t-339.5 -111q-219 0 -337.5 111t-118.5 311v635h125v-635q0 -154 84 -234t247 -80q164 0 249 80t85 234v635z" />
    <glyph glyph-name="utilde.sc" horiz-adv-x="1239" 
d="M481 1368q-38 0 -61.5 -26.5t-24.5 -73.5h-94q0 97 43 149.5t129 52.5q48 0 86.5 -17t60 -38t50.5 -38t59 -17q39 0 62.5 26.5t23.5 73.5h96q0 -97 -47 -150t-127 -53q-45 0 -83.5 17.5t-60 38t-51.5 38t-61 17.5zM952 1049h125v-635q0 -200 -119.5 -311t-339.5 -111
q-219 0 -337.5 111t-118.5 311v635h125v-635q0 -154 84 -234t247 -80q164 0 249 80t85 234v635z" />
    <glyph glyph-name="v.sc" horiz-adv-x="1093" 
d="M926 1049h125l-437 -1049h-135l-438 1049h125l381 -914z" />
    <glyph glyph-name="w.sc" horiz-adv-x="1642" 
d="M1470 1049h125l-348 -1049h-139l-287 909l-286 -909h-140l-348 1049h125l293 -928l289 928h135l289 -928z" />
    <glyph glyph-name="wacute.sc" horiz-adv-x="1642" 
d="M1018 1524l-166 -314h-102l108 314h160zM1470 1049h125l-348 -1049h-139l-287 909l-286 -909h-140l-348 1049h125l293 -928l289 928h135l289 -928z" />
    <glyph glyph-name="wcircumflex.sc" horiz-adv-x="1642" 
d="M823 1425l-159 -215h-109l195 314h145l195 -314h-109zM1470 1049h125l-348 -1049h-139l-287 909l-286 -909h-140l-348 1049h125l293 -928l289 928h135l289 -928z" />
    <glyph glyph-name="wdieresis.sc" horiz-adv-x="1642" 
d="M649 1288q-40 0 -65 24t-25 64q0 38 25 63t65 25q39 0 63.5 -24.5t24.5 -63.5q0 -40 -24 -64t-64 -24zM1010 1288q-40 0 -65 24t-25 64q0 38 25 63t65 25t65 -25t25 -63q0 -40 -25 -64t-65 -24zM1470 1049h125l-348 -1049h-139l-287 909l-286 -909h-140l-348 1049h125
l293 -928l289 928h135l289 -928z" />
    <glyph glyph-name="wgrave.sc" horiz-adv-x="1642" 
d="M905 1210h-102l-166 314h160zM1470 1049h125l-348 -1049h-139l-287 909l-286 -909h-140l-348 1049h125l293 -928l289 928h135l289 -928z" />
    <glyph glyph-name="x.sc" horiz-adv-x="1058" 
d="M1026 0h-141l-355 463l-354 -463h-139l403 535l-385 514h142l333 -443l330 443h141l-378 -510z" />
    <glyph glyph-name="y.sc" horiz-adv-x="1073" 
d="M1026 1049l-428 -609v-440h-125v438l-430 611h137l355 -502l356 502h135z" />
    <glyph glyph-name="yacute.sc" horiz-adv-x="1073" 
d="M731 1524l-166 -314h-102l108 314h160zM1026 1049l-428 -609v-440h-125v438l-430 611h137l355 -502l356 502h135z" />
    <glyph glyph-name="ycircumflex.sc" horiz-adv-x="1073" 
d="M537 1425l-160 -215h-109l195 314h145l195 -314h-109zM1026 1049l-428 -609v-440h-125v438l-430 611h137l355 -502l356 502h135z" />
    </font>
</defs>
</svg>
